<svg width="637" height="496" viewBox="0 0 637 496" fill="none" xmlns="http://www.w3.org/2000/svg">
<path opacity="0.1" d="M231.879 492.573C359.942 492.573 463.757 488.871 463.757 484.305C463.757 479.739 359.942 476.037 231.879 476.037C103.816 476.037 0 479.739 0 484.305C0 488.871 103.816 492.573 231.879 492.573Z" fill="#63A1FF"/>
<path opacity="0.1" d="M170.919 15.0106C185.691 1.8403 208.879 -0.843874 229.986 0.205252C296.282 3.50053 356.126 35.5218 407.891 71.7415C426.631 84.8535 445.081 98.9843 457.246 117.041C482.008 153.798 474.663 204.718 440.23 234.999C428.515 245.302 414.313 253.2 399.734 260.201C373.811 272.65 345.84 282.643 316.418 285.488C295.436 287.516 274.197 285.867 253.338 283.037C195.06 275.13 137.857 257.645 89.9121 227.73C68.8837 214.609 49.0633 198.298 40.3957 177.072C31.7282 155.846 37.2753 128.949 58.7475 116.386C67.6281 111.19 78.2461 108.843 88.6415 106.639C103.943 103.396 119.49 100.198 133.298 93.604C147.561 86.7931 164.449 73.6219 161.625 58.5467C158.595 42.3714 156.164 28.1654 170.919 15.0106Z" fill="#63A1FF"/>
<path opacity="0.1" d="M574.984 496C609.235 496 637 493.542 637 490.511C637 487.479 609.235 485.021 574.984 485.021C540.734 485.021 512.969 487.479 512.969 490.511C512.969 493.542 540.734 496 574.984 496Z" fill="#63A1FF"/>
<path d="M323.441 186.803C322.431 184.847 317.094 172.696 317.094 172.696L308.15 149.51C308.15 149.51 301.803 139.733 301.803 137.917C301.803 136.101 290.263 128.838 290.263 128.838C290.263 128.838 280.886 126.045 280.165 125.765C279.443 125.486 268.336 121.81 268.336 121.81C268.336 121.81 263.962 116.055 263.339 117.558L263.338 117.562C263.316 117.524 263.292 117.491 263.27 117.452C262.376 115.781 261.81 113.955 261.602 112.072C261.578 111.904 261.558 111.728 261.537 111.553C264.418 109.6 266.779 106.973 268.416 103.9C270.053 100.827 270.917 97.4017 270.932 93.9197C270.93 93.003 270.869 92.0874 270.748 91.1787C270.827 91.1292 270.91 91.0855 270.996 91.048C271.175 90.97 271.13 90.9066 270.998 90.8404C271.043 90.8167 271.088 90.7915 271.134 90.7722C271.373 90.6684 271.213 90.5898 270.982 90.4963L270.996 90.4894C271.321 90.3479 270.91 90.2542 270.579 90.1046C270.561 90.0079 270.545 89.9109 270.526 89.8147C270.599 89.6307 270.644 89.4367 270.658 89.2392C270.688 89.2538 270.714 89.2695 270.745 89.2831C270.826 88.9231 270.824 88.5496 270.739 88.1906C270.719 88.2635 270.694 88.3352 270.664 88.4051C270.685 88.0796 270.618 87.7545 270.47 87.4637C270.323 87.1728 270.1 86.927 269.825 86.7517C269.808 86.7372 269.79 86.7217 269.773 86.7071L270.385 80.441C279.406 80.0145 280.988 64.6601 278.931 63.8071C276.873 62.954 278.931 61.1058 278.931 57.4094C278.931 53.7129 272.126 49.59 272.126 49.59C272.126 49.59 269.277 51.0117 264.846 43.9032C260.414 36.7947 244.114 35.6573 243.006 37.5055C241.898 39.3537 234.618 41.7706 225.123 44.4719C215.627 47.1731 217.368 58.4046 218.95 60.8215C220.254 62.8196 221.018 65.1219 221.166 67.5035C221.166 68.9252 224.173 74.8963 224.173 74.8963C223.225 76.9654 225.638 88.3004 226.353 91.522C226.342 91.621 226.33 91.7197 226.32 91.8191C226.314 91.8288 226.306 91.8371 226.3 91.847C226.266 91.899 226.235 91.9531 226.208 92.009C226.054 92.3428 226.003 92.7148 226.062 93.0776C226.01 93.4741 226.065 93.8774 226.222 94.2453C226.276 97.2803 226.978 100.269 228.281 103.01C229.583 105.752 231.456 108.184 233.774 110.142C233.785 110.336 233.796 110.531 233.807 110.731C233.94 113.362 234.015 116.474 233.876 119.452C233.869 119.604 233.858 119.754 233.849 119.905C233.326 120.011 232.835 120.239 232.415 120.569C231.996 120.9 231.66 121.325 231.435 121.81C230.541 123.53 225.348 126.184 225.348 126.184C225.348 126.184 216.26 126.603 215.394 128.279C214.529 129.956 201.401 135.542 201.401 135.542C201.401 135.542 194.477 139.593 195.487 144.202C196.015 146.611 194.533 150.352 192.999 153.378C189.789 152.16 186.446 151.326 183.04 150.894L190.395 157.932C190.24 158.173 190.15 158.309 190.15 158.309L185.966 173.115C185.966 173.115 184.524 178.282 183.081 179.54C181.639 180.797 184.379 192.25 184.379 192.25C184.379 192.25 182.793 200.351 181.494 202.446C180.196 204.541 183.514 209.709 183.514 209.709L190.15 224.794L207.749 229.263C207.749 229.263 208.921 229.511 210.817 229.918C210.757 230.278 210.696 230.637 210.634 230.995C209.786 235.8 208.672 240.219 207.316 241.415C203.998 244.348 204.142 257.477 204.142 257.477L204.287 276.054C204.287 276.054 205.441 298.96 204.864 299.798C204.499 300.327 205.23 301.19 207.159 301.965C207.104 302.31 207.05 302.66 206.999 303.016C206.456 306.815 206.214 311.151 207.46 313.067C208.001 314.104 208.298 315.25 208.326 316.419C208.326 318.235 211.067 322.006 211.067 322.006C211.067 322.006 208.903 337.51 212.509 342.818C216.116 348.125 219.145 357.763 217.414 359.997C217.414 359.997 214.384 366.562 215.827 369.495C217.27 372.428 215.827 374.105 213.952 374.803C212.076 375.501 212.238 381.228 212.238 381.228L215.683 408.464C215.683 408.464 217.558 414.051 215.971 416.007C214.384 417.962 214.384 427.739 216.837 431.091C219.289 434.443 213.375 440.589 213.375 440.589C213.375 440.589 209.768 445.757 215.538 447.433C215.538 447.433 216.693 447.712 214.529 449.947C212.365 452.182 211.932 454.975 213.375 455.953C213.674 456.133 213.987 456.288 214.31 456.418C214.257 456.749 214.199 457.092 214.131 457.456C213.577 460.372 212.532 464.171 210.634 466.01C206.954 469.781 203.779 474.014 201.188 478.603C199.209 482.357 198.343 485.871 200.536 487.519C205.729 491.43 212.365 492.687 216.26 491.151C220.155 489.614 225.636 484.865 225.636 484.865L226.935 479.418C226.935 479.418 226.069 476.066 230.397 474.809C234.724 473.552 238.764 469.082 238.764 469.082V461.842C239.811 461.243 240.823 460.582 241.793 459.864C241.793 459.864 243.812 452.741 241.793 450.366C239.773 447.992 239.052 447.154 241.649 445.617C244.245 444.081 244.597 440.729 242.693 437.796C240.783 434.862 237.754 430.533 240.35 424.387C242.947 418.241 243.899 399.385 243.899 399.385C243.899 399.385 242.687 386.535 243.899 383.602C245.111 380.669 242.514 374.803 242.514 374.803C242.514 374.803 243.38 367.54 244.967 364.188C246.553 360.836 247.852 343.097 247.852 343.097C247.852 343.097 250.737 335.555 250.737 330.666C250.737 325.778 246.265 314.045 252.901 310.972C252.901 310.972 255.786 313.486 254.632 323.543C254.632 323.543 257.949 335.275 257.949 338.907C257.949 342.538 260.402 355.668 260.402 355.668C260.402 355.668 260.69 359.858 261.7 361.394C262.71 362.931 261.7 367.121 261.7 367.121C261.7 367.121 265.451 370.613 264.441 372.848C263.431 375.082 264.614 380.122 264.614 380.122L263.72 411.397C263.72 411.397 261.123 424.806 267.182 432.907C267.182 432.907 265.018 444.779 263.72 445.617C262.421 446.455 268.48 453.718 268.48 453.718C268.48 453.718 266.801 458.424 270.211 458.654V466.429C271.395 468.522 273.019 470.333 274.972 471.736C278.145 473.971 276.847 481.653 276.847 481.653C276.847 481.653 280.886 491.43 291.561 489.335C302.236 487.24 303.678 486.262 303.101 482.77C302.894 481.497 302.432 479.223 301.768 476.642C300.62 472.155 298.86 466.742 296.754 464.071C293.436 459.864 290.695 451.065 290.695 451.065C290.695 451.065 289.397 448.132 290.695 447.154C291.994 446.176 291.417 444.36 291.417 444.36C291.417 444.36 292.68 440.729 291.544 438.494C290.407 436.259 293.725 431.65 293.725 431.65L292.715 410.14L293.725 378.854C293.725 378.854 289.253 373.686 291.128 370.613C293.003 367.54 288.964 363.21 288.964 363.21C288.964 363.21 288.532 363.07 289.686 359.579C290.376 357.521 290.273 355.279 289.397 353.293C289.397 353.293 286.945 344.634 291.272 338.069C291.272 338.069 293.148 329.409 293.725 324.94C294.123 321.833 296.616 310.229 298.099 303.441C298.182 303.057 298.263 302.69 298.34 302.339C300.476 302.456 302.091 302.592 302.091 302.592C302.091 302.592 298.774 279.546 302.091 274.797C305.409 270.048 299.495 233.733 299.495 233.733C299.495 233.733 298.081 227.386 297.21 220.911C297.16 220.542 297.115 220.173 297.069 219.805C299.747 219.59 302.436 219.531 305.121 219.626C312.045 220.045 318.825 217.391 318.969 214.737C319.114 212.083 322.864 201.608 323.441 199.234C324.018 196.859 324.451 188.758 323.441 186.803Z" fill="url(#paint0_linear)"/>
<path d="M239.268 456.249V469.181C239.268 469.181 235.376 473.632 231.206 474.883C227.036 476.135 227.87 479.472 227.87 479.472L226.619 484.896C226.619 484.896 221.337 489.624 217.584 491.154C213.832 492.683 207.438 491.432 202.434 487.538C200.321 485.897 201.155 482.398 203.062 478.66C205.546 474.108 208.605 469.894 212.164 466.122C213.993 464.292 214.999 460.509 215.533 457.606C215.928 455.431 216.055 453.745 216.055 453.745L239.268 456.249Z" fill="#4C495A"/>
<path opacity="0.1" d="M239.268 465.899V469.181C239.268 469.181 235.376 473.631 231.206 474.883C227.036 476.135 227.87 479.472 227.87 479.472L226.619 484.896C226.619 484.896 221.337 489.624 217.584 491.154C213.832 492.683 207.438 491.432 202.434 487.538C200.321 485.897 201.155 482.398 203.062 478.66C202.973 482.587 204.135 486.998 209.801 486.843C215.915 486.648 221.808 484.505 226.619 480.724C226.619 480.724 226.48 471.545 232.874 469.459C235.211 468.688 237.381 467.48 239.268 465.899Z" fill="black"/>
<path d="M290.142 489.346C279.856 491.432 275.964 481.697 275.964 481.697C275.964 481.697 277.215 474.049 274.157 471.824C272.266 470.413 270.702 468.61 269.57 466.539V453.745L282.08 444.845L288.852 450.842L289.308 451.242C289.308 451.242 291.949 460.003 295.146 464.192C297.176 466.851 298.871 472.241 299.978 476.708C300.617 479.278 301.062 481.542 301.262 482.81C301.818 486.286 300.428 487.26 290.142 489.346Z" fill="#4C495A"/>
<path opacity="0.1" d="M290.142 489.346C279.856 491.432 275.964 481.697 275.964 481.697C275.964 481.697 277.215 474.049 274.157 471.824C272.266 470.413 270.702 468.61 269.57 466.539V461.583C271.555 463.68 275.297 467.741 276.103 469.46C277.215 471.824 277.354 480.446 282.497 481.975C287.64 483.505 297.648 484.896 298.482 481.002C298.829 479.522 299.33 478.083 299.978 476.708C300.617 479.278 301.062 481.542 301.262 482.81C301.818 486.286 300.428 487.26 290.142 489.346Z" fill="black"/>
<path opacity="0.1" d="M216.055 453.745L239.268 456.249V463.085C236.65 464.637 232.897 466.283 230.789 464.592C227.676 462.1 218.418 458.935 215.533 457.606C215.928 455.431 216.055 453.745 216.055 453.745Z" fill="black"/>
<path opacity="0.1" d="M289.308 452.355C286.111 451.242 280.412 456.109 272.906 459.169C271.863 459.661 270.724 459.915 269.57 459.914V453.745L282.08 444.845L288.852 450.842C288.957 451.359 289.109 451.866 289.308 452.355Z" fill="black"/>
<path d="M297.509 299.245C297.509 299.245 297.07 301.292 296.442 304.262C295.013 311.021 292.611 322.574 292.227 325.667C291.671 330.117 289.864 338.739 289.864 338.739C285.694 345.275 288.057 353.897 288.057 353.897C288.902 355.881 289.001 358.104 288.335 360.155C287.223 363.632 287.64 363.771 287.64 363.771C287.64 363.771 291.532 368.082 289.725 371.141C287.918 374.201 292.227 379.346 292.227 379.346L291.254 410.496L292.227 431.912C292.227 431.912 289.03 436.501 290.125 438.726C291.221 440.951 290.003 444.567 290.003 444.567C290.003 444.567 290.559 446.375 289.308 447.348C288.057 448.322 289.308 451.242 289.308 451.242C286.111 450.13 280.412 454.997 272.906 458.056C265.4 461.116 267.902 453.884 267.902 453.884C267.902 453.884 262.064 446.653 263.315 445.819C264.566 444.984 266.651 433.164 266.651 433.164C260.813 425.098 263.315 411.748 263.315 411.748L264.177 380.609C264.177 380.609 263.037 375.591 264.01 373.366C264.983 371.141 261.369 367.665 261.369 367.665C261.369 367.665 262.342 363.493 261.369 361.963C260.396 360.433 260.118 356.261 260.118 356.261C260.118 356.261 257.755 343.189 257.755 339.574C257.755 335.958 254.558 324.276 254.558 324.276C255.67 314.264 252.89 311.761 252.89 311.761C246.496 314.82 250.805 326.501 250.805 331.369C250.805 336.236 248.025 343.745 248.025 343.745C248.025 343.745 246.774 361.407 245.245 364.744C243.716 368.082 242.882 375.313 242.882 375.313C242.882 375.313 245.384 381.154 244.217 384.074C243.049 386.995 244.217 399.788 244.217 399.788C244.217 399.788 243.299 418.562 240.797 424.681C238.295 430.8 241.214 435.111 243.055 438.031C244.889 440.952 244.55 444.289 242.048 445.819C239.546 447.348 240.241 448.183 242.187 450.547C244.133 452.911 242.187 460.003 242.187 460.003C242.187 460.003 234.264 466.261 230.789 463.48C227.314 460.699 216.194 457.083 214.804 456.11C213.414 455.136 213.831 452.355 215.916 450.13C218.001 447.905 216.889 447.627 216.889 447.627C211.329 445.958 214.804 440.812 214.804 440.812C214.804 440.812 220.503 434.694 218.14 431.356C215.777 428.018 215.777 418.284 217.306 416.337C218.835 414.39 217.028 408.828 217.028 408.828L213.709 381.71C213.709 381.71 213.553 376.008 215.36 375.313C217.167 374.618 218.557 372.949 217.167 370.029C215.777 367.108 218.696 360.572 218.696 360.572C220.364 358.347 217.445 348.752 213.97 343.467C210.495 338.183 212.58 322.747 212.58 322.747C212.58 322.747 209.939 318.992 209.939 317.184C209.913 316.023 209.629 314.883 209.105 313.847C207.905 311.939 208.138 307.622 208.661 303.84C209.167 300.179 209.939 297.02 209.939 297.02L297.509 299.245Z" fill="#444053"/>
<path d="M270.265 141.685L242.882 148.082C242.882 148.082 229.399 136.678 232.735 130.56C233.881 128.457 234.387 124.869 234.559 121.075C234.693 118.111 234.62 115.012 234.492 112.392C234.298 108.604 233.986 105.806 233.986 105.806C233.986 105.806 262.064 89.9528 261.091 105.806C260.893 108.446 260.955 111.099 261.275 113.727C261.473 115.597 262.018 117.414 262.882 119.084C264.383 121.76 266.234 121.799 266.234 121.799L270.265 141.685Z" fill="#FDC2CC"/>
<path opacity="0.1" d="M261.275 113.727C257.317 116.567 252.515 117.981 247.651 117.739C242.786 117.497 238.148 115.612 234.492 112.392C234.298 108.604 233.986 105.806 233.986 105.806C233.986 105.806 262.064 89.9528 261.091 105.806C260.893 108.446 260.955 111.099 261.275 113.727Z" fill="black"/>
<path d="M248.72 117.209C260.619 117.209 270.265 107.559 270.265 95.6544C270.265 83.7499 260.619 74.0994 248.72 74.0994C236.821 74.0994 227.175 83.7499 227.175 95.6544C227.175 107.559 236.821 117.209 248.72 117.209Z" fill="#FDC2CC"/>
<path opacity="0.1" d="M270.265 141.685L242.882 148.082C242.882 148.082 229.399 136.678 232.735 130.56C233.881 128.457 234.387 124.869 234.559 121.075C235.164 124.374 236.934 127.346 239.546 129.447C245.801 133.619 244.828 138.764 244.828 138.764L256.087 138.347C255.392 133.758 259.562 131.255 260.952 130.699C262.342 130.142 261.647 127.639 261.647 127.639L262.882 119.084C264.383 121.76 266.234 121.799 266.234 121.799L270.265 141.685Z" fill="black"/>
<path opacity="0.1" d="M297.509 299.245C297.509 299.245 297.07 301.292 296.442 304.262C293.417 304.101 289.419 303.984 287.64 304.39C284.582 305.086 272.35 305.364 272.35 305.364L242.048 306.437V305.503C238.563 305.531 235.082 305.763 231.623 306.198C226.48 306.893 218.418 305.92 213.275 305.085C211.692 304.859 210.143 304.44 208.661 303.839C209.167 300.179 209.939 297.02 209.939 297.02L297.509 299.245Z" fill="black"/>
<path d="M295.146 210.939C294.707 213.537 295.029 217.842 295.585 222.092C296.425 228.539 297.787 234.858 297.787 234.858C297.787 234.858 303.486 271.015 300.289 275.743C297.092 280.471 300.289 303.417 300.289 303.417C300.289 303.417 290.698 302.582 287.64 303.278C284.582 303.973 272.35 304.251 272.35 304.251L242.048 305.325V304.39C238.563 304.418 235.082 304.65 231.623 305.085C226.48 305.781 218.418 304.807 213.275 303.973C208.132 303.138 206.048 301.47 206.604 300.635C207.16 299.801 206.048 276.994 206.048 276.994L205.909 258.499C205.909 258.499 205.77 245.427 208.967 242.506C210.273 241.316 211.346 236.916 212.163 232.132C213.337 225.207 213.97 217.475 213.97 217.475L192.843 160.876L192.426 159.763C192.426 159.763 198.542 150.307 197.569 145.718C196.596 141.128 203.268 137.096 203.268 137.096C203.268 137.096 215.916 131.533 216.75 129.864C217.584 128.195 226.341 127.778 226.341 127.778C226.341 127.778 231.345 125.136 232.207 123.423C232.417 122.944 232.738 122.523 233.143 122.193C233.548 121.863 234.026 121.634 234.537 121.526C235.126 124.865 236.906 127.877 239.546 130.003C245.801 134.175 244.828 139.321 244.828 139.321L256.087 138.903C255.392 134.314 259.562 131.811 260.952 131.255C262.342 130.699 261.647 128.196 261.647 128.196L262.948 119.19C263.549 117.693 267.763 123.423 267.763 123.423C267.763 123.423 278.466 127.083 279.161 127.361C279.856 127.639 288.891 130.421 288.891 130.421C288.891 130.421 300.011 137.652 300.011 139.46C300.011 141.268 306.127 151.002 306.127 151.002C306.127 151.002 306.055 151.391 305.921 152.103C304.509 159.769 296.164 204.959 295.146 210.939Z" fill="#63A1FF"/>
<path d="M250.666 188.41C250.666 188.41 226.619 182.013 224.256 180.484C221.893 178.954 207.993 187.854 224.951 199.953C224.951 199.953 245.688 204.264 251.235 199.953C256.782 195.642 250.666 188.41 250.666 188.41Z" fill="#FDC2CC"/>
<path opacity="0.1" d="M302.652 150.307L305.571 150.446L314.189 173.531C314.189 173.531 319.332 185.629 320.305 187.576C321.278 189.523 320.861 197.589 320.305 199.953C319.749 202.317 316.135 212.747 315.996 215.389C315.857 218.031 309.324 220.673 302.652 220.256C295.98 219.839 280.412 221.925 280.412 221.925C280.412 221.925 263.786 220.186 253.585 225.402C253.585 225.402 247.052 211.912 247.747 186.742C247.747 186.742 259.284 186.046 262.203 187.159C265.122 188.271 279.3 191.47 281.107 189.801C282.914 188.132 291.115 192.86 291.115 192.86C291.532 191.943 291.748 190.948 291.748 189.94C291.748 188.933 291.532 187.937 291.115 187.02C289.725 183.682 287.362 173.252 290.42 169.915C293.478 166.577 302.652 150.307 302.652 150.307Z" fill="black"/>
<path opacity="0.1" d="M295.585 222.092C288.685 222.559 280.968 223.594 280.968 223.594C280.968 223.594 264.344 221.853 254.141 227.07C254.141 227.07 247.608 213.581 248.303 188.41C248.303 188.41 259.84 187.715 262.759 188.828C265.678 189.94 279.856 193.139 281.663 191.47C283.47 189.801 291.671 194.529 291.671 194.529C292.088 193.612 292.304 192.616 292.304 191.609C292.304 190.601 292.088 189.605 291.671 188.688C290.281 185.351 287.918 174.921 290.976 171.584C294.034 168.246 303.208 151.975 303.208 151.975L305.921 152.103C304.509 159.769 296.164 204.959 295.146 210.939C294.707 213.536 295.029 217.842 295.585 222.092Z" fill="black"/>
<path d="M303.208 150.863L306.127 151.002L314.745 174.087C314.745 174.087 319.888 186.185 320.861 188.132C321.834 190.079 321.417 198.145 320.861 200.509C320.305 202.873 316.691 213.303 316.552 215.945C316.413 218.587 309.88 221.23 303.208 220.812C296.536 220.395 280.968 222.481 280.968 222.481C280.968 222.481 264.342 220.743 254.141 225.958C254.141 225.958 247.608 212.469 248.303 187.298C248.303 187.298 259.84 186.603 262.759 187.715C265.678 188.828 279.856 192.026 281.663 190.357C283.47 188.689 291.671 193.417 291.671 193.417C292.088 192.5 292.304 191.504 292.304 190.496C292.304 189.489 292.088 188.493 291.671 187.576C290.281 184.238 287.918 173.809 290.976 170.471C294.034 167.134 303.208 150.863 303.208 150.863Z" fill="#63A1FF"/>
<path d="M273.841 201.943L277.31 204.092L296.637 172.862L293.169 170.714L273.841 201.943Z" fill="#DFE6F5"/>
<path d="M306.548 168.633C309.964 163.114 309.596 156.696 305.727 154.299C301.858 151.902 295.952 154.434 292.536 159.953C289.12 165.472 289.488 171.889 293.357 174.286C297.226 176.683 303.132 174.152 306.548 168.633Z" fill="#DFE6F5"/>
<path opacity="0.1" d="M304.571 167.408C307.023 163.446 306.759 158.84 303.982 157.119C301.204 155.399 296.965 157.216 294.513 161.177C292.061 165.139 292.325 169.745 295.103 171.466C297.88 173.187 302.119 171.37 304.571 167.408Z" fill="black"/>
<path d="M263.963 217.905L267.431 220.053L279.457 200.622L275.989 198.473L263.963 217.905Z" fill="#53526B"/>
<path d="M243.577 219.283L252.056 216.919C252.056 216.919 293.895 218.031 279.856 200.787C279.856 200.787 272.489 193.695 257.06 199.396C241.631 205.098 237.322 205.793 237.322 205.793L243.577 219.283Z" fill="#FDC2CC"/>
<path opacity="0.1" d="M237.322 146.552C238.244 146.552 238.99 145.805 238.99 144.883C238.99 143.961 238.244 143.214 237.322 143.214C236.401 143.214 235.654 143.961 235.654 144.883C235.654 145.805 236.401 146.552 237.322 146.552Z" fill="black"/>
<path opacity="0.1" d="M265.956 145.579C266.877 145.579 267.624 144.831 267.624 143.91C267.624 142.988 266.877 142.241 265.956 142.241C265.035 142.241 264.288 142.988 264.288 143.91C264.288 144.831 265.035 145.579 265.956 145.579Z" fill="black"/>
<path d="M237.322 145.996C238.244 145.996 238.99 145.249 238.99 144.327C238.99 143.405 238.244 142.658 237.322 142.658C236.401 142.658 235.654 143.405 235.654 144.327C235.654 145.249 236.401 145.996 237.322 145.996Z" fill="white"/>
<path opacity="0.1" d="M239.685 169.637C240.607 169.637 241.353 168.89 241.353 167.968C241.353 167.046 240.607 166.299 239.685 166.299C238.764 166.299 238.017 167.046 238.017 167.968C238.017 168.89 238.764 169.637 239.685 169.637Z" fill="black"/>
<path opacity="0.1" d="M266.79 167.968C267.711 167.968 268.458 167.221 268.458 166.299C268.458 165.378 267.711 164.63 266.79 164.63C265.869 164.63 265.122 165.378 265.122 166.299C265.122 167.221 265.869 167.968 266.79 167.968Z" fill="black"/>
<path d="M239.685 169.08C240.607 169.08 241.353 168.333 241.353 167.412C241.353 166.49 240.607 165.743 239.685 165.743C238.764 165.743 238.017 166.49 238.017 167.412C238.017 168.333 238.764 169.08 239.685 169.08Z" fill="white"/>
<path opacity="0.1" d="M266.095 248.496C267.016 248.496 267.763 247.749 267.763 246.827C267.763 245.905 267.016 245.158 266.095 245.158C265.174 245.158 264.427 245.905 264.427 246.827C264.427 247.749 265.174 248.496 266.095 248.496Z" fill="black"/>
<path opacity="0.1" d="M244.143 248.496C245.064 248.496 245.811 247.749 245.811 246.827C245.811 245.905 245.064 245.158 244.143 245.158C243.222 245.158 242.475 245.905 242.475 246.827C242.475 247.749 243.222 248.496 244.143 248.496Z" fill="black"/>
<path d="M266.095 247.939C267.016 247.939 267.763 247.192 267.763 246.271C267.763 245.349 267.016 244.602 266.095 244.602C265.174 244.602 264.427 245.349 264.427 246.271C264.427 247.192 265.174 247.939 266.095 247.939Z" fill="white"/>
<path opacity="0.1" d="M245.811 276.438C246.732 276.438 247.479 275.691 247.479 274.769C247.479 273.848 246.732 273.101 245.811 273.101C244.89 273.101 244.143 273.848 244.143 274.769C244.143 275.691 244.89 276.438 245.811 276.438Z" fill="black"/>
<path opacity="0.1" d="M266.79 274.769C267.711 274.769 268.458 274.022 268.458 273.101C268.458 272.179 267.711 271.432 266.79 271.432C265.869 271.432 265.122 272.179 265.122 273.101C265.122 274.022 265.869 274.769 266.79 274.769Z" fill="black"/>
<path d="M245.811 275.882C246.732 275.882 247.479 275.135 247.479 274.213C247.479 273.292 246.732 272.544 245.811 272.544C244.89 272.544 244.143 273.292 244.143 274.213C244.143 275.135 244.89 275.882 245.811 275.882Z" fill="white"/>
<path d="M244.143 247.939C245.064 247.939 245.811 247.192 245.811 246.271C245.811 245.349 245.064 244.602 244.143 244.602C243.222 244.602 242.475 245.349 242.475 246.271C242.475 247.192 243.222 247.939 244.143 247.939Z" fill="white"/>
<path d="M266.79 274.213C267.711 274.213 268.458 273.466 268.458 272.544C268.458 271.623 267.711 270.875 266.79 270.875C265.869 270.875 265.122 271.623 265.122 272.544C265.122 273.466 265.869 274.213 266.79 274.213Z" fill="white"/>
<path d="M265.956 145.022C266.877 145.022 267.624 144.275 267.624 143.353C267.624 142.432 266.877 141.685 265.956 141.685C265.035 141.685 264.288 142.432 264.288 143.353C264.288 144.275 265.035 145.022 265.956 145.022Z" fill="white"/>
<path d="M266.79 167.412C267.711 167.412 268.458 166.665 268.458 165.743C268.458 164.821 267.711 164.074 266.79 164.074C265.869 164.074 265.122 164.821 265.122 165.743C265.122 166.665 265.869 167.412 266.79 167.412Z" fill="white"/>
<path opacity="0.1" d="M269.292 224.289C269.292 224.289 269.57 262.393 270.404 269.207C270.404 269.207 270.707 226.085 269.292 224.289Z" fill="black"/>
<path opacity="0.1" d="M276.381 241.95C275.808 241.95 287.779 286.59 288.335 289.788C288.891 292.987 279.717 241.95 276.381 241.95Z" fill="black"/>
<path opacity="0.1" d="M285.833 234.719C285.833 235.136 292.505 258.916 295.841 260.168C299.177 261.419 285.833 234.719 285.833 234.719Z" fill="black"/>
<path opacity="0.1" d="M312.104 188.41C312.104 188.41 297.926 189.043 297.509 191.091C297.092 193.139 312.104 188.41 312.104 188.41Z" fill="black"/>
<path opacity="0.1" d="M287.084 369.75C287.084 369.75 276.937 374.061 278.466 374.339C279.995 374.617 287.084 369.75 287.084 369.75Z" fill="black"/>
<path opacity="0.1" d="M266.095 363.353C265.7 362.464 272.906 366.969 272.906 367.525C272.906 368.082 266.651 364.605 266.095 363.353Z" fill="black"/>
<path opacity="0.1" d="M275.547 377.955C275.547 377.955 283.47 377.555 284.026 380.606C284.582 383.657 275.547 377.955 275.547 377.955Z" fill="black"/>
<path opacity="0.1" d="M218.557 377.938C218.557 377.938 227.175 376.252 227.87 377.938C228.565 379.624 218.557 377.938 218.557 377.938Z" fill="black"/>
<path opacity="0.1" d="M221.754 430.382C221.754 430.382 222.32 437.475 220.23 439.143C218.14 440.812 221.754 430.382 221.754 430.382Z" fill="black"/>
<path opacity="0.1" d="M220.702 445.401C223.422 445.68 237.739 443.176 237.6 445.401C237.461 447.626 220.702 445.401 220.702 445.401Z" fill="black"/>
<path opacity="0.1" d="M286.389 436.779C286.389 436.779 281.506 436.029 282.697 439.324L286.389 436.779Z" fill="black"/>
<path opacity="0.1" d="M195.623 159.207H192.982L188.951 173.948C188.951 173.948 187.561 179.093 186.171 180.345C184.781 181.596 187.422 192.999 187.422 192.999C187.422 192.999 185.893 201.065 184.642 203.151C183.391 205.237 186.588 210.383 186.588 210.383L192.982 225.401L209.939 229.852C209.939 229.852 239.824 236.388 241.214 237.361C242.604 238.335 243.855 236.944 244.828 227.905C245.801 218.865 248.442 201.343 250.527 200.509C250.527 200.509 233.847 202.317 232.457 202.039C231.067 201.761 224.395 202.178 224.395 202.178C224.395 202.178 215.638 201.622 214.248 202.456C212.859 203.29 216.055 198.417 216.055 198.417C216.641 196.185 216.641 193.84 216.055 191.609C215.082 187.854 214.526 145.3 195.623 159.207Z" fill="black"/>
<path opacity="0.1" d="M249.971 202.178C247.886 203.012 245.245 220.534 244.272 229.574C243.299 238.613 242.048 240.003 240.658 239.03C239.53 238.24 219.608 233.779 212.163 232.132C213.337 225.207 213.97 217.475 213.97 217.475L192.843 160.876H195.067C213.97 146.969 214.526 189.523 215.499 193.278C216.085 195.509 216.085 197.854 215.499 200.086C215.499 200.086 212.302 204.959 213.692 204.125C215.082 203.29 223.839 203.847 223.839 203.847C223.839 203.847 230.511 203.429 231.901 203.708C233.291 203.986 249.971 202.178 249.971 202.178Z" fill="black"/>
<path d="M195.067 159.763H192.426L188.395 174.504C188.395 174.504 187.005 179.649 185.615 180.901C184.225 182.152 186.866 193.556 186.866 193.556C186.866 193.556 185.337 201.621 184.086 203.707C182.835 205.793 186.032 210.939 186.032 210.939L192.426 225.958L209.383 230.408C209.383 230.408 239.268 236.944 240.658 237.917C242.048 238.891 243.299 237.5 244.272 228.461C245.245 219.422 247.886 201.9 249.971 201.065C249.971 201.065 233.291 202.873 231.901 202.595C230.511 202.317 223.839 202.734 223.839 202.734C223.839 202.734 215.082 202.178 213.692 203.012C212.302 203.847 215.499 198.973 215.499 198.973C216.085 196.742 216.085 194.397 215.499 192.165C214.526 188.41 213.97 145.857 195.067 159.763Z" fill="#63A1FF"/>
<path opacity="0.1" d="M204.102 210.104C204.102 210.104 196.457 224.567 195.067 222.898C193.677 221.23 204.102 210.104 204.102 210.104Z" fill="black"/>
<path opacity="0.1" d="M196.179 201.869C196.179 201.869 189.09 207.74 192.426 209.27C195.762 210.8 196.179 201.869 196.179 201.869Z" fill="black"/>
<path opacity="0.1" d="M202.851 194.668C203.407 194.807 213.136 196.741 213.275 197.582C213.414 198.423 202.851 194.668 202.851 194.668Z" fill="black"/>
<path opacity="0.1" d="M270.326 92.7952C270.024 92.9016 269.766 93.1063 269.594 93.3765C269.422 93.6467 269.345 93.967 269.376 94.286C268.809 94.7867 268.013 94.197 267.552 93.5573C267.085 92.9232 266.557 92.1389 265.851 92.2278C265.515 92.3349 265.19 92.4708 264.878 92.6339C263.766 92.9899 262.826 91.6827 262.203 90.5368C261.119 88.5288 260.035 86.5225 258.951 84.5181C256.777 85.7808 254.208 84.4569 252.051 83.1497C249.893 81.8425 247.325 80.5131 245.145 81.7758C241.948 83.6226 241.831 89.7803 238.518 91.2989C237.45 91.7884 236.21 91.6827 235.221 92.3558C234.242 93.0233 233.714 94.3082 233.275 95.5376C233.112 96.2374 232.73 96.8669 232.185 97.3343C231.838 97.5156 231.453 97.6091 231.062 97.6069C230.079 97.7739 229.069 97.632 228.171 97.2008C227.7 96.9047 227.344 96.4566 227.162 95.9306C226.98 95.4047 226.983 94.8324 227.17 94.3083C227.196 94.2527 227.226 94.1989 227.259 94.1469C227.615 93.7162 227.935 93.2566 228.215 92.773C228.549 91.8885 228.071 90.8595 228.176 89.9027C228.349 88.2673 230.078 87.4051 230.372 85.7975C230.495 85.1689 230.367 84.4959 230.484 83.8617C230.5 83.7787 230.522 83.6969 230.55 83.617L229.533 84.3179C230.673 82.9884 231.245 81.1417 232.079 79.5285C233.006 77.7623 234.281 76.2024 235.827 74.9432C237.373 73.684 239.159 72.7516 241.075 72.2025C244.7 71.1457 248.531 71.4349 252.19 72.3305C255.669 73.1976 259.001 74.5714 262.081 76.4079C263.181 76.9981 264.159 77.793 264.961 78.7497C265.633 79.7417 266.205 80.7982 266.668 81.9037C267.747 84.1399 270.693 86.2091 268.347 86.5206C266.396 86.7821 268.175 88.1505 269.198 89.0739C269.429 89.2549 269.628 89.4729 269.787 89.7191C269.957 90.0709 270.035 90.4601 270.013 90.8502C269.992 91.2403 269.872 91.6186 269.665 91.9497C269.27 92.4504 270.871 92.5505 270.326 92.7952Z" fill="black"/>
<path d="M270.326 92.239C270.024 92.3454 269.766 92.55 269.594 92.8203C269.422 93.0905 269.345 93.4107 269.376 93.7298C268.809 94.2304 268.013 93.6408 267.552 93.0011C267.085 92.3669 266.557 91.5826 265.851 91.6716C265.515 91.7786 265.19 91.9145 264.878 92.0777C263.766 92.4337 262.826 91.1265 262.203 89.9806C261.119 87.9725 260.035 85.9663 258.951 83.9619C256.777 85.2246 254.208 83.9007 252.051 82.5935C249.893 81.2862 247.325 79.9568 245.145 81.2195C241.948 83.0663 241.832 89.2241 238.518 90.7426C237.45 91.2322 236.21 91.1265 235.221 91.7996C234.242 92.467 233.714 93.752 233.275 94.9813C233.112 95.6811 232.73 96.3107 232.185 96.778C231.838 96.9593 231.453 97.0529 231.062 97.0506C230.079 97.2177 229.069 97.0758 228.171 96.6445C227.7 96.3484 227.344 95.9003 227.162 95.3744C226.98 94.8484 226.983 94.2761 227.17 93.752C227.196 93.6965 227.226 93.6426 227.259 93.5907C227.615 93.1599 227.935 92.7004 228.215 92.2168C228.549 91.3323 228.071 90.3032 228.176 89.3464C228.349 87.7111 230.078 86.8488 230.372 85.2413C230.495 84.6127 230.367 83.9396 230.484 83.3055C230.5 83.2224 230.522 83.1406 230.55 83.0607L229.533 83.7616C230.673 82.4322 231.245 80.5854 232.079 78.9722C233.006 77.206 234.281 75.6461 235.827 74.3869C237.373 73.1277 239.159 72.1954 241.075 71.6463C244.7 70.5894 248.531 70.8787 252.19 71.7743C255.669 72.6413 259.001 74.0151 262.081 75.8516C263.181 76.4419 264.159 77.2367 264.961 78.1935C265.633 79.1854 266.205 80.242 266.668 81.3474C267.747 83.5836 270.693 85.6529 268.347 85.9644C266.396 86.2258 268.175 87.5942 269.198 88.5176C269.429 88.6986 269.628 88.9167 269.787 89.1629C269.957 89.5147 270.035 89.9038 270.013 90.2939C269.992 90.684 269.872 91.0623 269.665 91.3934C269.27 91.8941 270.871 91.9942 270.326 92.239Z" fill="#865A61"/>
<path opacity="0.1" d="M269.198 88.5176L268.975 90.8595C268.975 90.8595 245.646 61.2777 227.498 94.681C227.498 94.681 227.409 94.2749 227.259 93.5907C227.615 93.1599 227.935 92.7004 228.215 92.2168C228.549 91.3323 228.071 90.3032 228.176 89.3464C228.349 87.7111 230.078 86.8488 230.372 85.2413C230.495 84.6127 230.367 83.9396 230.484 83.3055C230.5 83.2224 230.522 83.1406 230.55 83.0607L229.533 83.7616C230.673 82.4322 231.245 80.5854 232.079 78.9722C233.006 77.206 234.281 75.6461 235.827 74.3869C237.373 73.1277 239.159 72.1954 241.075 71.6463C244.7 70.5894 248.531 70.8787 252.19 71.7743C255.669 72.6413 259.001 74.0151 262.081 75.8516C263.181 76.4419 264.159 77.2367 264.961 78.1935C265.633 79.1854 266.205 80.242 266.668 81.3474C267.747 83.5836 270.693 85.6529 268.347 85.9644C266.395 86.2258 268.175 87.5943 269.198 88.5176Z" fill="black"/>
<g opacity="0.1">
<path opacity="0.1" d="M269.773 91.9361C269.658 92.0654 269.574 92.2196 269.528 92.3866C269.483 92.5535 269.476 92.7288 269.509 92.8989C268.941 93.3995 268.146 92.8099 267.685 92.1702C267.218 91.536 266.69 90.7517 265.984 90.8407C265.648 90.9478 265.323 91.0836 265.011 91.2468C263.899 91.6028 262.959 90.2956 262.336 89.1497C261.252 87.1416 260.168 85.1354 259.084 83.131C256.91 84.3937 254.341 83.0698 252.184 81.7626C250.026 80.4553 247.458 79.1259 245.278 80.3886C242.081 82.2354 241.964 88.3932 238.651 89.9118C237.583 90.4013 236.343 90.2955 235.354 90.9687C234.375 91.6361 233.847 92.9211 233.408 94.1504C233.245 94.8502 232.863 95.4798 232.318 95.9471C231.971 96.1284 231.586 96.222 231.195 96.2197C230.212 96.3868 229.202 96.2449 228.304 95.8137C227.765 95.4563 227.379 94.9112 227.22 94.2845C227.11 94.7828 227.154 95.303 227.348 95.7752C227.542 96.2474 227.875 96.649 228.304 96.9262C229.202 97.3574 230.212 97.4993 231.195 97.3323C231.586 97.3345 231.971 97.2409 232.318 97.0597C232.863 96.5923 233.245 95.9628 233.408 95.263C233.847 94.0336 234.375 92.7487 235.354 92.0812C236.343 91.4081 237.583 91.5138 238.651 91.0243C241.964 89.5057 242.081 83.3479 245.278 81.5011C247.458 80.2384 250.026 81.5679 252.184 82.8751C254.341 84.1823 256.91 85.5062 259.084 84.2435C260.168 86.246 261.252 88.2522 262.336 90.2622C262.959 91.4081 263.899 92.7153 265.011 92.3593C265.323 92.1961 265.648 92.0603 265.984 91.9532C266.69 91.8642 267.218 92.6485 267.685 93.2827C268.146 93.9224 268.941 94.512 269.509 94.0114C269.478 93.6923 269.555 93.3721 269.727 93.1019C269.899 92.8317 270.157 92.627 270.459 92.5206C270.893 92.326 269.971 92.2221 269.773 91.9361Z" fill="black"/>
<path opacity="0.1" d="M267.955 86.3786C268.123 86.3109 268.3 86.2664 268.48 86.246C269.514 86.1087 269.519 85.6291 269.109 84.9447C268.914 85.0498 268.7 85.114 268.48 85.1335C267.364 85.2831 267.47 85.7951 267.955 86.3786Z" fill="black"/>
<path opacity="0.1" d="M270.085 91.0381C270.162 90.6794 270.16 90.3081 270.079 89.9503C270.03 90.1721 269.934 90.3808 269.798 90.5626C269.623 90.7835 269.838 90.9263 270.085 91.0381Z" fill="black"/>
<path opacity="0.1" d="M228.341 89.4357C228.329 89.4993 228.316 89.5621 228.309 89.6281C228.286 90.129 228.323 90.6309 228.418 91.1233C228.483 90.5603 228.457 89.9904 228.341 89.4357Z" fill="black"/>
<path opacity="0.1" d="M230.599 82.649C230.337 83.145 230.024 83.6122 229.666 84.0433L230.563 83.4251C230.559 83.166 230.571 82.9068 230.599 82.649Z" fill="black"/>
</g>
<path d="M227.497 94.1247C227.497 94.1247 224.142 79.1203 225.209 76.7139C225.209 76.7139 222.312 70.7688 222.312 69.3533C222.171 66.9912 221.437 64.7029 220.177 62.7004C218.652 60.294 216.975 49.1115 226.124 46.4221C235.274 43.7326 242.289 41.3262 243.356 39.4861C244.424 37.6459 260.13 38.7783 264.4 45.8559C268.67 52.9334 271.415 51.5179 271.415 51.5179C271.415 51.5179 277.972 55.6229 277.972 59.3032C277.972 62.9835 275.99 64.8237 277.972 65.673C279.955 66.5223 278.43 81.8097 269.737 82.2344L268.975 90.3028C268.975 90.3028 245.643 60.7187 227.497 94.1247Z" fill="#63A1FF"/>
<path opacity="0.1" d="M228.496 49.3459C228.496 49.3459 226.48 61.1664 230.164 65.1298L228.496 49.3459Z" fill="black"/>
<path opacity="0.1" d="M237.948 46.6342C237.948 46.6342 232.805 59.289 234.056 61.7226L237.948 46.6342Z" fill="black"/>
<path opacity="0.1" d="M242.396 42.6013C242.396 42.6013 238.921 59.0805 240.589 60.4016L242.396 42.6013Z" fill="black"/>
<path opacity="0.1" d="M248.373 47.0514C248.373 47.0514 244.064 57.6203 245.801 59.0805L248.373 47.0514Z" fill="black"/>
<path opacity="0.1" d="M256.504 48.303C256.504 48.303 251.431 56.925 252.473 58.4547L256.504 48.303Z" fill="black"/>
<path opacity="0.1" d="M266.929 56.7164C266.929 56.7164 261.508 58.1766 262.62 59.9149L266.929 56.7164Z" fill="black"/>
<path opacity="0.1" d="M272.072 65.686C272.072 65.686 267.207 68.0501 268.111 69.3017L272.072 65.686Z" fill="black"/>
<path opacity="0.1" d="M225.209 76.7139C225.209 76.7139 256.283 64.0862 269.738 82.2344C269.737 82.2344 253.406 68.3424 225.209 76.7139Z" fill="black"/>
<path d="M213.98 180.472L218.31 176.09L230.552 188.196L226.222 192.579L214.964 181.445L213.98 180.472Z" fill="#53526B"/>
<path d="M185.575 152.38C185.575 152.38 204.526 153.993 222.163 173.855L214.812 181.295L185.575 152.38Z" fill="#DFE6F5"/>
<path d="M242.416 187.893C242.416 187.893 224.202 181.25 222.412 179.662C220.623 178.073 210.094 187.315 222.939 199.879C222.939 199.879 238.645 204.356 242.847 199.879C247.049 195.402 242.416 187.893 242.416 187.893Z" fill="#FDC2CC"/>
<path d="M579.571 314.857H575.867V398.226H579.571V314.857Z" fill="#535461"/>
<path d="M602.832 397.973L602.598 401.728L602.27 407.026L602.135 409.237L601.807 414.542L601.666 416.753L601.338 422.051L597.604 482.33C597.443 484.924 596.301 487.358 594.408 489.138C592.516 490.918 590.016 491.909 587.419 491.909H568.019C565.422 491.908 562.924 490.917 561.032 489.138C559.141 487.358 557.999 484.923 557.84 482.33L554.099 422.051L553.772 416.753L553.637 414.542L553.303 409.237L553.167 407.026L552.84 401.728L552.606 397.973C552.561 397.253 552.665 396.53 552.91 395.851C553.155 395.172 553.537 394.551 554.031 394.025C554.526 393.499 555.123 393.08 555.785 392.794C556.448 392.507 557.162 392.359 557.883 392.36H597.561C598.282 392.36 598.996 392.507 599.658 392.794C600.32 393.08 600.916 393.5 601.41 394.026C601.904 394.552 602.285 395.173 602.53 395.852C602.774 396.531 602.877 397.253 602.832 397.973Z" fill="#CACDF2"/>
<path d="M602.597 401.728L602.27 407.027H553.167L552.84 401.728H602.597Z" fill="#9D9CB5"/>
<path d="M602.134 409.237L601.807 414.542H553.637L553.303 409.237H602.134Z" fill="#9D9CB5"/>
<path d="M601.666 416.753L601.339 422.051H554.1L553.773 416.753H601.666Z" fill="#9D9CB5"/>
<path d="M547.188 346.106C568.744 361.706 577.719 386.109 577.719 386.109C577.719 386.109 551.744 385.218 530.188 369.617C508.632 354.017 499.657 329.614 499.657 329.614C499.657 329.614 525.631 330.505 547.188 346.106Z" fill="#63A1FF"/>
<path d="M499.657 329.614C499.657 329.614 526.617 344.587 535.266 356.982C543.915 369.377 577.719 386.109 577.719 386.109" stroke="#535461" stroke-width="2" stroke-miterlimit="10"/>
<path d="M561.101 314.673C572.834 323.164 577.719 336.446 577.719 336.446C577.719 336.446 563.581 335.961 551.848 327.47C540.115 318.979 535.23 305.697 535.23 305.697C535.23 305.697 549.368 306.182 561.101 314.673Z" fill="#63A1FF"/>
<path d="M535.23 305.697C535.23 305.697 549.904 313.846 554.612 320.593C559.319 327.339 577.719 336.446 577.719 336.446" stroke="#535461" stroke-width="2" stroke-miterlimit="10"/>
<path d="M594.769 335.77C581.292 350.589 578.442 369.952 578.442 369.952C578.442 369.952 597.44 365.288 610.917 350.469C624.393 335.65 627.244 316.287 627.244 316.287C627.244 316.287 608.245 320.951 594.769 335.77Z" fill="#63A1FF"/>
<path d="M627.244 316.287C627.244 316.287 609.69 331.478 605.228 341.944C600.767 352.41 578.442 369.952 578.442 369.952" stroke="#535461" stroke-width="2" stroke-miterlimit="10"/>
<defs>
<linearGradient id="paint0_linear" x1="252.62" y1="491.788" x2="252.62" y2="36.7201" gradientUnits="userSpaceOnUse">
<stop stop-color="#808080" stop-opacity="0.25"/>
<stop offset="0.53514" stop-color="#808080" stop-opacity="0.12"/>
<stop offset="1" stop-color="#808080" stop-opacity="0.1"/>
</linearGradient>
</defs>
</svg>
