<svg width="282" height="130" viewBox="0 0 282 130" fill="none" xmlns="http://www.w3.org/2000/svg">
<path d="M74.9594 110.303L81.1239 113.315L77.9006 107.263L82.6785 102.412L75.9781 103.594L72.6743 97.3435L71.7075 104.347L65.0071 105.528L71.156 108.453L70.197 115.242L74.9594 110.303Z" fill="#67647E"/>
<path d="M109.892 60.4127L116.057 63.4255L112.834 57.3736L117.612 52.5225L110.911 53.704L107.607 47.4537L106.641 54.457L99.9401 55.6384L106.089 58.5628L105.13 65.3522L109.892 60.4127Z" fill="#67647E"/>
<path d="M59.7165 23.8598L65.881 26.8725L62.6578 20.8206L67.4357 15.9696L60.7353 17.151L57.4315 10.9007L56.4647 17.904L49.7642 19.0855L55.9132 22.0099L54.9542 28.7992L59.7165 23.8598Z" fill="#67647E"/>
<path d="M24.0559 74.7889L30.2204 77.8016L26.9972 71.7497L31.7751 66.8986L25.0747 68.0801L21.7709 61.8298L20.8041 68.8331L14.1037 70.0146L20.2526 72.9389L19.2936 79.7283L24.0559 74.7889Z" fill="#67647E"/>
<g clip-path="url(#clip0)">
<path d="M57.1968 68.4054L62.9466 60.1939L42.5819 45.956C39.4124 50.4825 40.5128 56.7231 45.0436 59.9172L57.1968 68.4054ZM73.1334 60.9919C77.2162 62.0778 82.302 59.9093 85.5324 55.2958C89.4129 49.7538 89.1339 42.8343 84.8686 39.8477C80.6323 36.8814 74.0303 38.9611 70.125 44.5075C66.8946 49.121 66.5964 54.6417 69.0132 58.1069L49.1838 86.4262L53.275 89.2909L67.2821 69.3484L87.2449 83.3265L90.1096 79.2353L70.1468 65.2572L73.1334 60.9919Z" fill="#67647E"/>
</g>
<path d="M163.758 54.0628V74.4628H161.158C160.584 74.4628 160.218 74.1895 160.058 73.6428L159.738 71.7428C159.311 72.1961 158.858 72.6095 158.378 72.9828C157.911 73.3561 157.411 73.6761 156.878 73.9428C156.344 74.2095 155.771 74.4161 155.158 74.5628C154.558 74.7095 153.911 74.7828 153.218 74.7828C152.098 74.7828 151.111 74.5961 150.258 74.2228C149.404 73.8495 148.684 73.3228 148.098 72.6428C147.524 71.9628 147.091 71.1495 146.798 70.2028C146.504 69.2428 146.358 68.1895 146.358 67.0428V54.0628H150.658V67.0428C150.658 68.4161 150.971 69.4828 151.598 70.2428C152.238 71.0028 153.204 71.3828 154.498 71.3828C155.444 71.3828 156.324 71.1695 157.138 70.7428C157.964 70.3028 158.738 69.7028 159.458 68.9428V54.0628H163.758ZM173.04 57.8428C173.68 56.5495 174.453 55.5361 175.36 54.8028C176.266 54.0561 177.353 53.6828 178.62 53.6828C179.06 53.6828 179.473 53.7361 179.86 53.8428C180.246 53.9361 180.593 54.0828 180.9 54.2828L180.6 57.5228C180.546 57.7495 180.46 57.9095 180.34 58.0028C180.233 58.0828 180.086 58.1228 179.9 58.1228C179.7 58.1228 179.413 58.0895 179.04 58.0228C178.666 57.9428 178.273 57.9028 177.86 57.9028C177.26 57.9028 176.726 57.9895 176.26 58.1628C175.806 58.3361 175.393 58.5895 175.02 58.9228C174.66 59.2561 174.34 59.6628 174.06 60.1428C173.78 60.6228 173.52 61.1695 173.28 61.7828V74.4628H168.98V54.0628H171.48C171.933 54.0628 172.246 54.1495 172.42 54.3228C172.593 54.4828 172.713 54.7695 172.78 55.1828L173.04 57.8428ZM188.894 49.4428V58.6628H200.154V62.4428H188.894V74.4628H184.194V45.6628H202.154V49.4428H188.894ZM213.073 53.7428C214.58 53.7428 215.94 53.9895 217.153 54.4828C218.38 54.9761 219.42 55.6761 220.273 56.5828C221.14 57.4895 221.806 58.5895 222.273 59.8828C222.74 61.1761 222.973 62.6295 222.973 64.2428C222.973 65.8561 222.74 67.3095 222.273 68.6028C221.806 69.8961 221.14 71.0028 220.273 71.9228C219.42 72.8295 218.38 73.5295 217.153 74.0228C215.94 74.5161 214.58 74.7628 213.073 74.7628C211.553 74.7628 210.18 74.5161 208.953 74.0228C207.74 73.5295 206.7 72.8295 205.833 71.9228C204.966 71.0028 204.3 69.8961 203.833 68.6028C203.366 67.3095 203.133 65.8561 203.133 64.2428C203.133 62.6295 203.366 61.1761 203.833 59.8828C204.3 58.5895 204.966 57.4895 205.833 56.5828C206.7 55.6761 207.74 54.9761 208.953 54.4828C210.18 53.9895 211.553 53.7428 213.073 53.7428ZM213.073 71.4028C214.913 71.4028 216.28 70.7895 217.173 69.5628C218.08 68.3228 218.533 66.5561 218.533 64.2628C218.533 61.9695 218.08 60.2028 217.173 58.9628C216.28 57.7095 214.913 57.0828 213.073 57.0828C211.206 57.0828 209.82 57.7095 208.913 58.9628C208.006 60.2028 207.553 61.9695 207.553 64.2628C207.553 66.5561 208.006 68.3228 208.913 69.5628C209.82 70.7895 211.206 71.4028 213.073 71.4028ZM235.925 53.7428C237.431 53.7428 238.791 53.9895 240.005 54.4828C241.231 54.9761 242.271 55.6761 243.125 56.5828C243.991 57.4895 244.658 58.5895 245.125 59.8828C245.591 61.1761 245.825 62.6295 245.825 64.2428C245.825 65.8561 245.591 67.3095 245.125 68.6028C244.658 69.8961 243.991 71.0028 243.125 71.9228C242.271 72.8295 241.231 73.5295 240.005 74.0228C238.791 74.5161 237.431 74.7628 235.925 74.7628C234.405 74.7628 233.031 74.5161 231.805 74.0228C230.591 73.5295 229.551 72.8295 228.685 71.9228C227.818 71.0028 227.151 69.8961 226.685 68.6028C226.218 67.3095 225.985 65.8561 225.985 64.2428C225.985 62.6295 226.218 61.1761 226.685 59.8828C227.151 58.5895 227.818 57.4895 228.685 56.5828C229.551 55.6761 230.591 54.9761 231.805 54.4828C233.031 53.9895 234.405 53.7428 235.925 53.7428ZM235.925 71.4028C237.765 71.4028 239.131 70.7895 240.025 69.5628C240.931 68.3228 241.385 66.5561 241.385 64.2628C241.385 61.9695 240.931 60.2028 240.025 58.9628C239.131 57.7095 237.765 57.0828 235.925 57.0828C234.058 57.0828 232.671 57.7095 231.765 58.9628C230.858 60.2028 230.405 61.9695 230.405 64.2628C230.405 66.5561 230.858 68.3228 231.765 69.5628C232.671 70.7895 234.058 71.4028 235.925 71.4028ZM262.976 59.0828C262.376 58.3095 261.716 57.7695 260.996 57.4628C260.276 57.1561 259.496 57.0028 258.656 57.0028C256.976 57.0028 255.663 57.6228 254.716 58.8628C253.77 60.0895 253.296 61.9095 253.296 64.3228C253.296 65.5761 253.403 66.6495 253.616 67.5428C253.83 68.4228 254.136 69.1428 254.536 69.7028C254.936 70.2628 255.423 70.6695 255.996 70.9228C256.57 71.1761 257.216 71.3028 257.936 71.3028C259.03 71.3028 259.97 71.0695 260.756 70.6028C261.556 70.1228 262.296 69.4495 262.976 68.5828V59.0828ZM267.276 44.8628V74.4628H264.676C264.103 74.4628 263.736 74.1895 263.576 73.6428L263.196 71.4228C262.343 72.4228 261.37 73.2295 260.276 73.8428C259.196 74.4561 257.936 74.7628 256.496 74.7628C255.35 74.7628 254.31 74.5361 253.376 74.0828C252.443 73.6161 251.643 72.9428 250.976 72.0628C250.31 71.1828 249.79 70.0961 249.416 68.8028C249.056 67.4961 248.876 66.0028 248.876 64.3228C248.876 62.8028 249.076 61.3961 249.476 60.1028C249.89 58.8095 250.476 57.6895 251.236 56.7428C251.996 55.7828 252.916 55.0361 253.996 54.5028C255.09 53.9561 256.31 53.6828 257.656 53.6828C258.856 53.6828 259.876 53.8761 260.716 54.2628C261.556 54.6361 262.31 55.1628 262.976 55.8428V44.8628H267.276Z" fill="#67647E"/>
<defs>
<clipPath id="clip0">
<rect width="60.1125" height="60.1125" fill="white" transform="translate(31.4152 39.0233) rotate(-10)"/>
</clipPath>
</defs>
</svg>
