<svg width="738" height="545" viewBox="0 0 738 545" fill="none" xmlns="http://www.w3.org/2000/svg">
<g clip-path="url(#clip0)">
<path opacity="0.1" d="M8.11768 289.08C19.793 338.966 44.5089 382.089 83.5701 402.992C164.746 446.431 347.818 424.029 484.452 398.285C553.49 385.329 616.157 349.524 662.366 296.637L8.11768 289.08Z" fill="#63A1FF"/>
<path d="M537.569 436.823C537.569 436.823 492.072 464.254 575.924 506.469C575.924 506.469 594.392 472.181 573.974 444.232C570.01 438.782 564.183 434.975 557.599 433.533C551.014 432.09 544.129 433.113 538.248 436.406L537.569 436.823Z" fill="#63A1FF"/>
<path d="M538.094 436.245C538.094 436.245 577.021 466.015 575.924 506.469" stroke="#535461" stroke-miterlimit="10"/>
<path d="M12.3143 444.891C12.3143 444.891 -33.1831 472.322 50.6694 514.537C50.6694 514.537 69.1374 480.248 48.719 452.3C44.7547 446.85 38.9283 443.043 32.3438 441.601C25.7593 440.158 18.8744 441.181 12.9936 444.474L12.3143 444.891Z" fill="#63A1FF"/>
<path d="M12.8389 444.313C12.8389 444.313 51.7656 474.083 50.6693 514.537" stroke="#535461" stroke-miterlimit="10"/>
<path d="M578.157 510.348C578.157 510.348 563.906 461.941 580.847 426.368C588.042 411.479 590.21 394.658 587.028 378.432C585.436 370.739 583.142 363.209 580.175 355.936" stroke="#535461" stroke-width="2" stroke-miterlimit="10"/>
<path d="M590.727 333.439C590.727 339.369 579.966 356.561 579.966 356.561C579.966 356.561 569.206 339.369 569.206 333.439C569.386 330.715 570.596 328.162 572.59 326.297C574.583 324.431 577.212 323.393 579.943 323.393C582.673 323.393 585.302 324.431 587.296 326.297C589.29 328.162 590.499 330.715 590.68 333.439H590.727Z" fill="#63A1FF"/>
<path d="M608.475 366.276C605.254 371.251 586.893 379.85 586.893 379.85C586.893 379.85 587.23 359.586 590.451 354.611C592.083 352.421 594.488 350.934 597.177 350.45C599.865 349.967 602.637 350.525 604.93 352.009C607.223 353.494 608.865 355.795 609.524 358.446C610.182 361.096 609.807 363.898 608.475 366.283V366.276Z" fill="#63A1FF"/>
<path d="M607.702 422.395C602.409 425.084 582.219 423.222 582.219 423.222C582.219 423.222 592.738 405.896 598.037 403.227C600.552 402.159 603.379 402.088 605.944 403.027C608.509 403.966 610.621 405.846 611.851 408.284C613.082 410.722 613.338 413.537 612.569 416.158C611.799 418.778 610.062 421.008 607.709 422.395H607.702Z" fill="#63A1FF"/>
<path d="M597.547 464.724C592.778 468.247 572.568 469.841 572.568 469.841C572.568 469.841 580.007 451.016 584.775 447.459C587.073 445.973 589.851 445.418 592.543 445.907C595.236 446.396 597.641 447.892 599.269 450.091C600.897 452.29 601.626 455.027 601.308 457.744C600.989 460.461 599.646 462.955 597.553 464.718L597.547 464.724Z" fill="#63A1FF"/>
<path d="M564.343 381C568.594 385.128 588.413 389.411 588.413 389.411C588.413 389.411 583.558 369.732 579.307 365.604C577.227 363.836 574.553 362.925 571.826 363.055C569.099 363.185 566.523 364.347 564.621 366.304C562.718 368.261 561.631 370.868 561.58 373.597C561.528 376.326 562.516 378.972 564.343 381Z" fill="#63A1FF"/>
<path d="M553.105 430.651C558.398 433.34 578.587 431.478 578.587 431.478C578.587 431.478 568.069 414.152 562.769 411.483C561.501 410.735 560.092 410.256 558.631 410.075C557.17 409.893 555.687 410.013 554.274 410.428C552.861 410.842 551.548 411.542 550.417 412.484C549.285 413.427 548.36 414.591 547.696 415.905C547.033 417.22 546.647 418.656 546.562 420.125C546.476 421.595 546.693 423.066 547.2 424.449C547.706 425.831 548.491 427.095 549.505 428.161C550.52 429.228 551.743 430.076 553.098 430.651H553.105Z" fill="#63A1FF"/>
<path d="M548.801 480.41C553.569 483.933 573.779 485.526 573.779 485.526C573.779 485.526 566.341 466.701 561.572 463.144C560.448 462.198 559.142 461.491 557.734 461.068C556.325 460.646 554.846 460.516 553.386 460.687C551.926 460.858 550.516 461.327 549.244 462.064C547.972 462.801 546.865 463.79 545.99 464.971C545.115 466.153 544.492 467.501 544.159 468.932C543.825 470.363 543.789 471.848 544.052 473.294C544.314 474.74 544.871 476.117 545.686 477.339C546.502 478.562 547.56 479.605 548.794 480.403L548.801 480.41Z" fill="#63A1FF"/>
<path opacity="0.25" d="M590.727 333.439C590.727 339.369 579.966 356.561 579.966 356.561C579.966 356.561 569.206 339.369 569.206 333.439C569.386 330.715 570.596 328.162 572.59 326.297C574.583 324.431 577.212 323.393 579.943 323.393C582.673 323.393 585.302 324.431 587.296 326.297C589.29 328.162 590.499 330.715 590.68 333.439H590.727Z" fill="black"/>
<path opacity="0.25" d="M608.475 366.276C605.254 371.251 586.893 379.85 586.893 379.85C586.893 379.85 587.23 359.586 590.451 354.611C592.083 352.421 594.488 350.934 597.177 350.45C599.865 349.967 602.637 350.525 604.93 352.009C607.223 353.494 608.865 355.795 609.524 358.446C610.182 361.096 609.807 363.898 608.475 366.283V366.276Z" fill="black"/>
<path opacity="0.25" d="M607.702 422.395C602.409 425.084 582.219 423.222 582.219 423.222C582.219 423.222 592.738 405.896 598.037 403.227C600.552 402.159 603.379 402.088 605.944 403.027C608.509 403.966 610.621 405.846 611.851 408.284C613.082 410.722 613.338 413.537 612.569 416.158C611.799 418.778 610.062 421.008 607.709 422.395H607.702Z" fill="black"/>
<path opacity="0.25" d="M597.547 464.724C592.778 468.247 572.568 469.841 572.568 469.841C572.568 469.841 580.007 451.016 584.775 447.459C587.073 445.973 589.851 445.418 592.543 445.907C595.236 446.396 597.641 447.892 599.269 450.091C600.897 452.29 601.626 455.027 601.308 457.744C600.989 460.461 599.646 462.955 597.553 464.718L597.547 464.724Z" fill="black"/>
<path opacity="0.25" d="M564.343 381C568.594 385.128 588.413 389.411 588.413 389.411C588.413 389.411 583.558 369.732 579.307 365.604C577.227 363.836 574.553 362.925 571.826 363.055C569.099 363.185 566.523 364.347 564.621 366.304C562.718 368.261 561.631 370.868 561.58 373.597C561.528 376.326 562.516 378.972 564.343 381Z" fill="black"/>
<path opacity="0.25" d="M553.105 430.651C558.398 433.34 578.587 431.478 578.587 431.478C578.587 431.478 568.069 414.152 562.769 411.483C561.501 410.735 560.092 410.256 558.631 410.075C557.17 409.893 555.687 410.013 554.274 410.428C552.861 410.842 551.548 411.542 550.417 412.484C549.285 413.427 548.36 414.591 547.696 415.905C547.033 417.22 546.647 418.656 546.562 420.125C546.476 421.595 546.693 423.066 547.2 424.449C547.706 425.831 548.491 427.095 549.505 428.161C550.52 429.228 551.743 430.076 553.098 430.651H553.105Z" fill="black"/>
<path opacity="0.25" d="M548.801 480.41C553.569 483.933 573.779 485.526 573.779 485.526C573.779 485.526 566.341 466.701 561.572 463.144C560.448 462.198 559.142 461.491 557.734 461.068C556.325 460.646 554.846 460.516 553.386 460.687C551.926 460.858 550.516 461.327 549.244 462.064C547.972 462.801 546.865 463.79 545.99 464.971C545.115 466.153 544.492 467.501 544.159 468.932C543.825 470.363 543.789 471.848 544.052 473.294C544.314 474.74 544.871 476.117 545.686 477.339C546.502 478.562 547.56 479.605 548.794 480.403L548.801 480.41Z" fill="black"/>
<path d="M611.112 511.269C611.112 511.269 596.86 462.862 613.802 427.289C620.996 412.4 623.165 395.579 619.982 379.352C618.412 371.662 616.141 364.132 613.196 356.856" stroke="#535461" stroke-width="2" stroke-miterlimit="10"/>
<path d="M623.708 334.354C623.708 340.284 612.948 357.475 612.948 357.475C612.948 357.475 602.187 340.284 602.187 334.354C602.368 331.63 603.577 329.077 605.571 327.211C607.565 325.346 610.193 324.308 612.924 324.308C615.655 324.308 618.284 325.346 620.277 327.211C622.271 329.077 623.481 331.63 623.661 334.354H623.708Z" fill="#63A1FF"/>
<path d="M641.457 367.197C638.235 372.172 619.855 380.744 619.855 380.744C619.855 380.744 620.191 360.481 623.412 355.505C625.045 353.315 627.449 351.828 630.138 351.345C632.827 350.862 635.599 351.419 637.892 352.904C640.185 354.389 641.827 356.69 642.485 359.34C643.143 361.991 642.769 364.792 641.437 367.177L641.457 367.197Z" fill="#63A1FF"/>
<path d="M640.703 423.316C635.41 426.005 615.221 424.143 615.221 424.143C615.221 424.143 625.739 406.817 631.039 404.148C633.552 403.088 636.375 403.022 638.935 403.963C641.495 404.904 643.602 406.782 644.83 409.218C646.058 411.653 646.315 414.463 645.549 417.081C644.783 419.698 643.051 421.927 640.703 423.316Z" fill="#63A1FF"/>
<path d="M630.528 465.646C625.76 469.169 605.55 470.762 605.55 470.762C605.55 470.762 612.988 451.937 617.756 448.38C620.054 446.894 622.832 446.339 625.525 446.828C628.217 447.317 630.623 448.813 632.251 451.012C633.879 453.211 634.608 455.948 634.289 458.665C633.97 461.382 632.628 463.876 630.535 465.639L630.528 465.646Z" fill="#63A1FF"/>
<path d="M597.325 381.921C601.575 386.049 621.395 390.332 621.395 390.332C621.395 390.332 616.539 370.653 612.289 366.525C610.208 364.757 607.534 363.846 604.807 363.976C602.08 364.106 599.505 365.268 597.602 367.225C595.7 369.183 594.613 371.79 594.561 374.518C594.509 377.247 595.497 379.893 597.325 381.921Z" fill="#63A1FF"/>
<path d="M586.08 431.572C591.372 434.261 611.562 432.399 611.562 432.399C611.562 432.399 601.023 415.073 595.751 412.404C593.236 411.337 590.41 411.265 587.844 412.204C585.279 413.143 583.167 415.023 581.937 417.461C580.707 419.899 580.45 422.714 581.219 425.335C581.989 427.955 583.726 430.185 586.08 431.572Z" fill="#63A1FF"/>
<path d="M581.775 481.331C586.544 484.854 606.754 486.447 606.754 486.447C606.754 486.447 599.315 467.622 594.547 464.066C593.423 463.119 592.116 462.412 590.708 461.99C589.3 461.567 587.82 461.437 586.36 461.608C584.9 461.78 583.491 462.248 582.219 462.985C580.947 463.722 579.839 464.711 578.964 465.893C578.09 467.074 577.467 468.422 577.133 469.853C576.8 471.285 576.764 472.769 577.026 474.215C577.289 475.661 577.845 477.038 578.661 478.26C579.477 479.483 580.534 480.526 581.769 481.324L581.775 481.331Z" fill="#63A1FF"/>
<path opacity="0.1" d="M724.616 54.2701H649.648C647.93 54.2701 646.281 53.5876 645.066 52.3728C643.851 51.1579 643.168 49.5103 643.168 47.7922C643.168 46.0742 643.851 44.4266 645.066 43.2117C646.281 41.9969 647.93 41.3144 649.648 41.3144H662.608C660.889 41.3144 659.241 40.6319 658.026 39.4171C656.811 38.2022 656.128 36.5546 656.128 34.8365C656.128 33.1185 656.811 31.4708 658.026 30.256C659.241 29.0412 660.889 28.3587 662.608 28.3587H653.347C651.629 28.3587 649.98 27.6762 648.765 26.4614C647.55 25.2465 646.867 23.5989 646.867 21.8808C646.867 20.1628 647.55 18.5151 648.765 17.3003C649.98 16.0855 651.629 15.403 653.347 15.403H692.489C683.807 11.369 673.658 8.49822 661.969 6.99221C555.277 -6.70977 517.184 2.35317 503.747 11.6985C487.169 23.1952 468.674 31.6531 448.908 35.7274C383.066 49.2882 259.957 65.6189 148.403 30.4631C92.9452 12.9826 51.7252 42.5111 27.0227 91.8329H737.637C736.709 77.4989 733.931 64.2676 728.833 52.6767C727.665 53.6981 726.168 54.2639 724.616 54.2701Z" fill="#63A1FF"/>
<path opacity="0.1" d="M1.78895 184.957C-1.08918 213.971 -0.10996 243.238 4.70106 271.996L662.897 296.031C681.22 274.961 696.604 251.508 708.63 226.311L1.78895 184.957ZM262.063 247.046H249.13C250.848 247.046 252.496 247.728 253.712 248.943C254.927 250.158 255.609 251.806 255.609 253.524C255.609 255.242 254.927 256.889 253.712 258.104C252.496 259.319 250.848 260.001 249.13 260.001H174.161C172.443 260.001 170.795 259.319 169.579 258.104C168.364 256.889 167.681 255.242 167.681 253.524C167.681 251.806 168.364 250.158 169.579 248.943C170.795 247.728 172.443 247.046 174.161 247.046H187.121C185.403 247.046 183.754 246.363 182.539 245.148C181.324 243.934 180.641 242.286 180.641 240.568C180.641 238.85 181.324 237.202 182.539 235.987C183.754 234.773 185.403 234.09 187.121 234.09H177.86C176.142 234.09 174.494 233.408 173.278 232.193C172.063 230.978 171.38 229.33 171.38 227.612C171.38 225.894 172.063 224.246 173.278 223.032C174.494 221.817 176.142 221.134 177.86 221.134H252.829C254.547 221.134 256.195 221.817 257.411 223.032C258.626 224.246 259.308 225.894 259.308 227.612C259.308 229.33 258.626 230.978 257.411 232.193C256.195 233.408 254.547 234.09 252.829 234.09H262.063C263.781 234.09 265.429 234.773 266.645 235.987C267.86 237.202 268.542 238.85 268.542 240.568C268.542 242.286 267.86 243.934 266.645 245.148C265.429 246.363 263.781 247.046 262.063 247.046Z" fill="#63A1FF"/>
<path opacity="0.1" d="M737.664 92.3169L19.0599 109.797C10.3169 132.26 4.52632 157.66 1.84961 183.982H725.074C729.801 168.518 733.298 152.705 735.532 136.69C737.664 121.227 738.532 106.241 737.664 92.3169ZM147.731 149.559H134.798C136.516 149.559 138.164 150.241 139.38 151.456C140.595 152.671 141.278 154.318 141.278 156.036C141.278 157.755 140.595 159.402 139.38 160.617C138.164 161.832 136.516 162.514 134.798 162.514H59.8294C58.1108 162.514 56.4626 161.832 55.2474 160.617C54.0322 159.402 53.3495 157.755 53.3495 156.036C53.3495 154.318 54.0322 152.671 55.2474 151.456C56.4626 150.241 58.1108 149.559 59.8294 149.559H72.7893C71.0707 149.559 69.4225 148.876 68.2073 147.661C66.9921 146.446 66.3094 144.799 66.3094 143.081C66.3094 141.363 66.9921 139.715 68.2073 138.5C69.4225 137.285 71.0707 136.603 72.7893 136.603H63.5284C61.8098 136.603 60.1616 135.92 58.9464 134.706C57.7312 133.491 57.0485 131.843 57.0485 130.125C57.0485 128.407 57.7312 126.759 58.9464 125.545C60.1616 124.33 61.8098 123.647 63.5284 123.647H138.497C140.215 123.647 141.863 124.33 143.079 125.545C144.294 126.759 144.977 128.407 144.977 130.125C144.977 131.843 144.294 133.491 143.079 134.706C141.863 135.92 140.215 136.603 138.497 136.603H147.731C149.449 136.603 151.097 137.285 152.313 138.5C153.528 139.715 154.211 141.363 154.211 143.081C154.211 144.799 153.528 146.446 152.313 147.661C151.097 148.876 149.449 149.559 147.731 149.559Z" fill="#63A1FF"/>
<path d="M370.12 545C568.094 545 728.584 535.067 728.584 522.813C728.584 510.56 568.094 500.626 370.12 500.626C172.145 500.626 11.655 510.56 11.655 522.813C11.655 535.067 172.145 545 370.12 545Z" fill="#63A1FF"/>
<path d="M486.315 180.929C486.315 180.929 444.745 141.82 438.739 135.971C436.648 133.954 434.67 131.937 432.982 130.236C429.735 126.99 425.576 124.812 421.058 123.99C405.482 121.039 389.55 111.465 389.55 111.465C389.462 111.35 389.375 111.25 389.294 111.129C387.944 109.241 386.952 107.122 386.368 104.876C386.281 104.547 386.194 104.204 386.12 103.854C386.371 103.531 386.615 103.202 386.853 102.866C387.125 102.771 387.388 102.652 387.64 102.509C389.61 101.387 390.72 99.3091 391.466 97.2653C392.139 95.4567 392.677 93.4599 394.278 92.2834C394.851 91.9656 395.367 91.5543 395.804 91.0664C396.129 90.4253 396.253 89.7015 396.161 88.989C396.161 84.397 395.428 80.874 396.497 76.3963C398.205 69.2293 399.772 60.2605 394.358 54.9424C391.563 52.2428 388.002 50.4703 384.163 49.8664C380.686 49.3151 375.541 54.0482 372.016 53.9003C363.038 53.5574 355.472 45.4626 346.937 48.078C343.223 49.205 339.984 51.5257 337.724 54.6802C333.513 60.6774 333.917 68.436 334.522 75.5895C334.513 76.1343 334.676 76.6681 334.986 77.1157C335.302 77.4855 335.807 77.6805 336.116 78.0502C336.447 78.5412 336.573 79.1421 336.466 79.7243C336.367 80.8819 336.086 82.0165 335.632 83.0859C335.516 83.2642 335.444 83.4675 335.422 83.679C335.399 83.8906 335.428 84.1044 335.504 84.3029C335.672 84.5248 335.909 84.6854 336.177 84.76C336.538 84.8818 336.909 84.9696 337.286 85.0222C337.226 85.6139 337.172 86.2055 337.152 86.8039C337.152 87.1401 337.152 87.4762 337.152 87.8191C337.168 92.1881 338.272 96.4844 340.364 100.32C342.457 104.156 345.471 107.411 349.137 109.791C349.211 110.275 349.291 110.772 349.365 111.29C349.594 112.883 349.802 114.652 349.957 116.574C349.957 116.924 350.011 117.247 350.038 117.63L349.856 117.26L320.937 131.433C318.8 131.927 316.805 132.904 315.106 134.29L314.534 134.573V134.741C314.297 134.938 314.055 135.149 313.808 135.373L288.715 107.041L230.204 157.815L262.379 192.446L298.535 189.434C296.752 201.671 295.535 211.05 295.535 211.05C295.535 211.05 288.924 239.375 320.95 233.956C320.742 251.819 313.088 281.63 313.088 281.63C313.978 282.794 315.026 283.828 316.202 284.703L316.021 285.92L314.003 299.615C314.003 299.615 301.991 332.882 300.149 362.551C298.306 392.221 295.992 408.854 295.992 408.854L291.836 468.2L285.992 495.335C276.365 505.86 265.156 514.82 252.768 521.892C252.221 522.182 251.738 522.579 251.346 523.058C250.955 523.537 250.663 524.09 250.487 524.684C250.312 525.277 250.257 525.9 250.325 526.515C250.393 527.13 250.584 527.725 250.885 528.266C253.252 532.34 260.536 536.569 282.595 529.792C317.702 519.035 314.467 519.452 314.467 519.452C314.467 519.452 314.985 505.051 313.492 496.512C313.445 496.257 313.398 496.008 313.351 495.759C321.757 486.286 317.695 470.883 317.695 470.883C317.695 470.883 334.32 438.517 326.438 417.386C326.438 417.386 324.589 399.401 334.294 390.863C334.428 390.742 334.569 390.607 334.711 390.466L334.838 390.332L335.154 389.996L335.296 389.841L335.666 389.411L335.746 389.317C335.894 389.135 336.049 388.94 336.204 388.738L336.325 388.577L336.715 388.14L336.863 387.925L337.226 387.394L337.347 387.219L337.838 386.473L337.932 386.325L338.342 385.652L338.497 385.397L338.874 384.765L339.015 384.523L339.533 383.622L340.051 382.694L340.199 382.418L340.595 381.686L340.75 381.39L341.228 380.482L341.288 380.368L341.84 379.292L341.974 379.03L342.404 378.176L342.566 377.853L343.016 376.939L343.131 376.71L343.696 375.534L343.79 375.339L344.261 374.337L344.422 373.994L344.859 373.06L345 372.757L345.579 371.5L346.137 370.256L346.292 369.913L346.729 368.925L346.877 368.582L347.475 367.298V367.244L348.061 365.899L348.188 365.61L348.646 364.548L348.8 364.192L349.278 363.056L349.372 362.84L349.95 361.496L350.045 361.274L350.522 360.131L350.677 359.761L351.114 358.692L351.242 358.383L351.8 357.038L351.847 356.924L352.351 355.68L352.506 355.297L352.916 354.275L353.064 353.905L353.548 352.682L353.596 352.554L354.12 351.209L354.275 350.819L354.651 349.858L354.813 349.434L355.21 348.412L355.324 348.11L355.815 346.839L355.949 346.489L356.306 345.562L356.487 345.091L356.804 344.271L356.972 343.827L357.416 342.65L357.543 342.308L357.866 341.447L358.048 340.97L358.317 340.25L358.498 339.759L358.801 338.946L358.996 338.422L359.299 337.601L359.494 337.077L359.702 336.512L359.897 335.974L360.065 335.51L360.516 334.287L360.59 334.078L360.798 333.5L360.94 333.117L361.155 332.532L361.256 332.256C363.186 326.938 364.37 323.516 364.37 323.516C364.37 323.516 373.113 354.087 371.768 363.526C370.423 372.966 380.08 408.034 380.08 408.034C380.08 408.034 374.538 443.103 377.773 451.641C381.008 460.18 373.153 492.102 373.153 492.102C373.153 492.102 373.752 492.431 374.767 492.935L374.707 493.803C374.202 500.822 373.106 514.308 371.768 519.526C369.918 526.72 370.846 534.364 385.622 533.463C400.398 532.562 400.862 523.573 400.862 523.573C400.862 523.573 395.986 507.854 395.387 498.583C395.387 498.28 395.387 497.984 395.347 497.695L395.764 497.541L395.885 497.494C396.053 497.42 396.214 497.346 396.369 497.265C396.517 497.184 396.652 497.104 396.793 497.016L396.914 496.936C397.031 496.855 397.145 496.77 397.257 496.68L397.338 496.613C397.472 496.501 397.6 496.384 397.721 496.263L397.808 496.176C397.903 496.073 397.994 495.967 398.084 495.86L398.178 495.739C398.286 495.598 398.394 495.45 398.494 495.288C403.572 487.22 404.036 470.11 404.036 470.11C404.036 470.11 414.198 412.565 410.506 404.894C406.814 397.223 408.656 379.272 408.656 379.272C408.656 379.272 404.5 352.298 409.121 339.262C412.577 329.5 414.743 295.789 414.642 279.66C414.642 279.324 414.642 278.995 414.642 278.672C414.642 278.558 414.642 278.443 414.642 278.329C418.086 274.053 420.695 266.55 418.839 253.399C418.731 252.653 418.65 251.9 418.57 251.134C423.816 247.214 428.994 242.609 428.994 242.609L430.783 240.766L431.355 240.175C431.852 240.383 432.377 240.571 432.922 240.739C434.939 241.654 436.379 242.165 436.379 242.165C436.379 242.165 462.709 220.583 482.569 210.243C502.429 199.902 486.315 180.929 486.315 180.929ZM454.907 199.808C454.907 199.808 427.192 217.369 422.128 226.338C421.835 226.84 421.609 227.378 421.455 227.938L420.782 228.221L419.935 228.543C424.179 204.34 435.538 180.479 435.538 180.479C435.538 180.479 444.281 188.123 450.334 191.236C456.387 194.349 454.907 199.815 454.907 199.815V199.808Z" fill="url(#paint0_linear)"/>
<path d="M285.42 527.009C264.141 533.732 257.113 529.536 254.833 525.496C254.252 524.415 254.117 523.149 254.457 521.97C254.796 520.791 255.582 519.791 256.648 519.183C268.742 512.076 279.637 503.104 288.93 492.599C291.298 489.91 292.542 488.262 292.542 488.262C292.542 488.262 309.026 485.143 313.034 488.262C314.036 489.042 314.736 491.221 315.213 494.044C316.653 502.502 316.155 516.769 316.155 516.769C316.155 516.769 319.276 516.319 285.42 527.009Z" fill="#5B5877"/>
<path d="M399.463 520.769C399.463 520.769 399.019 529.678 384.761 530.565C370.503 531.453 369.615 523.882 371.398 516.762C372.689 511.599 373.745 498.24 374.229 491.281C374.411 488.639 374.511 486.925 374.511 486.925C374.511 486.925 396.786 484.699 394.56 490.959C394.122 492.615 393.994 494.338 394.183 496.041C394.762 505.205 399.463 520.769 399.463 520.769Z" fill="#5B5877"/>
<path opacity="0.1" d="M315.193 494.045L314.797 494.502C306.329 503.854 288.514 494.502 288.514 494.502L288.91 492.606C291.278 489.917 292.522 488.269 292.522 488.269C292.522 488.269 309.006 485.15 313.014 488.269C314.043 489.042 314.743 491.221 315.193 494.045Z" fill="black"/>
<path opacity="0.1" d="M394.553 490.932C394.115 492.588 393.987 494.311 394.177 496.014C388.352 498.031 378.035 493.258 374.222 491.308C374.404 488.666 374.505 486.951 374.505 486.951C374.505 486.951 396.793 484.699 394.553 490.932Z" fill="black"/>
<path d="M408.818 403.2C412.382 410.77 402.583 467.743 402.583 467.743C402.583 467.743 402.139 484.666 397.237 492.68C392.334 500.694 372.736 489.56 372.736 489.56C372.736 489.56 380.309 457.961 377.188 449.476C374.068 440.991 379.414 406.293 379.414 406.293C379.414 406.293 370.059 371.554 371.398 362.202C372.736 352.85 364.269 322.535 364.269 322.535C364.269 322.535 344.664 380.879 335.309 389.337C325.954 397.795 327.736 415.611 327.736 415.611C335.309 436.541 319.269 468.611 319.269 468.611C319.269 468.611 323.304 484.195 314.817 493.547C306.329 502.899 288.534 493.547 288.534 493.547L294.344 465.995L298.38 407.207C298.38 407.207 300.606 390.728 302.415 361.334C304.224 331.94 315.778 298.983 315.778 298.983L317.715 285.415L319.343 274.04C319.343 274.04 409.779 270.92 412.006 270.476C412.564 270.362 412.846 273.764 412.873 279.123C412.974 295.104 410.856 328.491 407.547 338.166C403.094 351.081 407.103 377.833 407.103 377.833C407.103 377.833 405.253 395.63 408.818 403.2Z" fill="#5F5D7E"/>
<g opacity="0.05">
<path opacity="0.05" d="M359.373 322.588C359.373 322.588 339.768 380.932 330.413 389.39C321.058 397.848 322.84 415.665 322.84 415.665C330.413 436.594 314.373 468.664 314.373 468.664C314.373 468.664 318.408 484.249 309.921 493.601C307.774 495.914 304.846 497.351 301.702 497.635C306.41 498.125 311.38 497.413 314.817 493.601C323.284 484.249 319.269 468.664 319.269 468.664C319.269 468.664 335.309 436.601 327.736 415.665C327.736 415.665 325.954 397.848 335.309 389.39C342.499 382.889 355.727 346.96 361.478 330.649C360.294 325.889 359.373 322.588 359.373 322.588Z" fill="black"/>
<path opacity="0.05" d="M407.036 377.813C407.036 377.813 403 351.095 407.479 338.146C410.842 328.471 412.9 295.083 412.806 279.102C412.806 273.724 412.497 270.362 411.938 270.456C411.663 270.51 410.001 270.611 407.318 270.738C407.695 271.653 407.883 274.719 407.91 279.109C408.011 295.09 405.892 328.478 402.583 338.152C398.131 351.068 402.139 377.82 402.139 377.82C402.139 377.82 400.357 395.636 403.922 403.207C407.486 410.777 397.687 467.75 397.687 467.75C397.687 467.75 397.243 484.672 392.341 492.686C391.889 493.399 391.291 494.007 390.586 494.471C389.881 494.935 389.085 495.243 388.251 495.376C392.065 495.94 395.535 495.47 397.237 492.686C402.139 484.672 402.583 467.75 402.583 467.75C402.583 467.75 412.382 410.743 408.818 403.207C405.253 395.67 407.036 377.813 407.036 377.813Z" fill="black"/>
</g>
<path d="M395.454 117.731L392.334 148.456C392.334 148.456 342.882 159.146 348.229 141.773C350.757 133.551 350.919 124.723 350.334 117.711C350.179 115.815 349.984 114.053 349.762 112.473C349.4 109.744 348.888 107.038 348.229 104.365C348.229 104.365 386.563 75.4147 384.761 95.0129C384.348 98.7169 384.587 102.465 385.467 106.086C386.028 108.303 386.985 110.401 388.292 112.278C391.446 116.729 395.454 117.731 395.454 117.731Z" fill="#FDC2CC"/>
<path opacity="0.1" d="M385.474 106.093C385.117 106.577 384.741 107.054 384.358 107.511C380.203 112.435 374.384 115.661 368.007 116.579C361.629 117.496 355.136 116.04 349.762 112.487C349.4 109.758 348.888 107.051 348.229 104.378C348.229 104.378 386.563 75.4281 384.761 95.0264C384.351 98.7285 384.592 102.474 385.474 106.093Z" fill="black"/>
<path d="M390.552 89.2243C390.552 96.1927 387.783 102.876 382.854 107.803C377.925 112.731 371.239 115.499 364.269 115.499C357.298 115.499 350.613 112.731 345.684 107.803C340.755 102.876 337.986 96.1927 337.986 89.2243C337.986 88.8881 337.986 88.552 337.986 88.2158C338.255 81.3436 341.209 74.8509 346.214 70.1318C351.219 65.4127 357.875 62.8433 364.753 62.9753C371.632 63.1073 378.184 65.9302 383.004 70.8379C387.823 75.7456 390.526 82.3468 390.532 89.2243H390.552Z" fill="#FDC2CC"/>
<path opacity="0.1" d="M412.806 279.136C410.553 282.158 407.199 284.17 403.471 284.736L382.999 291.897H382.952L376.744 294.068L374.142 287.668L370.954 279.815V294.068C370.954 294.068 331.839 296.757 317.648 285.402L319.276 274.026C319.276 274.026 409.712 270.907 411.938 270.463C412.497 270.375 412.779 273.771 412.806 279.136Z" fill="black"/>
<path opacity="0.1" d="M395.454 117.731L392.334 148.456C392.334 148.456 342.882 159.146 348.229 141.773C350.757 133.551 350.919 124.723 350.334 117.711C351.188 119.499 357.476 132.152 365.607 134.351C366.619 134.634 367.674 134.734 368.721 134.646C370.45 134.442 372.1 133.803 373.516 132.791C380.833 127.93 386.967 115.136 388.312 112.285C391.446 116.729 395.454 117.731 395.454 117.731Z" fill="black"/>
<path d="M478.318 210.364C459.164 220.61 433.769 241.963 433.769 241.963C433.769 241.963 415.059 235.28 419.962 226.378C424.865 217.477 451.571 200.104 451.571 200.104C451.571 200.104 452.916 194.759 447.119 191.639C441.322 188.52 432.861 180.949 432.861 180.949C432.861 180.949 412.813 224.146 416.821 253.097C420.829 282.047 403.458 283.351 403.458 283.351L382.986 290.512H382.938L376.731 292.683L374.128 286.283L370.94 278.43V292.683C370.94 292.683 325.497 295.803 314.81 281.106C314.81 281.106 324.609 241.916 321.939 226.775C319.269 211.634 316.148 135.48 316.148 135.48L350.226 118.336C350.226 118.336 356.891 132.878 365.634 135.252C366.646 135.535 367.701 135.635 368.748 135.547C370.477 135.342 372.127 134.704 373.543 133.692C381.795 128.212 388.574 112.614 388.574 112.614C388.574 112.614 403.942 122.094 418.967 125.019C423.347 125.844 427.364 128.005 430.467 131.204C432.095 132.905 434.005 134.862 436.022 136.885C441.813 142.674 481.91 181.42 481.91 181.42C481.91 181.42 497.452 200.117 478.318 210.364Z" fill="#D39999"/>
<path d="M434.233 234.413L428.382 240.605L426.66 242.434C426.66 242.434 411.071 256.687 407.056 256.236C403.041 255.786 396.362 228.624 404.366 230.406C409.235 231.488 414.931 229.78 418.644 228.268C420.006 227.723 421.335 227.098 422.625 226.399L434.233 234.413Z" fill="#FDC2CC"/>
<path opacity="0.1" d="M390.552 89.2243C390.562 95.4306 388.364 101.438 384.351 106.174C383.664 106.24 382.973 106.118 382.351 105.82C381.729 105.523 381.199 105.062 380.82 104.486C380.08 103.188 380.39 101.561 379.899 100.163C379.408 98.7646 378.291 97.8032 377.585 96.5594C375.796 93.4263 376.549 88.6797 373.274 86.9989C371.768 86.2324 369.945 86.4879 368.264 86.7703C364.961 87.3149 361.639 88.3973 358.384 88.8478C354.672 89.3722 351.329 86.9586 347.664 86.9048C344.395 86.851 341.113 88.7671 338.013 88.2158C338.282 81.3436 341.236 74.8509 346.241 70.1318C351.245 65.4127 357.902 62.8433 364.78 62.9753C371.658 63.1073 378.211 65.9302 383.031 70.8379C387.85 75.7456 390.553 82.3468 390.558 89.2243H390.552Z" fill="black"/>
<path d="M368.264 84.9886C369.945 84.7129 371.767 84.4507 373.274 85.2239C376.549 86.898 375.796 91.6446 377.585 94.7776C378.291 96.0214 379.434 97.0367 379.905 98.3813C380.376 99.726 380.087 101.407 380.827 102.704C381.896 104.58 384.795 104.856 386.698 103.74C388.601 102.624 389.664 100.573 390.383 98.5427C391.016 96.7543 391.547 94.7776 393.074 93.6078C393.628 93.2919 394.126 92.8851 394.546 92.4043C394.862 91.7676 394.984 91.0522 394.896 90.347C394.896 85.8021 394.19 82.2791 395.219 77.8754C396.867 70.7756 398.373 61.8875 393.154 56.6232C390.483 53.9614 387.044 52.2028 383.322 51.5942C379.959 51.0429 375.009 55.7357 371.606 55.6282C362.95 55.2853 355.647 47.2712 347.395 49.8596C343.786 50.9927 340.658 53.2943 338.504 56.4013C334.468 62.3447 334.831 70.0226 335.417 77.1157C335.408 77.6542 335.565 78.1824 335.867 78.6284C336.17 78.9915 336.661 79.1864 336.957 79.5562C337.275 80.0447 337.395 80.6361 337.293 81.2101C337.203 82.3655 336.933 83.4997 336.493 84.5717C336.382 84.751 336.313 84.9531 336.292 85.1629C336.271 85.3726 336.298 85.5843 336.372 85.7819C336.537 86.0065 336.774 86.1678 337.044 86.2391C340.407 87.4493 344.039 85.1163 347.637 85.1768C351.235 85.2374 354.651 87.6443 358.364 87.1199C361.639 86.6156 364.961 85.5332 368.264 84.9886Z" fill="#865A61"/>
<path opacity="0.05" d="M383.006 290.559H382.959L376.522 292.952L374.142 286.33L364.053 258.213L365.634 135.252C366.646 135.535 367.7 135.635 368.748 135.547C370.477 135.342 372.126 134.704 373.543 133.692L371.633 254.71L383.006 290.559Z" fill="black"/>
<path d="M370.51 141.336C371.249 141.336 371.848 140.737 371.848 139.998C371.848 139.259 371.249 138.66 370.51 138.66C369.771 138.66 369.172 139.259 369.172 139.998C369.172 140.737 369.771 141.336 370.51 141.336Z" fill="white"/>
<path d="M367.833 186.758C368.572 186.758 369.172 186.159 369.172 185.42C369.172 184.682 368.572 184.083 367.833 184.083C367.094 184.083 366.495 184.682 366.495 185.42C366.495 186.159 367.094 186.758 367.833 186.758Z" fill="white"/>
<path d="M365.607 233.969C366.346 233.969 366.945 233.37 366.945 232.631C366.945 231.892 366.346 231.293 365.607 231.293C364.868 231.293 364.269 231.892 364.269 232.631C364.269 233.37 364.868 233.969 365.607 233.969Z" fill="white"/>
<path d="M368.284 257.568C369.023 257.568 369.622 256.969 369.622 256.23C369.622 255.491 369.023 254.892 368.284 254.892C367.544 254.892 366.945 255.491 366.945 256.23C366.945 256.969 367.544 257.568 368.284 257.568Z" fill="white"/>
<path opacity="0.05" d="M414.171 190.765H385.656V162.266L399.913 158.252L414.171 162.266V190.765Z" fill="black"/>
<path d="M369.172 162.266C369.911 162.266 370.51 161.667 370.51 160.928C370.51 160.189 369.911 159.59 369.172 159.59C368.432 159.59 367.833 160.189 367.833 160.928C367.833 161.667 368.432 162.266 369.172 162.266Z" fill="white"/>
<path d="M400.801 163.604C401.54 163.604 402.14 163.005 402.14 162.266C402.14 161.527 401.54 160.928 400.801 160.928C400.062 160.928 399.463 161.527 399.463 162.266C399.463 163.005 400.062 163.604 400.801 163.604Z" fill="white"/>
<path d="M366.501 211.251C367.241 211.251 367.84 210.652 367.84 209.913C367.84 209.174 367.241 208.575 366.501 208.575C365.762 208.575 365.163 209.174 365.163 209.913C365.163 210.652 365.762 211.251 366.501 211.251Z" fill="white"/>
<path d="M322.396 132.428C322.396 132.428 309.92 134.21 305.912 156.921C301.904 179.632 297.895 211.251 297.895 211.251C297.895 211.251 291.21 240.645 324.609 233.505L326.391 223.259C326.391 223.259 323.028 235.058 323.943 211.46C324.858 187.861 325.059 172.465 325.059 172.465L322.396 132.428Z" fill="#D39999"/>
<path opacity="0.05" d="M322.396 132.428C322.396 132.428 309.92 134.21 305.912 156.921C301.904 179.632 297.895 211.251 297.895 211.251C297.895 211.251 291.21 240.645 324.609 233.505L326.391 223.259C326.391 223.259 321.266 234.615 322.161 211.009C323.055 187.404 325.059 172.485 325.059 172.485L322.396 132.428Z" fill="black"/>
<path opacity="0.1" d="M434.233 234.413L428.382 240.605C420.063 237.243 418.449 228.429 418.449 228.429L418.664 228.268C420.026 227.723 421.356 227.098 422.645 226.399L434.233 234.413Z" fill="black"/>
<path d="M425.974 223.057L419.323 227.985C419.323 227.985 421.522 239.98 433.991 241.318L439.338 231.965L425.974 223.057Z" fill="#D39999"/>
<path d="M234.885 158.514L291.298 108.217L317.117 138.25L361.424 135.964L374.855 163.731L332.673 218.808L312.914 188.802L265.916 192.823L234.885 158.514Z" fill="#F2F5FB"/>
<path d="M370.18 163.799L355.337 183.074L339.499 203.647L332.182 213.161L315.254 186.832L297.499 188.392L268.593 190.927L247.058 167.12L239.653 158.938L269.696 132.152L292.266 112.036L303.894 125.563L316.336 140.039L328.765 139.4L357.657 137.907L368.936 161.224L370.18 163.799Z" fill="#DDE0ED"/>
<path d="M276.865 143.528L247.058 167.12L239.653 158.938L269.696 132.152L276.865 143.528Z" fill="#ABB1D1"/>
<path d="M310.869 160.907L308.522 146.123L292.838 127.722L303.895 125.563L316.337 140.039L328.765 139.4L333.325 157.008L311.178 162.837L310.869 160.907Z" fill="#ABB1D1"/>
<path d="M370.18 163.799L355.337 183.074L347.63 171.456L368.936 161.224L370.18 163.799Z" fill="#ABB1D1"/>
<path d="M339.499 203.647L332.182 213.161L315.254 186.832L297.499 188.392L294.277 166.131L310.869 160.907L312.86 176.115L324.084 177.857L339.499 203.647Z" fill="#ABB1D1"/>
<path d="M307.715 166.945C307.636 166.961 307.554 166.955 307.478 166.927C307.402 166.9 307.335 166.853 307.284 166.79C305.22 164.26 302.693 162.145 299.839 160.558C299.736 160.501 299.659 160.405 299.626 160.292C299.594 160.178 299.607 160.056 299.664 159.953C299.721 159.849 299.817 159.773 299.931 159.74C300.044 159.707 300.166 159.721 300.27 159.778C303.222 161.42 305.835 163.608 307.97 166.226C308.02 166.285 308.052 166.357 308.066 166.433C308.079 166.509 308.072 166.588 308.045 166.66C308.019 166.733 307.974 166.798 307.914 166.848C307.855 166.897 307.784 166.931 307.708 166.945H307.715Z" fill="#D7666F"/>
<path d="M302.415 168.182C302.33 168.2 302.241 168.192 302.16 168.159C302.079 168.127 302.01 168.071 301.96 167.999C301.911 167.928 301.884 167.843 301.882 167.756C301.88 167.669 301.904 167.583 301.951 167.51L307.721 157.983C307.783 157.882 307.882 157.81 307.997 157.782C308.111 157.754 308.232 157.773 308.333 157.835C308.434 157.897 308.506 157.996 308.534 158.11C308.562 158.225 308.543 158.346 308.481 158.447L302.711 167.974C302.679 168.027 302.636 168.073 302.585 168.109C302.534 168.145 302.476 168.17 302.415 168.182Z" fill="#D7666F"/>
<path opacity="0.1" d="M268.606 190.335L316.236 139.938L357.57 137.927L315.368 186.658L268.606 190.335Z" fill="white"/>
<path d="M309.92 214.788C309.92 214.788 321.058 187.471 326.404 190.308C331.751 193.145 347.341 210.175 336.654 217.625C325.967 225.074 318.388 228.624 318.388 228.624L309.92 227.562V214.788Z" fill="#FDC2CC"/>
<path d="M303.908 215.036C303.908 215.036 314.124 207.022 322.376 231.293L314.595 232.409L305.684 227.064L303.908 215.036Z" fill="#D39999"/>
<path opacity="0.05" d="M303.908 215.036C303.908 215.036 314.124 207.022 322.376 231.293L314.595 232.409L305.684 227.064L303.908 215.036Z" fill="black"/>
</g>
<defs>
<linearGradient id="paint0_linear" x1="361.377" y1="533.463" x2="361.377" y2="47.5872" gradientUnits="userSpaceOnUse">
<stop stop-color="#808080" stop-opacity="0.25"/>
<stop offset="0.54" stop-color="#808080" stop-opacity="0.12"/>
<stop offset="1" stop-color="#808080" stop-opacity="0.1"/>
</linearGradient>
<clipPath id="clip0">
<rect width="738" height="545" fill="white"/>
</clipPath>
</defs>
</svg>
