<svg width="737" height="554" viewBox="0 0 737 554" fill="none" xmlns="http://www.w3.org/2000/svg">
<g clip-path="url(#clip0)">
<path opacity="0.25" d="M702.204 214.204V164.808H672.882V214.204H638.157V137.794H612.693V80.6788H591.858V22.0201H548.645V80.6788H527.811V137.794H503.118V69.1014H489.228V34.3693H480.74V69.1014H431.354V288.299H393.543V265.145H370.394V288.299H332.583V214.204H264.677V164.808H235.354V214.204H233.811V309.139H202.945V253.567H165.905V309.139H135.039V137.794H111.118V80.6788H23.1496V137.794H0V439.577H135.039H233.811H332.583H431.354H503.118H638.157H736.929V214.204H702.204Z" fill="#6158F4"/>
<path opacity="0.4" d="M47.0709 155.546H14.6614V174.07H47.0709V155.546Z" fill="white"/>
<path opacity="0.4" d="M87.1968 174.07H119.606V155.546H87.1968V174.07Z" fill="white"/>
<path opacity="0.4" d="M47.0709 191.821H14.6614V210.345H47.0709V191.821Z" fill="white"/>
<path opacity="0.4" d="M87.1968 210.345H119.606V191.821H87.1968V210.345Z" fill="white"/>
<path opacity="0.4" d="M47.0709 228.097H14.6614V246.621H47.0709V228.097Z" fill="white"/>
<path opacity="0.4" d="M87.1968 246.621H119.606V228.097H87.1968V246.621Z" fill="white"/>
<path opacity="0.4" d="M47.0709 264.373H14.6614V282.897H47.0709V264.373Z" fill="white"/>
<path opacity="0.4" d="M87.1968 282.897H119.606V264.373H87.1968V282.897Z" fill="white"/>
<path opacity="0.4" d="M47.0709 300.649H14.6614V319.172H47.0709V300.649Z" fill="white"/>
<path opacity="0.4" d="M87.1968 319.172H119.606V300.649H87.1968V319.172Z" fill="white"/>
<path opacity="0.4" d="M47.0709 336.924H14.6614V355.448H47.0709V336.924Z" fill="white"/>
<path opacity="0.4" d="M87.1968 355.448H119.606V336.924H87.1968V355.448Z" fill="white"/>
<path opacity="0.4" d="M47.0709 373.2H14.6614V391.724H47.0709V373.2Z" fill="white"/>
<path opacity="0.4" d="M87.1968 391.724H119.606V373.2H87.1968V391.724Z" fill="white"/>
<path opacity="0.4" d="M222.236 327.662H146.614V336.924H222.236V327.662Z" fill="white"/>
<path opacity="0.4" d="M222.236 341.555H146.614V350.817H222.236V341.555Z" fill="white"/>
<path opacity="0.4" d="M222.236 355.448H146.614V364.71H222.236V355.448Z" fill="white"/>
<path opacity="0.4" d="M419.779 332.293H344.157V341.555H419.779V332.293Z" fill="white"/>
<path opacity="0.4" d="M419.779 346.186H344.157V355.448H419.779V346.186Z" fill="white"/>
<path opacity="0.4" d="M419.779 360.079H344.157V369.341H419.779V360.079Z" fill="white"/>
<path opacity="0.4" d="M222.236 369.341H146.614V378.603H222.236V369.341Z" fill="white"/>
<path opacity="0.4" d="M222.236 383.234H146.614V392.496H222.236V383.234Z" fill="white"/>
<path opacity="0.4" d="M222.236 397.127H146.614V406.389H222.236V397.127Z" fill="white"/>
<path opacity="0.4" d="M270.85 231.956H250.016V258.97H270.85V231.956Z" fill="white"/>
<path opacity="0.4" d="M295.543 258.97H316.378V231.956H295.543V258.97Z" fill="white"/>
<path opacity="0.4" d="M270.85 275.178H250.016V302.192H270.85V275.178Z" fill="white"/>
<path opacity="0.4" d="M295.543 302.192H316.378V275.178H295.543V302.192Z" fill="white"/>
<path opacity="0.4" d="M270.85 318.401H250.016V345.414H270.85V318.401Z" fill="white"/>
<path opacity="0.4" d="M295.543 345.414H316.378V318.401H295.543V345.414Z" fill="white"/>
<path opacity="0.4" d="M270.85 361.623H250.016V388.637H270.85V361.623Z" fill="white"/>
<path opacity="0.4" d="M295.543 388.637H316.378V361.623H295.543V388.637Z" fill="white"/>
<path opacity="0.4" d="M459.134 86.8534H431.354V122.357H459.134V86.8534Z" fill="white"/>
<path opacity="0.4" d="M459.134 137.794H431.354V173.298H459.134V137.794Z" fill="white"/>
<path opacity="0.4" d="M459.134 188.734H431.354V224.238H459.134V188.734Z" fill="white"/>
<path opacity="0.4" d="M459.134 239.675H431.354V275.178H459.134V239.675Z" fill="white"/>
<path opacity="0.4" d="M459.134 290.615H431.354V326.119H459.134V290.615Z" fill="white"/>
<path opacity="0.4" d="M459.134 341.555H431.354V377.059H459.134V341.555Z" fill="white"/>
<path opacity="0.4" d="M622.339 159.405H518.937V189.506H622.339V159.405Z" fill="white"/>
<path opacity="0.4" d="M622.724 224.238H519.323V254.339H622.724V224.238Z" fill="white"/>
<path opacity="0.4" d="M623.11 289.071H519.708V319.172H623.11V289.071Z" fill="white"/>
<path opacity="0.4" d="M623.496 353.905H520.094V384.006H623.496V353.905Z" fill="white"/>
<path opacity="0.4" d="M37.0394 96.8871H23.1496V126.216H37.0394V96.8871Z" fill="white"/>
<path opacity="0.4" d="M736.929 231.956H702.204V276.722H736.929V231.956Z" fill="white"/>
<path opacity="0.4" d="M736.929 296.79H702.204V341.555H736.929V296.79Z" fill="white"/>
<path opacity="0.4" d="M736.929 361.623H702.204V406.389H736.929V361.623Z" fill="white"/>
<path opacity="0.1" d="M204.241 58.8207H198.932C199.434 58.8436 199.936 58.7644 200.407 58.588C200.877 58.4115 201.308 58.1415 201.671 57.7941C202.034 57.4468 202.324 57.0294 202.521 56.5671C202.719 56.1047 202.821 55.6072 202.821 55.1044C202.821 54.6015 202.719 54.104 202.521 53.6416C202.324 53.1793 202.034 52.7619 201.671 52.4145C201.308 52.0672 200.877 51.7972 200.407 51.6207C199.936 51.4443 199.434 51.3651 198.932 51.388H155.928C154.972 51.4316 154.069 51.8422 153.408 52.5344C152.747 53.2265 152.378 54.147 152.378 55.1044C152.378 56.0617 152.747 56.9822 153.408 57.6743C154.069 58.3665 154.972 58.7771 155.928 58.8207H161.237C160.735 58.7978 160.233 58.8769 159.762 59.0534C159.292 59.2298 158.862 59.4999 158.498 59.8472C158.135 60.1946 157.845 60.612 157.648 61.0743C157.45 61.5366 157.348 62.0342 157.348 62.537C157.348 63.0398 157.45 63.5374 157.648 63.9997C157.845 64.462 158.135 64.8795 158.498 65.2268C158.862 65.5742 159.292 65.8442 159.762 66.0206C160.233 66.1971 160.735 66.2762 161.237 66.2533H153.806C152.85 66.2969 151.947 66.7075 151.286 67.3997C150.625 68.0919 150.256 69.0124 150.256 69.9697C150.256 70.927 150.625 71.8475 151.286 72.5397C151.947 73.2318 152.85 73.6424 153.806 73.686H196.81C197.766 73.6424 198.669 73.2318 199.33 72.5397C199.991 71.8475 200.36 70.927 200.36 69.9697C200.36 69.0124 199.991 68.0919 199.33 67.3997C198.669 66.7075 197.766 66.2969 196.81 66.2533H204.241C204.743 66.2762 205.245 66.1971 205.716 66.0206C206.186 65.8442 206.617 65.5742 206.98 65.2268C207.343 64.8795 207.633 64.462 207.83 63.9997C208.028 63.5374 208.13 63.0398 208.13 62.537C208.13 62.0342 208.028 61.5366 207.83 61.0743C207.633 60.612 207.343 60.1946 206.98 59.8472C206.617 59.4999 206.186 59.2298 205.716 59.0534C205.245 58.8769 204.743 58.7978 204.241 58.8207Z" fill="#252223"/>
<path opacity="0.1" d="M394.068 152.211H388.759C389.261 152.234 389.763 152.155 390.233 151.979C390.704 151.802 391.134 151.532 391.498 151.185C391.861 150.838 392.15 150.42 392.348 149.958C392.546 149.495 392.648 148.998 392.648 148.495C392.648 147.992 392.546 147.495 392.348 147.032C392.15 146.57 391.861 146.153 391.498 145.805C391.134 145.458 390.704 145.188 390.233 145.011C389.763 144.835 389.261 144.756 388.759 144.779H345.755C344.799 144.822 343.896 145.233 343.235 145.925C342.574 146.617 342.205 147.538 342.205 148.495C342.205 149.452 342.574 150.373 343.235 151.065C343.896 151.757 344.799 152.168 345.755 152.211H351.064C350.561 152.189 350.06 152.268 349.589 152.444C349.118 152.621 348.688 152.891 348.325 153.238C347.961 153.585 347.672 154.003 347.474 154.465C347.277 154.927 347.175 155.425 347.175 155.928C347.175 156.431 347.277 156.928 347.474 157.39C347.672 157.853 347.961 158.27 348.325 158.618C348.688 158.965 349.118 159.235 349.589 159.411C350.06 159.588 350.561 159.667 351.064 159.644H343.633C343.13 159.621 342.629 159.7 342.158 159.877C341.687 160.053 341.257 160.323 340.894 160.671C340.53 161.018 340.241 161.435 340.043 161.898C339.846 162.36 339.744 162.858 339.744 163.36C339.744 163.863 339.846 164.361 340.043 164.823C340.241 165.285 340.53 165.703 340.894 166.05C341.257 166.398 341.687 166.668 342.158 166.844C342.629 167.021 343.13 167.1 343.633 167.077H386.637C387.139 167.1 387.641 167.021 388.111 166.844C388.582 166.668 389.012 166.398 389.376 166.05C389.739 165.703 390.028 165.285 390.226 164.823C390.424 164.361 390.526 163.863 390.526 163.36C390.526 162.858 390.424 162.36 390.226 161.898C390.028 161.435 389.739 161.018 389.376 160.671C389.012 160.323 388.582 160.053 388.111 159.877C387.641 159.7 387.139 159.621 386.637 159.644H394.068C394.57 159.667 395.072 159.588 395.542 159.411C396.013 159.235 396.443 158.965 396.807 158.618C397.17 158.27 397.459 157.853 397.657 157.39C397.855 156.928 397.957 156.431 397.957 155.928C397.957 155.425 397.855 154.927 397.657 154.465C397.459 154.003 397.17 153.585 396.807 153.238C396.443 152.891 396.013 152.621 395.542 152.444C395.072 152.268 394.57 152.189 394.068 152.211Z" fill="#252223"/>
<path opacity="0.1" d="M717.391 30.2633H712.082C712.584 30.2861 713.085 30.207 713.556 30.0305C714.027 29.8541 714.457 29.5841 714.82 29.2367C715.184 28.8894 715.473 28.4719 715.671 28.0096C715.868 27.5473 715.97 27.0497 715.97 26.5469C715.97 26.0441 715.868 25.5465 715.671 25.0842C715.473 24.6219 715.184 24.2045 714.82 23.8571C714.457 23.5098 714.027 23.2397 713.556 23.0633C713.085 22.8868 712.584 22.8077 712.082 22.8306H669.077C668.121 22.8742 667.219 23.2848 666.558 23.9769C665.896 24.6691 665.527 25.5896 665.527 26.5469C665.527 27.5042 665.896 28.4247 666.558 29.1169C667.219 29.8091 668.121 30.2197 669.077 30.2633H674.386C673.884 30.2404 673.383 30.3195 672.912 30.4959C672.441 30.6724 672.011 30.9424 671.648 31.2898C671.284 31.6371 670.995 32.0546 670.797 32.5169C670.6 32.9792 670.498 33.4768 670.498 33.9796C670.498 34.4824 670.6 34.98 670.797 35.4423C670.995 35.9046 671.284 36.322 671.648 36.6694C672.011 37.0167 672.441 37.2868 672.912 37.4632C673.383 37.6396 673.884 37.7188 674.386 37.6959H666.955C666.453 37.673 665.952 37.7522 665.481 37.9286C665.01 38.1051 664.58 38.3751 664.217 38.7225C663.853 39.0698 663.564 39.4872 663.366 39.9495C663.169 40.4119 663.067 40.9094 663.067 41.4122C663.067 41.9151 663.169 42.4126 663.366 42.875C663.564 43.3373 663.853 43.7547 664.217 44.102C664.58 44.4494 665.01 44.7194 665.481 44.8959C665.952 45.0723 666.453 45.1515 666.955 45.1286H709.96C710.462 45.1515 710.963 45.0723 711.434 44.8959C711.905 44.7194 712.335 44.4494 712.698 44.102C713.062 43.7547 713.351 43.3373 713.549 42.875C713.746 42.4126 713.848 41.9151 713.848 41.4122C713.848 40.9094 713.746 40.4119 713.549 39.9495C713.351 39.4872 713.062 39.0698 712.698 38.7225C712.335 38.3751 711.905 38.1051 711.434 37.9286C710.963 37.7522 710.462 37.673 709.96 37.6959H717.391C717.893 37.7188 718.394 37.6396 718.865 37.4632C719.336 37.2868 719.766 37.0167 720.129 36.6694C720.493 36.322 720.782 35.9046 720.98 35.4423C721.177 34.98 721.279 34.4824 721.279 33.9796C721.279 33.4768 721.177 32.9792 720.98 32.5169C720.782 32.0546 720.493 31.6371 720.129 31.2898C719.766 30.9424 719.336 30.6724 718.865 30.4959C718.394 30.3195 717.893 30.2404 717.391 30.2633Z" fill="#252223"/>
<path d="M615.818 3.50405C609.314 3.44188 602.814 3.83389 596.364 4.67722C596.364 3.43879 595.873 2.25107 594.997 1.37537C594.122 0.499657 592.934 0.00769043 591.696 0.00769043C590.458 0.00769043 589.27 0.499657 588.395 1.37537C587.519 2.25107 587.027 3.43879 587.027 4.67722C580.578 3.83389 574.078 3.44188 567.574 3.50405C553.183 3.50405 541.508 5.0477 541.508 7.00814C541.508 8.96857 553.175 10.5122 567.574 10.5122C574.078 10.5744 580.578 10.1824 587.027 9.33904C587.027 9.90076 587.129 10.4578 587.328 10.983C586.907 11.2427 586.554 11.5999 586.3 12.0245C586.045 12.4491 585.897 12.9288 585.866 13.4229C585.836 13.9171 585.925 14.4112 586.126 14.8638C586.327 15.3163 586.633 15.7139 587.02 16.023C585.887 16.4095 584.847 17.0277 583.966 17.8383C583.085 18.6489 582.383 19.6341 581.904 20.7312C580.613 19.7448 579.051 19.1766 577.428 19.1026L528.961 16.9415C527.196 14.5804 524.906 12.6636 522.271 11.3438C519.636 10.024 516.729 9.33754 513.782 9.33904H483.271C480.3 9.33767 477.37 10.0356 474.719 11.3764C472.067 12.7172 469.768 14.6633 468.008 17.0573L421.971 19.1181C420.469 19.1842 419.016 19.6739 417.781 20.5305C416.874 18.5871 415.275 17.0516 413.297 16.2237C413.793 15.9078 414.189 15.4569 414.437 14.924C414.685 14.391 414.776 13.7982 414.699 13.2153C414.622 12.6324 414.381 12.0835 414.002 11.6334C413.624 11.1833 413.125 10.8505 412.564 10.6743C412.693 10.241 412.758 9.79116 412.757 9.33904C419.207 10.1824 425.707 10.5744 432.211 10.5122C446.602 10.5122 458.277 8.96857 458.277 7.00814C458.277 5.0477 446.61 3.50405 432.211 3.50405C425.707 3.44188 419.207 3.83389 412.757 4.67722C412.757 3.44902 412.269 2.27112 411.401 1.40265C410.533 0.534182 409.355 0.0462781 408.127 0.0462781C406.899 0.0462781 405.722 0.534182 404.854 1.40265C403.985 2.27112 403.497 3.44902 403.497 4.67722C397.048 3.83389 390.548 3.44188 384.044 3.50405C369.653 3.50405 357.978 5.0477 357.978 7.00814C357.978 8.96857 369.645 10.5122 384.044 10.5122C390.548 10.5744 397.048 10.1824 403.497 9.33904C403.497 9.90076 403.599 10.4578 403.798 10.983C403.364 11.2493 403.003 11.6187 402.746 12.0585C402.49 12.4982 402.346 12.9947 402.328 13.5035C402.309 14.0124 402.417 14.5179 402.641 14.975C402.866 15.4321 403.2 15.8266 403.613 16.1234C401.98 16.7393 400.573 17.8379 399.579 19.2731C398.585 20.7084 398.052 22.4122 398.05 24.1581V29.9159C398.052 32.1829 398.949 34.3575 400.545 35.9663C402.142 37.5751 404.31 38.488 406.576 38.5063H409.995C411.335 38.5063 412.656 38.1921 413.853 37.589C415.05 36.9858 416.088 36.1104 416.886 35.0331C418.306 36.3574 420.161 37.1177 422.102 37.171L467.244 38.4368C468.685 40.712 470.592 42.656 472.838 44.1406C468.517 48.5323 451.664 68.0054 454.38 102.321C454.38 102.321 457.104 107.376 464.103 102.321C464.103 102.321 459.628 64.0845 484.683 48.3393C485.108 49.5589 485.901 50.616 486.953 51.3642C488.005 52.1124 489.264 52.5146 490.555 52.5149H493.758C490.135 53.9443 487.124 56.5935 485.244 60.0055C483.364 63.4175 482.734 67.3786 483.461 71.2058C484.188 75.033 486.228 78.4864 489.228 80.9706C492.229 83.4548 496.001 84.814 499.896 84.814C503.791 84.814 507.564 83.4548 510.564 80.9706C513.564 78.4864 515.604 75.033 516.331 71.2058C517.059 67.3786 516.428 63.4175 514.549 60.0055C512.669 56.5935 509.658 53.9443 506.035 52.5149H509.237C510.528 52.5146 511.787 52.1124 512.839 51.3642C513.892 50.616 514.685 49.5589 515.109 48.3393C540.165 64.0845 535.689 102.321 535.689 102.321C542.688 107.376 545.412 102.321 545.412 102.321C548.499 63.0194 525.959 43.1835 525.959 43.1835H525.55C527.209 41.8701 528.638 40.2894 529.779 38.5063L577.297 37.1787C579.34 37.1322 581.287 36.3034 582.737 34.8633C583.527 36.0023 584.582 36.9328 585.81 37.5753C587.038 38.2178 588.404 38.5531 589.79 38.5526H593.208C594.337 38.5526 595.455 38.3302 596.498 37.8981C597.541 37.466 598.489 36.8327 599.287 36.0343C600.085 35.2358 600.718 34.288 601.15 33.2448C601.582 32.2017 601.805 31.0836 601.805 29.9545V24.1967C601.804 22.5361 601.323 20.9112 600.419 19.5183C599.516 18.1253 598.228 17.024 596.712 16.3472C597.239 16.0552 597.669 15.6152 597.95 15.0814C598.23 14.5476 598.348 13.9435 598.289 13.3435C598.23 12.7435 597.996 12.1739 597.617 11.7051C597.238 11.2362 596.73 10.8886 596.156 10.7052C596.285 10.2719 596.35 9.82203 596.349 9.36992C602.798 10.2133 609.299 10.6053 615.802 10.5431C630.194 10.5431 641.869 8.99944 641.869 7.03901C641.869 5.07858 630.217 3.50405 615.818 3.50405Z" fill="url(#paint0_linear)"/>
<path d="M499.9 82.9711C508.611 82.9711 515.673 75.9079 515.673 67.195C515.673 58.4821 508.611 51.4189 499.9 51.4189C491.189 51.4189 484.128 58.4821 484.128 67.195C484.128 75.9079 491.189 82.9711 499.9 82.9711Z" fill="#63A1FF"/>
<path d="M499.9 77.8385C505.777 77.8385 510.541 73.0733 510.541 67.195C510.541 61.3168 505.777 56.5516 499.9 56.5516C494.023 56.5516 489.259 61.3168 489.259 67.195C489.259 73.0733 494.023 77.8385 499.9 77.8385Z" fill="#63A1FF"/>
<path opacity="0.2" d="M499.9 77.8385C505.777 77.8385 510.541 73.0733 510.541 67.195C510.541 61.3168 505.777 56.5516 499.9 56.5516C494.023 56.5516 489.259 61.3168 489.259 67.195C489.259 73.0733 494.023 77.8385 499.9 77.8385Z" fill="#F5F5F5"/>
<path d="M499.9 74.1646C503.748 74.1646 506.868 71.0442 506.868 67.195C506.868 63.3458 503.748 60.2255 499.9 60.2255C496.052 60.2255 492.932 63.3458 492.932 67.195C492.932 71.0442 496.052 74.1646 499.9 74.1646Z" fill="#63A1FF"/>
<path opacity="0.25" d="M499.9 74.1646C503.748 74.1646 506.868 71.0442 506.868 67.195C506.868 63.3458 503.748 60.2255 499.9 60.2255C496.052 60.2255 492.932 63.3458 492.932 67.195C492.932 71.0442 496.052 74.1646 499.9 74.1646Z" fill="black"/>
<path d="M475.315 43.7084C475.315 43.7084 454.041 62.4329 456.973 99.4804C456.973 99.4804 459.543 104.25 466.148 99.4804C466.148 99.4804 460.646 52.5072 497.331 43.7007L475.315 43.7084Z" fill="#63A1FF"/>
<path d="M524.477 43.7084C524.477 43.7084 545.759 62.4329 542.85 99.4804C542.85 99.4804 540.281 104.25 533.675 99.4804C533.675 99.4804 539.177 52.5072 502.493 43.7007L524.477 43.7084Z" fill="#63A1FF"/>
<path d="M513.011 11.778H484.212C474.334 11.778 466.325 19.788 466.325 29.6689C466.325 39.5498 474.334 47.5598 484.212 47.5598H513.011C522.889 47.5598 530.897 39.5498 530.897 29.6689C530.897 19.788 522.889 11.778 513.011 11.778Z" fill="#63A1FF"/>
<path d="M476.905 39.4479L426.524 38.0355C424.556 37.9812 422.688 37.1612 421.316 35.75C419.944 34.3388 419.177 32.4478 419.177 30.4793V28.5498C419.177 26.6046 419.928 24.7343 421.271 23.3282C422.615 21.9222 424.45 21.0887 426.392 21.0013L476.774 18.7399C477.793 18.694 478.812 18.8552 479.767 19.2139C480.723 19.5725 481.596 20.1212 482.334 20.8266C483.071 21.5321 483.658 22.3797 484.06 23.3184C484.461 24.2572 484.668 25.2674 484.668 26.2883V31.8995C484.667 32.9089 484.464 33.908 484.071 34.8377C483.678 35.7674 483.103 36.6089 482.379 37.3125C481.655 38.0161 480.798 38.5676 479.858 38.9344C478.918 39.3011 477.914 39.4758 476.905 39.4479Z" fill="#63A1FF"/>
<path d="M522.525 39.4479L572.906 38.0355C574.873 37.9812 576.742 37.1612 578.114 35.75C579.486 34.3388 580.253 32.4478 580.252 30.4793V28.5498C580.252 26.6046 579.502 24.7343 578.158 23.3282C576.814 21.9222 574.98 21.0887 573.037 21.0013L522.656 18.7399C521.637 18.694 520.618 18.8552 519.663 19.2139C518.707 19.5725 517.834 20.1212 517.096 20.8266C516.358 21.5321 515.771 22.3797 515.37 23.3184C514.969 24.2572 514.762 25.2674 514.762 26.2883V31.8995C514.763 32.9089 514.966 33.908 515.359 34.8377C515.752 35.7674 516.327 36.6089 517.051 37.3125C517.774 38.0161 518.632 38.5676 519.572 38.9344C520.512 39.3011 521.516 39.4758 522.525 39.4479Z" fill="#63A1FF"/>
<path opacity="0.2" d="M476.905 39.4479L426.524 38.0355C424.556 37.9812 422.688 37.1612 421.316 35.75C419.944 34.3388 419.177 32.4478 419.177 30.4793V28.5498C419.177 26.6046 419.928 24.7343 421.271 23.3282C422.615 21.9222 424.45 21.0887 426.392 21.0013L476.774 18.7399C477.793 18.694 478.812 18.8552 479.767 19.2139C480.723 19.5725 481.596 20.1212 482.334 20.8266C483.071 21.5321 483.658 22.3797 484.06 23.3184C484.461 24.2572 484.668 25.2674 484.668 26.2883V31.8995C484.667 32.9089 484.464 33.908 484.071 34.8377C483.678 35.7674 483.103 36.6089 482.379 37.3125C481.655 38.0161 480.798 38.5676 479.858 38.9344C478.918 39.3011 477.914 39.4758 476.905 39.4479Z" fill="#F5F5F5"/>
<path opacity="0.2" d="M522.525 39.4479L572.906 38.0355C574.873 37.9812 576.742 37.1612 578.114 35.75C579.486 34.3388 580.253 32.4478 580.252 30.4793V28.5498C580.252 26.6046 579.502 24.7343 578.158 23.3282C576.814 21.9222 574.98 21.0887 573.037 21.0013L522.656 18.7399C521.637 18.694 520.618 18.8552 519.663 19.2139C518.707 19.5725 517.834 20.1212 517.096 20.8266C516.358 21.5321 515.771 22.3797 515.37 23.3184C514.969 24.2572 514.762 25.2674 514.762 26.2883V31.8995C514.763 32.9089 514.966 33.908 515.359 34.8377C515.752 35.7674 516.327 36.6089 517.051 37.3125C517.774 38.0161 518.632 38.5676 519.572 38.9344C520.512 39.3011 521.516 39.4758 522.525 39.4479Z" fill="#F5F5F5"/>
<path d="M414.602 17.6516H412.395C407.634 17.6516 403.775 21.5115 403.775 26.2729V30.68C403.775 35.4414 407.634 39.3013 412.395 39.3013H414.602C419.362 39.3013 423.221 35.4414 423.221 30.68V26.2729C423.221 21.5115 419.362 17.6516 414.602 17.6516Z" fill="#63A1FF"/>
<path d="M587.406 17.6516H585.199C580.438 17.6516 576.579 21.5115 576.579 26.2729V30.68C576.579 35.4414 580.438 39.3013 585.199 39.3013H587.406C592.166 39.3013 596.025 35.4414 596.025 30.68V26.2729C596.025 21.5115 592.166 17.6516 587.406 17.6516Z" fill="#63A1FF"/>
<path d="M416.616 12.8817H410.743C409.124 12.8817 407.811 14.1948 407.811 15.8146V15.8224C407.811 17.4422 409.124 18.7553 410.743 18.7553H416.616C418.235 18.7553 419.548 17.4422 419.548 15.8224V15.8146C419.548 14.1948 418.235 12.8817 416.616 12.8817Z" fill="#63A1FF"/>
<path d="M417.719 7.37861C417.719 4.94463 415.748 2.9715 413.317 2.9715C410.885 2.9715 408.914 4.94463 408.914 7.37861V11.778C408.914 14.212 410.885 16.1851 413.317 16.1851C415.748 16.1851 417.719 14.212 417.719 11.778V7.37861Z" fill="#63A1FF"/>
<path d="M390.565 12.8818C404.142 12.8818 415.149 11.4028 415.149 9.57837C415.149 7.75395 404.142 6.27496 390.565 6.27496C376.987 6.27496 365.98 7.75395 365.98 9.57837C365.98 11.4028 376.987 12.8818 390.565 12.8818Z" fill="#63A1FF"/>
<path d="M436.061 12.8818C449.639 12.8818 460.646 11.4028 460.646 9.57837C460.646 7.75395 449.639 6.27496 436.061 6.27496C422.483 6.27496 411.476 7.75395 411.476 9.57837C411.476 11.4028 422.483 12.8818 436.061 12.8818Z" fill="#63A1FF"/>
<path d="M589.782 12.8817H583.91C582.291 12.8817 580.978 14.1948 580.978 15.8146V15.8224C580.978 17.4422 582.291 18.7553 583.91 18.7553H589.782C591.402 18.7553 592.715 17.4422 592.715 15.8224V15.8146C592.715 14.1948 591.402 12.8817 589.782 12.8817Z" fill="#63A1FF"/>
<path d="M590.886 7.37861C590.886 4.94463 588.915 2.9715 586.483 2.9715C584.052 2.9715 582.081 4.94463 582.081 7.37861V11.778C582.081 14.212 584.052 16.1851 586.483 16.1851C588.915 16.1851 590.886 14.212 590.886 11.778V7.37861Z" fill="#63A1FF"/>
<path d="M563.739 12.8818C577.317 12.8818 588.324 11.4028 588.324 9.57837C588.324 7.75395 577.317 6.27496 563.739 6.27496C550.161 6.27496 539.154 7.75395 539.154 9.57837C539.154 11.4028 550.161 12.8818 563.739 12.8818Z" fill="#63A1FF"/>
<path d="M609.228 12.8818C622.806 12.8818 633.813 11.4028 633.813 9.57837C633.813 7.75395 622.806 6.27496 609.228 6.27496C595.65 6.27496 584.643 7.75395 584.643 9.57837C584.643 11.4028 595.65 12.8818 609.228 12.8818Z" fill="#63A1FF"/>
<path opacity="0.2" d="M390.565 12.8818C404.142 12.8818 415.149 11.4028 415.149 9.57837C415.149 7.75395 404.142 6.27496 390.565 6.27496C376.987 6.27496 365.98 7.75395 365.98 9.57837C365.98 11.4028 376.987 12.8818 390.565 12.8818Z" fill="#F5F5F5"/>
<path opacity="0.2" d="M436.061 12.8818C449.639 12.8818 460.646 11.4028 460.646 9.57837C460.646 7.75395 449.639 6.27496 436.061 6.27496C422.483 6.27496 411.476 7.75395 411.476 9.57837C411.476 11.4028 422.483 12.8818 436.061 12.8818Z" fill="#F5F5F5"/>
<path opacity="0.2" d="M563.739 12.8818C577.317 12.8818 588.324 11.4028 588.324 9.57837C588.324 7.75395 577.317 6.27496 563.739 6.27496C550.161 6.27496 539.154 7.75395 539.154 9.57837C539.154 11.4028 550.161 12.8818 563.739 12.8818Z" fill="#F5F5F5"/>
<path opacity="0.2" d="M609.228 12.8818C622.806 12.8818 633.813 11.4028 633.813 9.57837C633.813 7.75395 622.806 6.27496 609.228 6.27496C595.65 6.27496 584.643 7.75395 584.643 9.57837C584.643 11.4028 595.65 12.8818 609.228 12.8818Z" fill="#F5F5F5"/>
<path d="M508.705 40.7678H491.096C487.852 40.7678 485.223 43.3957 485.223 46.6375C485.223 49.8792 487.852 52.5072 491.096 52.5072H508.705C511.948 52.5072 514.577 49.8792 514.577 46.6375C514.577 43.3957 511.948 40.7678 508.705 40.7678Z" fill="#63A1FF"/>
<path opacity="0.2" d="M508.705 40.7678H491.096C487.852 40.7678 485.223 43.3957 485.223 46.6375C485.223 49.8792 487.852 52.5072 491.096 52.5072H508.705C511.948 52.5072 514.577 49.8792 514.577 46.6375C514.577 43.3957 511.948 40.7678 508.705 40.7678Z" fill="#F5F5F5"/>
<path d="M526.545 101.765H461.179V167.146H526.545H543.244V101.765H526.545Z" fill="#67647E"/>
<path opacity="0.25" d="M543.252 101.765H526.545V167.146H543.252V101.765Z" fill="black"/>
<path opacity="0.25" d="M481.512 112.663H469.165V119.201H481.512V112.663Z" fill="black"/>
<path d="M496.898 94.0776C499.676 98.014 499.213 103.085 499.213 103.085C499.213 103.085 494.29 101.78 491.497 97.8442C488.703 93.9079 487.639 89.8789 489.182 88.837C490.725 87.795 494.12 90.1336 496.898 94.0776Z" fill="#67647E"/>
<path d="M501.598 94.0776C498.82 98.014 499.283 103.085 499.283 103.085C499.283 103.085 504.206 101.78 506.999 97.8442C509.793 93.9079 510.858 89.8789 509.314 88.837C507.771 87.795 504.376 90.1336 501.598 94.0776Z" fill="#67647E"/>
<path d="M157.394 272.824L157.309 273.087C157.345 273.002 157.374 272.914 157.394 272.824Z" fill="url(#paint1_linear)"/>
<path d="M405.797 486.319C405.851 486.242 405.905 486.172 405.944 486.095L406.029 485.933C406.067 485.856 406.113 485.786 406.144 485.709L406.206 485.547C406.206 485.47 406.268 485.393 406.291 485.315C406.314 485.238 406.291 485.215 406.329 485.161C406.368 485.107 406.368 485.007 406.383 484.922C406.399 484.837 406.383 484.829 406.383 484.775C406.383 484.721 406.383 484.613 406.383 484.528C406.383 484.443 406.383 484.443 406.383 484.397C406.383 484.351 406.383 484.227 406.383 484.142C406.383 484.057 406.383 484.065 406.383 484.026C406.383 483.988 406.383 483.849 406.383 483.764V483.664C406.383 483.571 406.383 483.478 406.322 483.386V483.301C406.322 483.201 406.26 483.108 406.229 483.008V482.946C406.193 482.843 406.152 482.743 406.106 482.645V482.599C406.059 482.491 406.008 482.385 405.951 482.282L405.766 481.95C405.055 480.848 404.16 479.877 403.119 479.079C395.164 482.359 385.371 478.608 385.371 478.608C385.371 478.608 372.253 472.055 373.202 473.923C373.519 474.556 373.357 475.814 373.002 477.219C366.72 475.899 363.256 472.526 361.373 469.501L368.526 461.782C368.526 461.782 339.504 445.397 336.232 436.968C332.961 428.54 317.041 404.667 317.041 404.667C317.041 404.667 311.895 385.943 302.534 381.729C302.534 381.729 283.868 359.423 272.965 340.297C276.823 330.657 282.224 315.599 281.005 309.17C279.462 301.158 281.059 286.015 281.7 280.658C286.878 284.981 307.936 302.092 316.108 301.683C319.048 301.536 322.212 299.962 325.182 297.862C332.251 293.386 338.578 285.297 338.578 285.297C337.621 285.39 336.842 284.525 336.209 283.059C344.026 274.569 360.215 257.095 361.983 256.74C364.297 256.269 376.96 234.272 369.938 229.587C362.916 224.902 350.284 241.759 349.814 245.023C349.497 247.246 339.705 257.002 333.439 263.053C333.439 262.899 333.439 262.814 333.439 262.814L332.513 263.277C332.513 262.984 332.513 262.814 332.513 262.814L316.347 270.895L302.558 252.047C302.558 252.047 298.815 231.918 289.439 228.637C280.064 225.357 273.142 215.254 273.142 215.254C273.055 215.582 272.986 215.914 272.934 216.25C272.463 215.625 272.208 215.254 272.208 215.254C272.208 215.254 272.208 215.339 272.147 215.478C271.44 212.596 271.259 209.61 271.614 206.664L271.745 206.586C271.799 206.224 271.861 205.876 271.923 205.545C276.71 202.641 280.298 198.118 282.038 192.795C283.778 187.473 283.554 181.703 281.407 176.532C283.791 174.864 287.248 173.83 290.188 172.564C294.345 170.868 297.987 168.114 300.752 164.576C299.141 164.173 297.452 164.207 295.86 164.676C295.659 162.508 298.175 160.045 296.215 158.394C295.011 157.367 292.765 157.46 291.052 157.969C289.339 158.479 287.773 159.312 285.952 159.513C282.78 159.899 279.778 158.363 277.517 156.703C275.256 155.044 273.127 153.099 270.102 152.312C264.091 150.768 258.133 154.326 252.099 155.839C242.407 158.263 236.666 160.856 236.195 167.03C234.948 167.869 233.799 168.845 232.769 169.94C230.686 171.751 229.246 174.188 228.664 176.887C227.846 181.085 229.544 185.377 231.596 189.112C232.762 191.25 238.364 202.326 242.168 200.867C243.221 202.077 244.395 203.176 245.671 204.148C245.548 205.421 245.37 206.71 245.17 208.007C244.311 208.476 243.38 208.797 242.415 208.956C240.321 209.345 238.194 209.531 236.064 209.512C232.735 209.487 229.409 209.284 226.102 208.902C222.887 208.531 219.654 208.345 216.418 208.346C214.805 208.341 213.192 208.418 211.587 208.578H211.34L210.384 208.694H210.237L209.195 208.863H209.079L208.231 209.033L208.038 209.072L207.173 209.28L206.325 209.519L206.186 209.558L205.522 209.766L205.376 209.813C204.874 209.983 204.403 210.168 203.956 210.353L203.817 210.415L203.261 210.654L203.161 210.7L202.536 210.994H202.482L201.942 211.264L201.81 211.333L201.286 211.603L200.622 211.951L200.221 212.159L200.036 212.259L199.488 212.537C194.804 214.853 149.408 227.048 141.452 251.391L141.614 251.538L141.791 251.7C141.66 252.055 141.529 252.41 141.413 252.765C141.413 252.765 142.185 253.459 143.389 254.586C141.251 263.894 135.525 287.682 132.516 288.809C128.773 290.214 124.56 318.771 134.391 317.837C144.222 316.903 144.222 293.965 144.222 293.965C144.222 293.965 150.704 276.583 155.48 267.761C156.304 268.86 156.938 270.089 157.356 271.397V271.497V271.404C157.471 271.806 157.49 272.229 157.41 272.639C157.873 271.281 160.272 265.044 165.28 265.878C170.628 266.773 190.83 246.868 192.744 244.962C192.697 245.479 192.636 246.127 192.574 246.876C192.574 247.316 192.497 247.786 192.458 248.296V248.458V248.844V249.099V249.492V249.77V250.164V250.519L192.419 251.098V251.568V251.9V252.371V252.688V253.182V253.513V254.054V254.362L192.365 255.211V255.327L192.319 256.099V256.369V257.017V257.326V257.99V258.268L192.281 259.04V259.194C192.281 259.528 192.265 259.866 192.234 260.205V260.267C192.234 260.576 192.221 260.884 192.196 261.193V261.463V262.235V262.544C192.196 262.801 192.196 263.058 192.196 263.316V263.578C192.196 264.283 192.173 264.996 192.126 265.716V265.87C192.126 266.174 192.126 266.477 192.126 266.781V267.059C192.126 267.332 192.126 267.604 192.126 267.877V268.163C192.126 268.461 192.126 268.762 192.126 269.066V269.243C192.126 269.979 192.126 270.72 192.126 271.466C192.126 271.543 192.126 271.62 192.126 271.705C192.126 271.993 192.126 272.282 192.126 272.57C192.126 272.668 192.126 272.768 192.126 272.871C192.126 273.143 192.126 273.419 192.126 273.697C192.126 273.774 192.126 273.851 192.126 273.928C192.126 284.139 192.751 294.536 195.043 300.463C196.259 303.65 196.907 307.025 196.957 310.435C196.741 316.601 195.126 322.637 192.234 328.087L192.782 327.917L192.682 328.095L192.983 328.002C192.52 328.967 192.211 329.5 192.211 329.5C192.211 329.5 192.89 329.283 194.102 328.928C192.373 335.026 191.223 344.411 194.549 356.189C194.549 356.189 196.424 366.485 195.02 370.236C193.616 373.987 192.211 403.942 192.211 403.942C192.211 403.942 189.402 407.685 184.255 405.347C179.108 403.008 115.925 395.051 115.925 395.051C115.925 395.051 115.779 395.305 115.532 395.761C113.587 395.151 110.786 394.217 108.741 393.36C109.513 392.295 110.2 391.685 110.779 391.77C110.779 391.77 107.406 390.142 103.733 388.853L103.062 388.621L102.406 388.405H102.36L101.735 388.212H101.665L101.094 388.05H100.979L100.438 387.911H100.299L99.7825 387.795H99.6359L99.1729 387.703H98.9954L98.5787 387.633H98.3781L98 387.587H97.7916H97.4366H96.719H96.4335H96.2483L95.9937 387.641H95.8239L95.6078 387.718L95.4535 387.772C95.3842 387.807 95.3172 387.845 95.2529 387.888L95.1371 387.957C95.0429 388.027 94.9574 388.107 94.8825 388.197C92.5675 391.006 79.4494 444.841 85.5223 448.584L86.0471 448.901L86.2631 449.024L86.5409 449.179L86.811 449.318L87.0039 449.418L87.2971 449.557L87.4437 449.626L87.7447 449.757L87.8527 449.804L88.1614 449.919H88.2308L88.5472 450.02H88.5858C91.9811 450.938 93.1077 447.797 97.2206 441.067C101.249 434.475 106.426 426.163 110.948 423.083C111.049 423.307 111.149 423.531 111.257 423.747C111.257 423.747 158.528 428.895 175.844 434.552C193.16 440.21 206.71 447.674 217.969 434.552C228.047 422.798 238.117 384.677 240.084 376.951L240.378 375.794V375.693V375.593L277.818 404.15L294.201 423.346C294.201 423.346 317.134 455.646 321.347 456.117C325.561 456.588 344.535 487.5 344.535 487.5L345.245 486.728C345.415 487.585 345.546 488.372 345.647 489.043C344.103 492.756 345.531 497.232 346.935 500.181L346.997 500.304L347.159 500.628L347.244 500.798L347.398 501.099L347.475 501.246L347.638 501.555L347.722 501.701L347.846 501.925L347.908 502.041L348.07 502.319L348.139 502.434L348.239 502.596L348.293 502.689L348.417 502.89L348.463 502.967L348.54 503.083V503.137L348.618 503.26L348.664 503.322C348.664 503.322 397.81 491.621 403.891 487.886C404.084 487.77 404.261 487.646 404.431 487.523L404.586 487.399L404.894 487.152L405.049 487.006L405.288 486.782L405.427 486.62L405.612 486.404L405.797 486.319Z" fill="url(#paint2_linear)"/>
<path d="M120.37 394.888C120.37 394.888 109.428 391.693 108.973 390.327C108.518 388.961 99.3967 415.404 99.3967 415.404L108.518 421.787C108.518 421.787 118.094 416.314 123.11 417.225C128.125 418.136 120.37 394.888 120.37 394.888Z" fill="#4C4C56"/>
<path d="M356.064 460.092C356.064 460.092 357.43 472.441 372.477 473.769C387.524 475.096 362.446 486.118 362.446 486.118L343.301 487.484C343.301 487.484 342.845 479.766 339.651 473.807C336.456 467.849 356.064 460.092 356.064 460.092Z" fill="#4C4C56"/>
<path d="M197.875 321.473C197.875 321.473 189.217 334.694 195.143 355.672C195.143 355.672 196.965 365.706 195.599 369.349C194.233 372.992 192.867 402.182 192.867 402.182C192.867 402.182 190.135 405.833 185.151 403.548C180.166 401.264 118.595 393.515 118.595 393.515C118.595 393.515 108.564 410.842 114.035 421.3C114.035 421.3 160.079 426.317 176.948 431.789C193.816 437.262 207.042 444.555 217.977 431.789C228.911 419.023 239.861 374.335 239.861 374.335L276.329 402.12L292.287 420.814C292.287 420.814 314.626 452.274 318.731 452.729C322.837 453.184 341.981 483.278 341.981 483.278L365.231 458.201C365.231 458.201 336.919 442.309 333.732 434.097C330.545 425.885 315.043 402.638 315.043 402.638C315.043 402.638 310.027 384.399 300.914 380.293C300.914 380.293 268.088 341.077 264.901 322.839C261.714 304.6 210.183 313.276 210.183 313.276L197.875 321.473Z" fill="#535461"/>
<path d="M367.461 479.218C367.461 479.218 370.656 471.924 369.776 470.095C368.897 468.266 381.575 474.68 381.575 474.68C381.575 474.68 391.151 478.33 398.898 475.135C398.898 475.135 405.735 480.152 399.809 483.795C393.883 487.438 346.017 498.846 346.017 498.846C346.017 498.846 338.725 488.356 344.651 482.429L367.461 479.218Z" fill="#986365"/>
<path opacity="0.1" d="M333.732 434.097C330.538 425.893 315.043 402.638 315.043 402.638C315.043 402.638 310.027 384.399 300.914 380.293C300.914 380.293 268.088 341.077 264.901 322.839C264.245 319.08 261.529 316.463 257.64 314.68L251.281 333.783L242.6 359.871C240.926 364.903 239.336 370.514 239.513 375.716C239.737 374.852 239.853 374.373 239.853 374.373L276.321 402.159L292.279 420.853C292.279 420.853 314.618 452.312 318.724 452.768C322.829 453.223 341.974 483.316 341.974 483.316L365.223 458.24C365.223 458.24 336.919 442.309 333.732 434.097Z" fill="black"/>
<path d="M272.177 204.286C272.177 204.286 268.319 214.089 273.32 223.212C278.32 232.335 271.267 248.52 266.706 249.454C262.146 250.387 243.912 238.509 242.546 230.76C241.18 223.011 248.472 207.05 244.861 196.56L272.177 204.286Z" fill="#FDC2CC"/>
<path opacity="0.1" d="M247.562 221.159C247.562 221.159 261.691 249.886 277.193 229.363C277.193 229.363 292.696 260.823 287.68 265.839C284.113 269.311 280.305 272.525 276.283 275.456L268.08 332.911C268.08 332.911 221.58 316.95 201.98 319.69L232.075 247.648L247.562 221.159Z" fill="black"/>
<path d="M247.562 219.792C247.562 219.792 261.691 248.52 277.193 227.997C277.193 227.997 292.696 259.456 287.68 264.473C284.112 267.931 280.303 271.132 276.283 274.052L268.08 331.506C268.08 331.506 221.58 315.545 201.98 318.285L232.075 246.243L247.562 219.792Z" fill="#63A1FF"/>
<path d="M146.815 253.073C146.815 253.073 139.098 288.639 135.417 290.005C131.737 291.371 127.701 319.188 137.239 318.277C146.776 317.366 146.815 295.022 146.815 295.022C146.815 295.022 156.846 268.116 160.944 264.921C165.041 261.726 146.815 253.073 146.815 253.073Z" fill="#FDC2CC"/>
<path d="M325.977 269.49C325.977 269.49 346.495 250.341 346.951 247.146C347.406 243.95 359.714 227.541 366.551 232.095C373.388 236.649 361.08 258.083 358.834 258.546C356.589 259.009 329.658 288.647 329.658 288.647L325.977 269.49Z" fill="#FDC2CC"/>
<path opacity="0.1" d="M245.509 212.267C245.509 212.267 243.001 215.231 226.133 213.409C209.265 211.588 205.159 214.776 200.607 217.06C196.054 219.345 151.83 231.192 144.075 254.88C144.075 254.88 161.399 270.385 159.578 274.484C159.578 274.484 161.893 266.766 167.294 267.645C172.696 268.525 194.194 247.123 194.194 247.123C194.194 247.123 190.089 287.258 195.56 301.382C201.031 315.506 192.828 329.654 192.828 329.654C192.828 329.654 231.581 317.305 248.904 323.271C248.904 323.271 258.936 278.127 250.27 259.889C241.605 241.65 253.92 224.323 253.92 224.323L245.509 212.267Z" fill="black"/>
<path opacity="0.1" d="M245.965 210.901C245.965 210.901 243.457 213.865 226.588 212.043C209.72 210.222 205.615 213.409 201.062 215.694C196.509 217.979 152.286 229.826 144.531 253.513C144.531 253.513 161.854 269.019 160.033 273.118C160.033 273.118 162.348 265.399 167.75 266.279C173.151 267.159 194.65 245.757 194.65 245.757C194.65 245.757 190.544 285.891 196.015 300.016C201.486 314.14 193.291 328.311 193.291 328.311C193.291 328.311 232.044 315.962 249.368 321.928C249.368 321.928 259.399 276.784 250.733 258.546C242.068 240.307 254.399 222.972 254.399 222.972L245.965 210.901Z" fill="black"/>
<path d="M245.509 210.901C245.509 210.901 243.001 213.865 226.133 212.043C209.265 210.222 205.159 213.409 200.607 215.694C196.054 217.979 151.83 229.826 144.075 253.513C144.075 253.513 161.399 269.019 159.578 273.118C159.578 273.118 161.893 265.399 167.294 266.279C172.696 267.159 194.194 245.757 194.194 245.757C194.194 245.757 190.089 285.891 195.56 300.016C201.031 314.14 192.828 328.288 192.828 328.288C192.828 328.288 231.581 315.939 248.905 321.905C248.905 321.905 258.936 276.761 250.27 258.523C241.605 240.284 253.943 222.972 253.943 222.972L245.509 210.901Z" fill="#4C495A"/>
<path opacity="0.1" d="M271.043 219.113C271.043 219.113 277.656 228.915 286.769 232.111C295.883 235.306 299.533 254.91 299.533 254.91L313.206 273.604L329.619 265.423C329.619 265.423 330.075 287.767 334.635 287.312C334.635 287.312 323.238 301.907 314.117 302.362C304.996 302.817 279.477 280.859 279.477 280.859C279.477 280.859 276.746 300.927 278.567 310.497C280.388 320.068 267.169 349.258 267.169 349.258L248.935 345.607C248.935 345.607 258.512 309.131 270.364 303.203C270.364 303.203 270.364 278.582 268.543 272.655C266.722 266.727 280.396 244.383 278.575 239.821C277.548 237.266 273.536 231.794 271.506 226.824C270.575 224.36 270.413 221.671 271.043 219.113Z" fill="black"/>
<path opacity="0.1" d="M272.409 218.195C272.409 218.195 279.022 227.997 288.135 231.192C297.249 234.388 300.898 253.992 300.898 253.992L314.572 272.686L330.985 264.481C330.985 264.481 331.44 286.825 336.001 286.37C336.001 286.37 324.604 300.965 315.483 301.421C306.362 301.876 280.835 279.987 280.835 279.987C280.835 279.987 278.104 300.054 279.925 309.625C281.746 319.196 268.528 348.386 268.528 348.386L250.293 344.735C250.293 344.735 259.87 308.259 271.722 302.331C271.722 302.331 271.722 277.71 269.901 271.782C268.08 265.855 281.754 243.511 279.933 238.949C278.906 236.394 274.894 230.922 272.864 225.952C271.926 223.473 271.767 220.766 272.409 218.195Z" fill="black"/>
<path d="M271.498 218.195C271.498 218.195 278.112 227.997 287.225 231.192C296.338 234.388 299.988 253.992 299.988 253.992L313.669 272.686L330.082 264.481C330.082 264.481 330.538 286.825 335.098 286.37C335.098 286.37 323.701 300.965 314.58 301.421C305.459 301.876 279.933 279.987 279.933 279.987C279.933 279.987 277.201 300.054 279.022 309.625C280.843 319.196 267.625 348.386 267.625 348.386L249.391 344.735C249.391 344.735 258.967 308.259 270.819 302.331C270.819 302.331 270.819 277.71 268.998 271.782C267.177 265.855 280.851 243.511 279.03 238.949C278.003 236.394 273.991 230.922 271.961 225.952C271.02 223.474 270.859 220.767 271.498 218.195Z" fill="#4C495A"/>
<path opacity="0.05" d="M272.27 218.967C272.27 218.967 278.883 228.769 287.996 231.964C297.11 235.159 300.76 254.764 300.76 254.764L314.441 273.457L330.854 265.253C330.854 265.253 331.309 287.597 335.87 287.142C335.87 287.142 324.472 301.737 315.351 302.192C306.231 302.648 280.704 280.759 280.704 280.759C280.704 280.759 277.973 300.826 279.794 310.397C281.615 319.967 268.396 349.158 268.396 349.158L250.162 345.507C250.162 345.507 259.738 309.031 271.591 303.103C271.591 303.103 271.591 278.482 269.77 272.554C267.949 266.627 281.623 244.282 279.801 239.721C278.775 237.166 274.763 231.694 272.733 226.723C271.792 224.245 271.631 221.539 272.27 218.967Z" fill="black"/>
<path d="M113.533 390.327C113.533 390.327 100.315 383.944 98.0308 386.676C95.7467 389.408 82.9836 441.846 88.9099 445.497C94.8362 449.148 95.2915 446.408 100.307 438.203C105.323 429.999 112.16 419.054 117.176 419.51C117.176 419.51 102.584 414.493 103.047 412.671C103.51 410.85 110.346 389.872 113.533 390.327Z" fill="#986365"/>
<path opacity="0.1" d="M245.656 208.308C249.268 211.045 253.614 212.644 258.139 212.898C262.664 213.152 267.162 212.051 271.059 209.736C271.279 208.183 271.656 206.657 272.185 205.182L244.83 197.464C245.957 200.682 246.034 204.449 245.656 208.308Z" fill="black"/>
<path d="M262.57 190.471C268.126 190.949 274.917 189.907 276.962 186.125C277.556 185.037 277.679 183.81 278.281 182.753C280.025 179.619 285.01 178.338 289.015 176.578C293.063 174.925 296.609 172.244 299.301 168.798C297.731 168.405 296.085 168.44 294.532 168.898C294.339 166.791 296.77 164.383 294.88 162.778C293.707 161.782 291.523 161.875 289.848 162.369C288.174 162.863 286.661 163.673 284.879 163.912C281.792 164.291 278.868 162.793 276.661 161.172C274.454 159.552 272.386 157.661 269.438 156.896C263.589 155.353 257.778 158.865 251.906 160.331C239.861 163.349 234.019 166.621 237.291 177.095C239.714 184.852 252.462 189.599 262.57 190.471Z" fill="#865A61"/>
<path d="M259.414 212.036C272.004 212.036 282.209 201.828 282.209 189.236C282.209 176.644 272.004 166.436 259.414 166.436C246.825 166.436 236.62 176.644 236.62 189.236C236.62 201.828 246.825 212.036 259.414 212.036Z" fill="#FDC2CC"/>
<path opacity="0.1" d="M241.697 185.763C242.801 181.286 245.988 177.111 250.425 175.868C254.198 174.81 258.211 175.961 261.899 177.296C265.588 178.631 269.346 180.19 273.258 179.959C277.17 179.727 281.275 177.026 281.569 173.12C281.639 172.516 281.541 171.904 281.283 171.353C280.885 170.704 280.323 170.172 279.655 169.809C273.921 166.151 267.401 163.272 260.603 163.38C255.008 163.472 249.661 165.572 244.46 167.64C237.901 170.249 230.439 173.9 229.088 180.831C228.317 184.921 229.945 189.082 231.944 192.74C233.101 194.855 238.703 205.954 242.407 204.124C243.904 203.414 240.987 188.634 241.697 185.763Z" fill="black"/>
<path d="M242.608 184.852C243.711 180.375 246.898 176.2 251.335 174.957C255.109 173.9 259.121 175.05 262.81 176.385C266.498 177.72 270.256 179.279 274.168 179.048C278.081 178.816 282.186 176.115 282.479 172.209C282.55 171.605 282.451 170.993 282.194 170.442C281.795 169.794 281.234 169.261 280.565 168.898C274.832 165.24 268.312 162.361 261.513 162.469C255.919 162.562 250.571 164.661 245.37 166.729C238.811 169.338 231.349 172.989 229.999 179.92C229.227 184.011 230.855 188.171 232.854 191.829C234.012 193.944 239.614 205.043 243.318 203.214C244.815 202.504 241.906 187.723 242.608 184.852Z" fill="#865A61"/>
<path opacity="0.5" d="M90.2834 445.96C84.3571 442.309 97.1203 389.872 99.4044 387.139C100.4 385.943 103.502 386.491 106.673 387.494C103.077 386.236 99.1806 385.31 98.0385 386.722C95.7236 389.455 82.9913 441.893 88.9176 445.543C89.9253 446.229 91.0421 446.737 92.2203 447.048C91.5512 446.729 90.9042 446.365 90.2834 445.96Z" fill="white"/>
<path opacity="0.5" d="M401.491 477.937C402.108 479.48 401.923 481.325 399.369 482.892C393.443 486.543 345.577 497.942 345.577 497.942C345.101 497.229 344.666 496.49 344.273 495.727C344.782 496.811 345.37 497.856 346.032 498.853C346.032 498.853 393.875 487.453 399.824 483.803C402.888 481.919 402.541 479.666 401.491 477.937Z" fill="white"/>
<g opacity="0.05">
<path opacity="0.05" d="M162.016 268.572C158.228 262.474 147.764 253.073 147.764 253.073C155.48 229.363 199.735 217.508 204.295 215.254C206.811 213.996 209.187 212.46 213.648 211.642C206.703 212.151 203.778 214.143 200.653 215.709C196.093 218.025 151.877 229.842 144.122 253.529C144.122 253.529 160.774 268.433 159.701 272.878C160.22 271.32 161.003 269.863 162.016 268.572Z" fill="black"/>
<path opacity="0.05" d="M159.663 272.886L159.578 273.141C159.614 273.059 159.642 272.974 159.663 272.886Z" fill="black"/>
<path opacity="0.05" d="M246.034 211.65L245.509 210.878C245.509 210.878 244.93 211.557 242.477 212.066C243.67 212.008 244.859 211.868 246.034 211.65Z" fill="black"/>
<path opacity="0.05" d="M167.827 266.326C168.516 266.26 169.19 266.078 169.818 265.785C169.124 265.824 168.445 266.008 167.827 266.326Z" fill="black"/>
<path opacity="0.05" d="M227.136 320.901C235.292 320.006 243.256 319.991 248.928 321.928C248.928 321.928 249.036 321.449 249.213 320.593C242.994 319.381 235.007 319.805 227.136 320.901Z" fill="black"/>
<path opacity="0.05" d="M196.903 327.115C198.446 324.027 203.979 311.817 199.218 299.584C193.747 285.451 197.852 245.324 197.852 245.324C197.852 245.324 196.309 246.868 193.901 249.183C193.06 259.132 191.069 288.423 195.576 300.07C201.047 314.202 192.844 328.342 192.844 328.342C192.844 328.342 194.364 327.832 196.903 327.115Z" fill="black"/>
</g>
<path opacity="0.1" d="M605.416 474.849C599.922 477.682 594.165 480.129 588.486 482.568C567.505 491.428 546.207 500.366 523.667 503.407C481.365 509.111 437.674 493.666 396.09 503.276C361.249 511.318 332.436 535.962 298.398 546.938C282.572 552.04 266.105 554.039 249.491 554.039H247.307C245.249 554.013 243.207 553.961 241.18 553.884C224.335 553.251 207.42 550.758 190.907 547.571C138.766 537.537 85.6998 519.144 45.8362 485.284C161.916 464.036 401.013 431.481 605.416 474.849Z" fill="#252223" fill-opacity="0.42"/>
<path d="M482.26 342.389C482.26 342.389 497.246 357.378 488.788 379.622C480.331 401.866 503.295 438.859 503.295 438.859L502.593 438.744C471.812 433.341 456.518 398.099 473.633 371.942C479.991 362.209 485.215 350.802 482.26 342.389Z" fill="#63A1FF"/>
<path d="M482.26 342.389C482.26 342.389 490.748 360.766 482.26 375.755C473.772 390.744 480.809 432.816 503.288 438.859" stroke="#535461" stroke-miterlimit="10"/>
<path d="M455.569 403.016C455.569 403.016 472.668 400.291 474.227 415.62C475.786 430.948 507.115 433.071 507.115 433.071L506.529 433.464C480.663 450.444 455.939 444.27 459.666 421.732C461.055 413.35 460.932 404.93 455.569 403.016Z" fill="#63A1FF"/>
<path opacity="0.2" d="M455.569 403.016C455.569 403.016 472.668 400.291 474.227 415.62C475.786 430.948 507.115 433.071 507.115 433.071L506.529 433.464C480.663 450.444 455.939 444.27 459.666 421.732C461.055 413.35 460.932 404.93 455.569 403.016Z" fill="#F5F5F5"/>
<path d="M455.569 403.016C455.569 403.016 468.841 405.933 467.753 418.005C466.665 430.076 487.469 444.548 507.107 433.078" stroke="#535461" stroke-miterlimit="10"/>
<path d="M520.935 435.996C520.935 435.996 510.179 433.842 507.316 430.979C504.453 428.115 491.543 423.091 490.108 426.68C488.673 430.269 470.747 442.456 482.939 444.609C495.131 446.763 511.622 447.481 515.202 446.045C518.782 444.609 520.935 435.996 520.935 435.996Z" fill="#A8A8A8"/>
<path opacity="0.2" d="M482.931 443.266C495.124 445.42 511.614 446.138 515.194 444.702C517.926 443.606 519.824 438.365 520.596 435.919L520.951 435.996C520.951 435.996 518.798 444.602 515.217 446.029C511.637 447.457 495.154 446.747 482.955 444.594C479.436 443.976 478.433 442.518 478.811 440.665C479.089 441.877 480.346 442.803 482.931 443.266Z" fill="black"/>
<path d="M715.901 454.52C715.901 454.52 726.095 419.888 713.988 394.402C708.841 383.744 707.289 371.703 709.566 360.087C710.689 354.581 712.313 349.189 714.42 343.979" stroke="#535461" stroke-width="2" stroke-miterlimit="10"/>
<path d="M706.888 327.848C706.888 332.093 714.605 344.396 714.605 344.396C714.605 344.396 722.321 332.085 722.321 327.848C722.139 325.936 721.252 324.161 719.831 322.869C718.411 321.577 716.56 320.861 714.64 320.861C712.72 320.861 710.869 321.577 709.448 322.869C708.028 324.161 707.14 325.936 706.958 327.848H706.888Z" fill="#63A1FF"/>
<path d="M694.187 351.358C696.502 354.923 709.62 361.075 709.62 361.075C709.62 361.075 709.381 346.565 707.074 343.006C705.884 341.494 704.173 340.48 702.275 340.163C700.378 339.847 698.43 340.251 696.815 341.297C695.2 342.342 694.033 343.954 693.544 345.815C693.055 347.676 693.279 349.653 694.172 351.358H694.187Z" fill="#63A1FF"/>
<path d="M694.742 391.531C698.531 393.445 712.977 392.125 712.977 392.125C712.977 392.125 705.445 379.722 701.657 377.808C700.748 377.246 699.732 376.879 698.674 376.731C697.616 376.582 696.538 376.655 695.51 376.945C694.481 377.234 693.524 377.734 692.699 378.413C691.874 379.092 691.198 379.935 690.716 380.888C690.233 381.842 689.954 382.885 689.896 383.952C689.837 385.019 690.001 386.087 690.377 387.088C690.752 388.088 691.332 389 692.078 389.764C692.824 390.529 693.721 391.131 694.712 391.531H694.742Z" fill="#63A1FF"/>
<path d="M702.004 421.833C705.414 424.357 719.875 425.499 719.875 425.499C719.875 425.499 714.551 412 711.14 409.476C709.496 408.492 707.545 408.155 705.666 408.53C703.787 408.906 702.115 409.967 700.975 411.508C699.835 413.048 699.309 414.958 699.499 416.865C699.69 418.772 700.582 420.54 702.004 421.825V421.833Z" fill="#63A1FF"/>
<path d="M725.732 361.901C722.692 364.857 708.509 367.921 708.509 367.921C708.509 367.921 711.981 353.835 715.022 350.879C716.519 349.672 718.412 349.067 720.332 349.184C722.251 349.3 724.058 350.129 725.398 351.508C726.738 352.887 727.515 354.717 727.577 356.64C727.639 358.562 726.981 360.438 725.732 361.901Z" fill="#63A1FF"/>
<path d="M733.804 397.443C730.015 399.357 715.569 398.037 715.569 398.037C715.569 398.037 723.101 385.634 726.89 383.72C727.799 383.158 728.814 382.792 729.872 382.643C730.93 382.494 732.008 382.567 733.036 382.857C734.065 383.146 735.022 383.646 735.847 384.325C736.672 385.004 737.348 385.847 737.83 386.801C738.313 387.754 738.592 388.797 738.65 389.865C738.709 390.932 738.545 391.999 738.169 393C737.794 394 737.215 394.912 736.468 395.677C735.722 396.442 734.825 397.043 733.835 397.443H733.804Z" fill="#63A1FF"/>
<path d="M736.883 433.063C733.472 435.587 719.011 436.729 719.011 436.729C719.011 436.729 724.335 423.23 727.746 420.706C729.39 419.722 731.342 419.385 733.221 419.76C735.1 420.136 736.772 421.197 737.912 422.738C739.051 424.278 739.577 426.188 739.387 428.095C739.197 430.002 738.304 431.77 736.883 433.055V433.063Z" fill="#63A1FF"/>
<path d="M738.079 451.131C738.079 451.131 719.443 447.403 714.474 442.433C709.504 437.462 687.142 428.764 684.657 434.977C682.172 441.19 651.113 462.315 672.233 466.043C693.354 469.771 721.928 471.014 728.132 468.528C734.336 466.043 738.079 451.131 738.079 451.131Z" fill="#A8A8A8"/>
<path opacity="0.2" d="M672.241 463.735C693.361 467.463 721.936 468.706 728.14 466.22C732.87 464.329 736.157 455.237 737.454 451L738.079 451.131C738.079 451.131 734.352 466.043 728.14 468.528C721.928 471.014 693.354 469.771 672.241 466.043C666.145 464.97 664.401 462.439 665.057 459.243C665.582 461.327 667.704 462.932 672.241 463.735Z" fill="black"/>
</g>
<defs>
<linearGradient id="paint0_linear" x1="499.9" y1="104.574" x2="499.9" y2="-2.61769e-05" gradientUnits="userSpaceOnUse">
<stop stop-color="#808080" stop-opacity="0.25"/>
<stop offset="0.54" stop-color="#808080" stop-opacity="0.12"/>
<stop offset="1" stop-color="#808080" stop-opacity="0.1"/>
</linearGradient>
<linearGradient id="paint1_linear" x1="184.848" y1="389.583" x2="184.848" y2="389.494" gradientUnits="userSpaceOnUse">
<stop stop-color="#808080" stop-opacity="0.25"/>
<stop offset="0.54" stop-color="#808080" stop-opacity="0.12"/>
<stop offset="1" stop-color="#808080" stop-opacity="0.1"/>
</linearGradient>
<linearGradient id="paint2_linear" x1="141240" y1="261358" x2="141240" y2="101356" gradientUnits="userSpaceOnUse">
<stop stop-color="#808080" stop-opacity="0.25"/>
<stop offset="0.54" stop-color="#808080" stop-opacity="0.12"/>
<stop offset="1" stop-color="#808080" stop-opacity="0.1"/>
</linearGradient>
<clipPath id="clip0">
<rect width="740" height="554" fill="white"/>
</clipPath>
</defs>
</svg>
