<svg width="282" height="132" viewBox="0 0 282 132" fill="none" xmlns="http://www.w3.org/2000/svg">
<path d="M74.725 112.899L80.8895 115.911L77.6662 109.859L82.4442 105.008L75.7437 106.19L72.44 99.9396L71.4731 106.943L64.7727 108.124L70.9217 111.049L69.9627 117.838L74.725 112.899Z" fill="#F7F7F7"/>
<path d="M109.658 63.0089L115.823 66.0216L112.599 59.9697L117.377 55.1186L110.677 56.3001L107.373 50.0498L106.406 57.0531L99.7058 58.2346L105.855 61.1589L104.896 67.9483L109.658 63.0089Z" fill="#F7F7F7"/>
<path d="M59.4821 26.4559L65.6466 29.4686L62.4233 23.4167L67.2012 18.5657L60.5008 19.7471L57.197 13.4969L56.2302 20.5002L49.5298 21.6816L55.6787 24.606L54.7197 31.3953L59.4821 26.4559Z" fill="#F7F7F7"/>
<path d="M23.8214 77.385L29.9859 80.3977L26.7627 74.3458L31.5406 69.4947L24.8402 70.6762L21.5364 64.4259L20.5696 71.4292L13.8692 72.6107L20.0181 75.5351L19.0591 82.3244L23.8214 77.385Z" fill="#F7F7F7"/>
<g clip-path="url(#clip0)">
<path d="M56.9627 71.0015L62.7124 62.79L42.3477 48.5521C39.1782 53.0786 40.2786 59.3192 44.8094 62.5133L56.9627 71.0015ZM72.8992 63.588C76.982 64.6739 82.0678 62.5054 85.2982 57.8919C89.1787 52.3499 88.8997 45.4304 84.6344 42.4438C80.3981 39.4775 73.7961 41.5572 69.8908 47.1036C66.6604 51.7171 66.3622 57.2378 68.779 60.703L48.9496 89.0223L53.0408 91.887L67.0479 71.9445L87.0107 85.9226L89.8754 81.8314L69.9126 67.8533L72.8992 63.588Z" fill="#F7F7F7"/>
</g>
<path d="M163.524 56.6589V77.0589H160.924C160.35 77.0589 159.984 76.7856 159.824 76.2389L159.504 74.3389C159.077 74.7922 158.624 75.2056 158.144 75.5789C157.677 75.9522 157.177 76.2722 156.644 76.5389C156.11 76.8056 155.537 77.0122 154.924 77.1589C154.324 77.3056 153.677 77.3789 152.984 77.3789C151.864 77.3789 150.877 77.1922 150.024 76.8189C149.17 76.4456 148.45 75.9189 147.864 75.2389C147.29 74.5589 146.857 73.7456 146.564 72.7989C146.27 71.8389 146.124 70.7856 146.124 69.6389V56.6589H150.424V69.6389C150.424 71.0122 150.737 72.0789 151.364 72.8389C152.004 73.5989 152.97 73.9789 154.264 73.9789C155.21 73.9789 156.09 73.7656 156.904 73.3389C157.73 72.8989 158.504 72.2989 159.224 71.5389V56.6589H163.524ZM172.806 60.4389C173.446 59.1456 174.219 58.1322 175.126 57.3989C176.032 56.6522 177.119 56.2789 178.386 56.2789C178.826 56.2789 179.239 56.3322 179.626 56.4389C180.012 56.5322 180.359 56.6789 180.666 56.8789L180.366 60.1189C180.312 60.3456 180.226 60.5056 180.106 60.5989C179.999 60.6789 179.852 60.7189 179.666 60.7189C179.466 60.7189 179.179 60.6856 178.806 60.6189C178.432 60.5389 178.039 60.4989 177.626 60.4989C177.026 60.4989 176.492 60.5856 176.026 60.7589C175.572 60.9322 175.159 61.1856 174.786 61.5189C174.426 61.8522 174.106 62.2589 173.826 62.7389C173.546 63.2189 173.286 63.7656 173.046 64.3789V77.0589H168.746V56.6589H171.246C171.699 56.6589 172.012 56.7456 172.186 56.9189C172.359 57.0789 172.479 57.3656 172.546 57.7789L172.806 60.4389ZM188.66 52.0389V61.2589H199.92V65.0389H188.66V77.0589H183.96V48.2589H201.92V52.0389H188.66ZM212.839 56.3389C214.346 56.3389 215.706 56.5856 216.919 57.0789C218.146 57.5722 219.186 58.2722 220.039 59.1789C220.906 60.0856 221.572 61.1856 222.039 62.4789C222.506 63.7722 222.739 65.2256 222.739 66.8389C222.739 68.4522 222.506 69.9056 222.039 71.1989C221.572 72.4922 220.906 73.5989 220.039 74.5189C219.186 75.4256 218.146 76.1256 216.919 76.6189C215.706 77.1122 214.346 77.3589 212.839 77.3589C211.319 77.3589 209.946 77.1122 208.719 76.6189C207.506 76.1256 206.466 75.4256 205.599 74.5189C204.732 73.5989 204.066 72.4922 203.599 71.1989C203.132 69.9056 202.899 68.4522 202.899 66.8389C202.899 65.2256 203.132 63.7722 203.599 62.4789C204.066 61.1856 204.732 60.0856 205.599 59.1789C206.466 58.2722 207.506 57.5722 208.719 57.0789C209.946 56.5856 211.319 56.3389 212.839 56.3389ZM212.839 73.9989C214.679 73.9989 216.046 73.3856 216.939 72.1589C217.846 70.9189 218.299 69.1522 218.299 66.8589C218.299 64.5656 217.846 62.7989 216.939 61.5589C216.046 60.3056 214.679 59.6789 212.839 59.6789C210.972 59.6789 209.586 60.3056 208.679 61.5589C207.772 62.7989 207.319 64.5656 207.319 66.8589C207.319 69.1522 207.772 70.9189 208.679 72.1589C209.586 73.3856 210.972 73.9989 212.839 73.9989ZM235.691 56.3389C237.197 56.3389 238.557 56.5856 239.771 57.0789C240.997 57.5722 242.037 58.2722 242.891 59.1789C243.757 60.0856 244.424 61.1856 244.891 62.4789C245.357 63.7722 245.591 65.2256 245.591 66.8389C245.591 68.4522 245.357 69.9056 244.891 71.1989C244.424 72.4922 243.757 73.5989 242.891 74.5189C242.037 75.4256 240.997 76.1256 239.771 76.6189C238.557 77.1122 237.197 77.3589 235.691 77.3589C234.171 77.3589 232.797 77.1122 231.571 76.6189C230.357 76.1256 229.317 75.4256 228.451 74.5189C227.584 73.5989 226.917 72.4922 226.451 71.1989C225.984 69.9056 225.751 68.4522 225.751 66.8389C225.751 65.2256 225.984 63.7722 226.451 62.4789C226.917 61.1856 227.584 60.0856 228.451 59.1789C229.317 58.2722 230.357 57.5722 231.571 57.0789C232.797 56.5856 234.171 56.3389 235.691 56.3389ZM235.691 73.9989C237.531 73.9989 238.897 73.3856 239.791 72.1589C240.697 70.9189 241.151 69.1522 241.151 66.8589C241.151 64.5656 240.697 62.7989 239.791 61.5589C238.897 60.3056 237.531 59.6789 235.691 59.6789C233.824 59.6789 232.437 60.3056 231.531 61.5589C230.624 62.7989 230.171 64.5656 230.171 66.8589C230.171 69.1522 230.624 70.9189 231.531 72.1589C232.437 73.3856 233.824 73.9989 235.691 73.9989ZM262.742 61.6789C262.142 60.9056 261.482 60.3656 260.762 60.0589C260.042 59.7522 259.262 59.5989 258.422 59.5989C256.742 59.5989 255.429 60.2189 254.482 61.4589C253.535 62.6856 253.062 64.5056 253.062 66.9189C253.062 68.1722 253.169 69.2456 253.382 70.1389C253.595 71.0189 253.902 71.7389 254.302 72.2989C254.702 72.8589 255.189 73.2656 255.762 73.5189C256.335 73.7722 256.982 73.8989 257.702 73.8989C258.795 73.8989 259.735 73.6656 260.522 73.1989C261.322 72.7189 262.062 72.0456 262.742 71.1789V61.6789ZM267.042 47.4589V77.0589H264.442C263.869 77.0589 263.502 76.7856 263.342 76.2389L262.962 74.0189C262.109 75.0189 261.135 75.8256 260.042 76.4389C258.962 77.0522 257.702 77.3589 256.262 77.3589C255.115 77.3589 254.075 77.1322 253.142 76.6789C252.209 76.2122 251.409 75.5389 250.742 74.6589C250.075 73.7789 249.555 72.6922 249.182 71.3989C248.822 70.0922 248.642 68.5989 248.642 66.9189C248.642 65.3989 248.842 63.9922 249.242 62.6989C249.655 61.4056 250.242 60.2856 251.002 59.3389C251.762 58.3789 252.682 57.6322 253.762 57.0989C254.855 56.5522 256.075 56.2789 257.422 56.2789C258.622 56.2789 259.642 56.4722 260.482 56.8589C261.322 57.2322 262.075 57.7589 262.742 58.4389V47.4589H267.042Z" fill="#F7F7F7"/>
<defs>
<clipPath id="clip0">
<rect width="60.1125" height="60.1125" fill="white" transform="translate(31.1809 41.6194) rotate(-10)"/>
</clipPath>
</defs>
</svg>
