<svg width="634" height="596" viewBox="0 0 634 596" fill="none" xmlns="http://www.w3.org/2000/svg">
<g clip-path="url(#clip0)">
<g opacity="0.5">
<path opacity="0.5" d="M374.059 37.5425L121.658 38.156C118.908 38.162 116.272 39.261 114.331 41.211C112.39 43.161 111.303 45.8024 111.309 48.5541L112.457 520.767C112.464 523.519 113.564 526.155 115.515 528.096C117.465 530.036 120.106 531.122 122.857 531.115L375.257 530.502C376.619 530.499 377.968 530.227 379.225 529.703C380.482 529.179 381.624 528.412 382.585 527.447C383.546 526.481 384.307 525.336 384.826 524.076C385.344 522.816 385.61 521.466 385.607 520.103L384.459 47.8902C384.451 45.1385 383.352 42.5024 381.401 40.5619C379.451 38.6213 376.81 37.5352 374.059 37.5425Z" fill="url(#paint0_linear)"/>
</g>
<path d="M370.407 43.9936L125.341 44.5895C119.625 44.6034 115.002 49.2501 115.016 54.9682L116.132 514.113C116.146 519.831 120.791 524.455 126.507 524.441L371.573 523.845C377.29 523.831 381.913 519.185 381.899 513.467L380.783 54.3219C380.769 48.6038 376.124 43.9797 370.407 43.9936Z" fill="white"/>
<path opacity="0.3" d="M314.667 56.1589C313.91 61.2489 311.358 65.9002 307.471 69.2718C303.585 72.6434 298.621 74.5127 293.476 74.5418L201.679 74.7651C196.535 74.761 191.562 72.9158 187.659 69.5632C183.756 66.2105 181.181 61.5717 180.4 56.4854L131.777 56.6036C129.1 56.6101 126.535 57.6802 124.646 59.5784C122.758 61.4765 121.701 64.0473 121.707 66.7253L122.766 502.323C122.769 503.649 123.033 504.962 123.543 506.186C124.054 507.409 124.8 508.521 125.739 509.456C126.679 510.391 127.794 511.132 129.02 511.637C130.245 512.141 131.559 512.399 132.884 512.396L365.138 511.831C366.463 511.828 367.775 511.564 368.999 511.053C370.222 510.543 371.333 509.796 372.268 508.857C373.203 507.917 373.944 506.802 374.448 505.575C374.953 504.349 375.211 503.036 375.207 501.71L374.149 66.1114C374.146 64.7855 373.881 63.4731 373.371 62.2493C372.861 61.0255 372.114 59.9142 371.175 58.9789C370.235 58.0436 369.121 57.3025 367.895 56.7981C366.669 56.2936 365.356 56.0356 364.03 56.0388L314.667 56.1589Z" fill="#63A1FF"/>
<path d="M53.1008 85.7998L414.542 381.9L419.29 139.572L11.0897 125.103L75.5498 186.937L484.384 218.363L58.5504 325.714L444.174 450.922L442.729 498.365L44.8122 474.703L56.8607 594.354L231.594 578.759L325.304 0.243042" stroke="white" stroke-width="4" stroke-miterlimit="10"/>
<path d="M273.579 61.6604L217.398 62.5052C216.56 62.5179 215.89 63.2079 215.903 64.0466L215.913 64.7118C215.926 65.5504 216.615 66.22 217.454 66.2074L273.635 65.3625C274.474 65.3499 275.143 64.6599 275.13 63.8212L275.12 63.156C275.108 62.3174 274.418 61.6478 273.579 61.6604Z" fill="#DBDBDB"/>
<path d="M287.703 65.1506C288.93 65.1506 289.924 64.156 289.924 62.9291C289.924 61.7021 288.93 60.7075 287.703 60.7075C286.477 60.7075 285.483 61.7021 285.483 62.9291C285.483 64.156 286.477 65.1506 287.703 65.1506Z" fill="#DBDBDB"/>
<g opacity="0.5">
<path opacity="0.5" d="M77.5765 99.2892H75.2992V112.198H77.5765V99.2892Z" fill="#47E6B1"/>
<path opacity="0.5" d="M82.8903 106.882V104.604H69.9855V106.882H82.8903Z" fill="#47E6B1"/>
</g>
<g opacity="0.5">
<path opacity="0.5" d="M95.795 180.219H93.5177V193.128H95.795V180.219Z" fill="#47E6B1"/>
<path opacity="0.5" d="M101.109 187.813V185.535H88.204V187.813H101.109Z" fill="#47E6B1"/>
</g>
<g opacity="0.5">
<path opacity="0.5" d="M444.983 74.9908H442.706V87.8993H444.983V74.9908Z" fill="#47E6B1"/>
<path opacity="0.5" d="M450.297 82.5841V80.3062H437.392V82.5841H450.297Z" fill="#47E6B1"/>
</g>
<g opacity="0.5">
<path opacity="0.5" d="M628.686 122.511H626.409V135.419H628.686V122.511Z" fill="#47E6B1"/>
<path opacity="0.5" d="M634 130.104V127.826H621.095V130.104H634Z" fill="#47E6B1"/>
</g>
<path opacity="0.5" d="M9.32912 174.377C8.70154 174.104 8.19637 173.609 7.90978 172.987C7.62318 172.365 7.57517 171.66 7.77487 171.005C7.80719 170.904 7.82755 170.8 7.83553 170.695C7.85379 170.395 7.77495 170.097 7.61068 169.846C7.44641 169.594 7.20545 169.402 6.92349 169.298C6.64154 169.194 6.33357 169.183 6.04522 169.268C5.75687 169.353 5.50347 169.528 5.32255 169.768C5.26034 169.853 5.20839 169.945 5.16778 170.043C4.89445 170.671 4.39991 171.176 3.77828 171.463C3.15665 171.749 2.45134 171.797 1.7966 171.597C1.69622 171.565 1.59238 171.545 1.48723 171.537C1.18725 171.519 0.889369 171.597 0.637706 171.762C0.386043 171.926 0.193991 172.167 0.0899799 172.449C-0.0140315 172.731 -0.0244622 173.039 0.0602347 173.328C0.144932 173.616 0.320243 173.87 0.560215 174.05C0.64536 174.113 0.737546 174.165 0.83486 174.205C1.46244 174.479 1.96762 174.973 2.25422 175.595C2.54082 176.217 2.58883 176.923 2.38913 177.577C2.35681 177.678 2.33645 177.782 2.32847 177.887C2.3102 178.187 2.38905 178.485 2.55332 178.737C2.71759 178.988 2.95854 179.181 3.2405 179.285C3.52246 179.389 3.83042 179.399 4.11877 179.314C4.40712 179.23 4.66053 179.054 4.84145 178.814C4.90366 178.729 4.95562 178.637 4.99623 178.539C5.26955 177.912 5.7641 177.406 6.38573 177.12C7.00736 176.833 7.71267 176.785 8.36741 176.985C8.46779 177.017 8.57163 177.037 8.67678 177.045C8.97675 177.064 9.27463 176.985 9.52629 176.821C9.77795 176.656 9.97001 176.415 10.074 176.133C10.178 175.851 10.1885 175.543 10.1038 175.255C10.0191 174.966 9.84375 174.713 9.60378 174.532C9.51863 174.469 9.42645 174.418 9.32912 174.377Z" fill="#4D8AF0"/>
<path opacity="0.5" d="M583.212 319.408C582.584 319.134 582.079 318.64 581.793 318.018C581.506 317.396 581.458 316.69 581.658 316.036C581.69 315.935 581.71 315.831 581.718 315.726C581.737 315.426 581.658 315.128 581.494 314.876C581.329 314.625 581.088 314.432 580.806 314.328C580.524 314.224 580.216 314.214 579.928 314.299C579.64 314.383 579.386 314.559 579.205 314.799C579.143 314.884 579.091 314.976 579.051 315.074C578.777 315.701 578.283 316.207 577.661 316.493C577.04 316.78 576.334 316.828 575.68 316.628C575.579 316.596 575.475 316.576 575.37 316.568C575.07 316.549 574.772 316.628 574.521 316.792C574.269 316.957 574.077 317.198 573.973 317.48C573.869 317.762 573.858 318.07 573.943 318.358C574.028 318.647 574.203 318.9 574.443 319.081C574.528 319.144 574.62 319.195 574.718 319.236C575.345 319.51 575.851 320.004 576.137 320.626C576.424 321.248 576.472 321.953 576.272 322.608C576.24 322.709 576.219 322.813 576.211 322.918C576.193 323.218 576.272 323.516 576.436 323.767C576.601 324.019 576.841 324.211 577.123 324.315C577.405 324.419 577.713 324.43 578.002 324.345C578.29 324.26 578.543 324.085 578.724 323.845C578.787 323.76 578.839 323.668 578.879 323.57C579.152 322.943 579.647 322.437 580.269 322.151C580.89 321.864 581.596 321.816 582.25 322.016C582.351 322.048 582.455 322.068 582.56 322.076C582.86 322.095 583.158 322.016 583.409 321.851C583.661 321.687 583.853 321.446 583.957 321.164C584.061 320.882 584.071 320.574 583.987 320.285C583.902 319.997 583.727 319.744 583.487 319.563C583.402 319.5 583.309 319.448 583.212 319.408Z" fill="#4D8AF0"/>
<path opacity="0.5" d="M542.98 87.814C542.352 87.5406 541.847 87.046 541.56 86.4241C541.274 85.8023 541.226 85.0968 541.425 84.4419C541.458 84.3415 541.478 84.2376 541.486 84.1324C541.504 83.8324 541.425 83.5344 541.261 83.2827C541.097 83.0309 540.856 82.8388 540.574 82.7348C540.292 82.6307 539.984 82.6203 539.696 82.705C539.407 82.7897 539.154 82.9651 538.973 83.2052C538.911 83.2903 538.859 83.3825 538.818 83.4799C538.545 84.1076 538.05 84.613 537.429 84.8996C536.807 85.1863 536.102 85.2344 535.447 85.0346C535.347 85.0023 535.243 84.9819 535.138 84.9739C534.838 84.9556 534.54 85.0345 534.288 85.1988C534.037 85.3631 533.845 85.6042 533.74 85.8862C533.636 86.1683 533.626 86.4763 533.711 86.7647C533.795 87.0532 533.971 87.3066 534.211 87.4876C534.296 87.5498 534.388 87.6018 534.485 87.6424C535.113 87.9158 535.618 88.4105 535.905 89.0323C536.191 89.6542 536.239 90.3597 536.04 91.0146C536.007 91.115 535.987 91.2189 535.979 91.3241C535.961 91.6241 536.04 91.9221 536.204 92.1738C536.368 92.4256 536.609 92.6177 536.891 92.7217C537.173 92.8258 537.481 92.8362 537.769 92.7515C538.058 92.6668 538.311 92.4914 538.492 92.2513C538.554 92.1662 538.606 92.074 538.647 91.9766C538.92 91.3489 539.415 90.8435 540.036 90.5569C540.658 90.2702 541.363 90.2221 542.018 90.4219C542.118 90.4542 542.222 90.4746 542.327 90.4826C542.627 90.5008 542.925 90.422 543.177 90.2577C543.428 90.0933 543.62 89.8523 543.724 89.5703C543.828 89.2882 543.839 88.9802 543.754 88.6918C543.67 88.4033 543.494 88.1499 543.254 87.9689C543.169 87.9066 543.077 87.8547 542.98 87.814Z" fill="#4D8AF0"/>
<path opacity="0.5" d="M561.198 219.936C560.571 219.663 560.065 219.168 559.779 218.546C559.492 217.925 559.444 217.219 559.644 216.564C559.676 216.464 559.697 216.36 559.705 216.255C559.723 215.955 559.644 215.657 559.48 215.405C559.315 215.153 559.074 214.961 558.792 214.857C558.511 214.753 558.203 214.743 557.914 214.827C557.626 214.912 557.372 215.087 557.192 215.327C557.129 215.413 557.077 215.505 557.037 215.602C556.763 216.23 556.269 216.735 555.647 217.022C555.026 217.309 554.32 217.357 553.666 217.157C553.565 217.125 553.461 217.104 553.356 217.096C553.056 217.078 552.758 217.157 552.507 217.321C552.255 217.485 552.063 217.726 551.959 218.009C551.855 218.291 551.845 218.599 551.929 218.887C552.014 219.175 552.189 219.429 552.429 219.61C552.514 219.672 552.607 219.724 552.704 219.765C553.331 220.038 553.837 220.533 554.123 221.155C554.41 221.776 554.458 222.482 554.258 223.137C554.226 223.237 554.205 223.341 554.197 223.446C554.179 223.746 554.258 224.044 554.422 224.296C554.587 224.548 554.828 224.74 555.11 224.844C555.391 224.948 555.699 224.958 555.988 224.874C556.276 224.789 556.53 224.614 556.71 224.374C556.773 224.288 556.825 224.196 556.865 224.099C557.139 223.471 557.633 222.966 558.255 222.679C558.876 222.392 559.582 222.344 560.236 222.544C560.337 222.577 560.441 222.597 560.546 222.605C560.846 222.623 561.144 222.544 561.395 222.38C561.647 222.216 561.839 221.975 561.943 221.693C562.047 221.411 562.057 221.102 561.973 220.814C561.888 220.526 561.713 220.272 561.473 220.091C561.388 220.029 561.295 219.977 561.198 219.936Z" fill="#4D8AF0"/>
<path opacity="0.5" d="M54.8033 323.732C57.3187 323.732 59.3579 321.692 59.3579 319.176C59.3579 316.66 57.3187 314.62 54.8033 314.62C52.2878 314.62 50.2487 316.66 50.2487 319.176C50.2487 321.692 52.2878 323.732 54.8033 323.732Z" fill="#F55F44"/>
<path opacity="0.5" d="M443.465 173.386C445.98 173.386 448.019 171.346 448.019 168.83C448.019 166.314 445.98 164.274 443.465 164.274C440.949 164.274 438.91 166.314 438.91 168.83C438.91 171.346 440.949 173.386 443.465 173.386Z" fill="#4D8AF0"/>
<path opacity="0.5" d="M480.661 288.803C483.176 288.803 485.216 286.763 485.216 284.247C485.216 281.731 483.176 279.691 480.661 279.691C478.145 279.691 476.106 281.731 476.106 284.247C476.106 286.763 478.145 288.803 480.661 288.803Z" fill="#47E6B1"/>
<path opacity="0.5" d="M10.0162 48.8565C12.5316 48.8565 14.5708 46.8167 14.5708 44.3006C14.5708 41.7844 12.5316 39.7446 10.0162 39.7446C7.50072 39.7446 5.46155 41.7844 5.46155 44.3006C5.46155 46.8167 7.50072 48.8565 10.0162 48.8565Z" fill="#F55F44"/>
<path d="M386.815 173.972L369.943 174.626L370.784 196.324L387.656 195.67L386.815 173.972Z" fill="#63A1FF"/>
<path d="M310.707 249.964C310.707 249.964 287.343 238.797 287.716 248.441C288.09 258.085 311.268 264.429 311.268 264.429L310.707 249.964Z" fill="#FFB9B9"/>
<path d="M323.526 331.561C323.526 331.561 312.503 358.549 308.43 378.023C304.357 397.497 298.155 424.298 306.133 443.305C314.112 462.312 336.795 518.174 337.029 524.201C337.262 530.228 335.086 536.349 339.906 536.162C344.726 535.975 370.959 527.714 372.023 524.051C373.088 520.388 363.074 511.118 363.074 511.118L338.344 433.605L364.146 383.106L382.756 458.442L386.401 552.468C386.401 552.468 404.291 546.945 406.888 551.673C406.888 551.673 414.903 540.497 415.922 535.628C416.94 530.76 412.136 437.986 412.136 437.986C412.136 437.986 428.557 332.316 415.301 332.83C402.045 333.345 350.122 301.555 323.526 331.561Z" fill="#2F2E41"/>
<path d="M339.719 531.34C339.719 531.34 327.491 558.374 326.333 559.627C325.174 560.879 317.206 573.261 323.231 573.027C329.257 572.793 343.485 566.205 353.957 556.141C364.429 546.076 378.236 528.639 376.984 527.48C375.732 526.321 367.156 523.032 367.156 523.032L339.719 531.34Z" fill="#2F2E41"/>
<path d="M388.578 546.347C388.578 546.347 387.84 558.448 385.617 563.363C383.393 568.279 383.674 575.511 389.699 575.278C395.725 575.044 411.298 572.025 411.298 572.025C411.298 572.025 412.223 564.746 410.971 563.587C409.719 562.428 404.384 549.355 406.654 545.645C408.925 541.936 388.578 546.347 388.578 546.347Z" fill="#2F2E41"/>
<path d="M397.492 153.637C397.492 153.637 410.338 173.663 415.345 178.298C420.352 182.933 406.265 193.137 406.265 193.137L381.051 196.53C381.051 196.53 381.368 173.579 380.07 171.215C378.771 168.851 397.492 153.637 397.492 153.637Z" fill="#FFB9B9"/>
<path d="M375.576 179.84C375.576 179.84 380.771 189.297 385.591 189.11C390.412 188.923 415.345 178.298 416.41 174.635C417.475 170.972 424.669 200.874 424.669 200.874L363.658 308.274L348.776 297.985L355.987 234.927L361.909 200.894L375.576 179.84Z" fill="#63A1FF"/>
<path d="M418.66 275.958C416.227 281.051 414.707 286.361 414.917 291.798C414.927 292.039 414.936 292.28 414.958 292.521C415.535 303.678 419.644 316.581 421.118 325.965C422.188 332.696 421.883 337.609 417.945 338.764C408.398 341.549 419.337 343.539 382.399 355.837C345.461 368.136 339.015 357.52 338.922 355.109C338.828 352.698 344.153 334.383 342.901 333.224C341.649 332.065 325.385 348.391 320.471 346.167C315.557 343.943 319.911 331.701 319.911 331.701C319.911 331.701 330.98 305.919 330.747 299.892C330.513 293.865 347.515 265.438 347.515 265.438L359.079 190.138C359.079 190.138 363.525 180.308 369.504 178.868C375.483 177.429 380.444 180.859 380.444 180.859L370.439 202.978L359.883 242.02L361.649 256.439C361.649 256.439 373.924 230.61 381.986 220.639C390.048 210.668 407.236 187.063 407.236 187.063C407.236 187.063 411.249 173.519 408.22 169.471C405.19 165.412 420.857 164.804 427.536 181.447C431.077 190.267 436.825 203.421 440.425 215.668C443.634 226.517 445.15 236.66 441.971 242.458C437.112 251.314 424.891 262.956 418.66 275.958Z" fill="#535461"/>
<path opacity="0.1" d="M441.971 242.458C437.112 251.314 424.891 262.956 418.66 275.958C417.033 270.094 415.048 264.026 415.048 264.026C415.048 264.026 407.433 223.274 429.956 212.742C433.688 212.381 437.421 213.424 440.425 215.668C443.634 226.517 445.15 236.66 441.971 242.458Z" fill="black"/>
<path d="M352.559 239.889L333.464 245.459L306.952 246.488L304.224 269.532L347.795 272.671C347.795 272.671 358.678 242.067 352.559 239.889Z" fill="#535461"/>
<path d="M383.696 317.371C383.696 317.371 358.151 321.61 363.981 329.299C369.811 336.989 392.441 328.905 392.441 328.905L383.696 317.371Z" fill="#FFB9B9"/>
<path opacity="0.1" d="M414.958 292.521C415.535 303.677 419.644 316.581 421.118 325.965C412.98 333.669 405.242 340.464 402.325 340.577C396.3 340.811 386.612 339.979 383.044 341.325C379.475 342.671 377.382 319.814 377.382 319.814C377.382 319.814 379.512 312.487 389.013 308.497C395.425 305.798 407.718 298.476 414.958 292.521Z" fill="black"/>
<path d="M429.676 205.509C429.676 205.509 450.07 202.303 448.968 236.15C447.866 269.996 451.118 291.601 442.915 297.955C434.713 304.31 408.071 333.111 402.045 333.344C396.019 333.578 386.332 332.747 382.763 334.092C379.195 335.438 377.102 312.581 377.102 312.581C377.102 312.581 379.231 305.255 388.732 301.264C398.233 297.274 420.616 283.126 420.429 278.304C420.242 273.482 414.767 256.793 414.767 256.793C414.767 256.793 407.153 216.041 429.676 205.509Z" fill="#535461"/>
<path d="M379.509 183.29C394.162 183.29 406.041 171.407 406.041 156.75C406.041 142.092 394.162 130.209 379.509 130.209C364.855 130.209 352.976 142.092 352.976 156.75C352.976 171.407 364.855 183.29 379.509 183.29Z" fill="#FFB9B9"/>
<path d="M361.644 118.71C361.004 119.261 360.238 119.646 359.413 119.83C358.999 119.904 358.573 119.811 358.227 119.571C357.882 119.332 357.645 118.965 357.568 118.552C356.961 119.811 356.276 121.153 355.037 121.799C353.798 122.445 351.881 121.903 351.702 120.517C351.521 121.57 351.056 122.553 350.356 123.36C349.587 124.093 348.193 124.278 347.521 123.454C348.064 126.421 347.729 129.473 347.899 132.484C348.07 135.496 348.873 138.688 351.147 140.669C354.464 143.556 359.453 142.844 363.816 142.297C364.476 142.158 365.161 142.196 365.802 142.405C367.435 143.102 367.361 145.377 367.383 147.153C367.516 150.27 368.75 153.238 370.864 155.532C372.978 157.825 375.836 159.295 378.931 159.68C380.663 159.947 382.43 159.516 383.844 158.48C385.083 157.43 385.716 155.718 387.136 154.929C389.445 153.645 392.245 155.517 393.934 157.55C395.622 159.582 397.286 162.082 399.902 162.454C403.361 162.946 405.996 159.42 407.288 156.173C409.072 151.622 409.926 146.76 409.801 141.874C409.676 136.987 408.574 132.175 406.561 127.721C399.338 111.972 374.664 109.481 361.644 118.71Z" fill="#2F2E41"/>
<path d="M337.487 190.247C333.964 215.671 281.679 268.841 281.679 268.841C281.679 268.841 242.149 202.942 245.671 177.518C246.494 171.477 248.5 165.657 251.575 160.392C254.649 155.128 258.732 150.522 263.589 146.837C268.445 143.153 273.981 140.463 279.878 138.922C285.775 137.381 291.919 137.019 297.956 137.856C303.994 138.693 309.807 140.713 315.063 143.8C320.319 146.888 324.915 150.982 328.587 155.849C332.259 160.715 334.935 166.258 336.462 172.161C337.989 178.064 338.337 184.209 337.487 190.247Z" fill="url(#paint1_linear)"/>
<path d="M334.473 191.051C331.169 214.899 282.127 264.772 282.127 264.772C282.127 264.772 245.048 202.959 248.352 179.112C249.123 173.444 251.004 167.984 253.887 163.045C256.771 158.106 260.6 153.784 265.156 150.328C269.712 146.871 274.904 144.348 280.437 142.901C285.969 141.455 291.732 141.115 297.396 141.9C303.06 142.686 308.513 144.581 313.444 147.477C318.374 150.374 322.685 154.215 326.129 158.781C329.573 163.347 332.083 168.547 333.515 174.085C334.947 179.622 335.273 185.388 334.473 191.051V191.051Z" fill="#63A1FF"/>
<path d="M313.422 184.612C315.074 172.688 306.774 161.685 294.883 160.037C282.992 158.388 272.013 166.718 270.361 178.642C268.709 190.566 277.009 201.569 288.9 203.217C300.791 204.866 311.77 196.536 313.422 184.612Z" fill="white"/>
</g>
<defs>
<linearGradient id="paint0_linear" x1="141.082" y1="539.676" x2="355.937" y2="29.0237" gradientUnits="userSpaceOnUse">
<stop stop-color="#808080" stop-opacity="0.25"/>
<stop offset="0.53514" stop-color="#808080" stop-opacity="0.12"/>
<stop offset="1" stop-color="#808080" stop-opacity="0.1"/>
</linearGradient>
<linearGradient id="paint1_linear" x1="44651.3" y1="59957.7" x2="47788.5" y2="37329.3" gradientUnits="userSpaceOnUse">
<stop stop-color="#808080" stop-opacity="0.25"/>
<stop offset="0.53514" stop-color="#808080" stop-opacity="0.12"/>
<stop offset="1" stop-color="#808080" stop-opacity="0.1"/>
</linearGradient>
<clipPath id="clip0">
<rect width="634" height="596" fill="white"/>
</clipPath>
</defs>
</svg>
