<svg width="715" height="461" viewBox="0 0 715 461" fill="none" xmlns="http://www.w3.org/2000/svg">
<g clip-path="url(#clip0)">
<path opacity="0.1" d="M414.27 332.27C428.836 331.38 446.908 320.79 460.96 316.106C477.591 310.576 494.288 305.256 511.051 300.146C569.407 282.347 628.389 267.181 687.997 254.648C693.56 253.475 699.131 252.331 704.712 251.214C696.019 231.081 682.552 213.743 665.654 200.933C666.087 196.526 666.307 192.097 666.313 187.665C666.313 117.624 614.093 60.8431 549.654 60.8431C529.815 60.8205 510.309 66.3094 493.038 76.7745C447.429 44.615 387.9 25.1511 322.768 25.1511C230.219 25.1511 148.973 64.4533 102.935 123.636L319.302 162.818L452.003 186.839C300.722 191.678 148.973 196.49 -1.87339 185.129C-21.7858 205.782 -34.389 233.206 -37.529 262.715C-40.6691 292.225 -34.151 321.987 -19.0888 346.916C-19.0888 349.452 -18.99 351.967 -18.812 354.461C-14.9695 355.641 -11.2588 356.785 -7.93043 357.534C45.5043 369.634 99.2817 379.761 153.402 387.913C113.52 414.273 64.9518 418.003 18.9473 429.165C41.2246 448.877 71.4768 460.958 104.814 460.958H601.188C654.937 460.958 698.503 420.85 698.503 371.367C706.569 357.111 711.943 341.294 714.321 324.817C614.864 335.11 514.168 326.173 414.27 332.27Z" fill="#63A1FF"/>
<path opacity="0.1" d="M714.999 303.742C715.052 283.349 710.529 263.24 701.811 245.114C693.094 226.987 680.437 211.374 664.908 199.591C665.338 195.186 665.558 190.76 665.567 186.33C665.567 116.289 613.321 59.5291 548.908 59.5291C529.068 59.5063 509.56 64.9926 492.286 75.4534C446.677 43.2797 387.141 23.8088 322.009 23.8088C216.067 23.8088 124.875 75.3474 84.4336 149.254C82.1861 149.112 79.9254 149.035 77.645 149.035C13.2254 149.035 -39.0141 205.815 -39.0141 275.857C-39.0593 300.597 -32.3909 324.817 -19.8214 345.566C-19.8214 408.585 35.6675 459.672 104.088 459.672H600.475C654.218 459.672 697.784 419.557 697.784 370.075C709.087 350.074 715.042 327.127 714.999 303.742Z" fill="#63A1FF"/>
<path d="M576.776 226.042C575.833 225.267 574.73 224.748 573.559 224.53C572.327 224.226 571.068 224.036 569.816 223.824L553.589 221.316C551.951 220.99 550.28 220.895 548.619 221.033C547.786 221.106 546.975 221.356 546.232 221.769C545.49 222.181 544.832 222.748 544.296 223.435C543.812 224.075 543.547 224.873 543.544 225.696C543.634 226.525 543.886 227.324 544.282 228.041C544.439 228.377 544.574 228.724 544.684 229.08C544.84 229.879 545.033 230.669 545.264 231.447C545.336 231.615 545.429 231.772 545.541 231.913C545.544 231.953 545.544 231.993 545.541 232.033C545.363 233.008 545.937 234.025 545.68 234.965C545.456 235.771 544.724 236.258 544.263 236.929C543.955 237.405 543.785 237.968 543.773 238.547C543.761 239.126 543.908 239.696 544.197 240.186C544.691 241.006 545.587 241.564 545.844 242.503C546.181 243.74 545.271 244.934 544.46 245.887C542.969 247.643 541.59 249.506 540.334 251.462C539.981 251.943 539.754 252.516 539.675 253.122C539.603 254.351 540.704 255.432 540.512 256.654C540.361 257.615 539.484 258.202 538.726 258.774C535.925 260.752 533.678 263.931 533.454 267.527C532.734 261.806 530.523 256.418 527.074 251.984C526.131 250.769 525.096 249.547 524.707 248.007C524.562 247.392 524.536 246.735 524.338 246.142C523.679 244.27 521.583 243.464 520.667 241.74C520.008 240.525 520.008 238.964 519.191 237.897C518.373 236.83 517.088 236.59 516.383 235.559C516.031 234.86 515.731 234.132 515.487 233.383C515.191 232.771 514.775 232.236 514.267 231.814C514.17 231.731 514.069 231.653 513.964 231.581C514.074 231.476 514.161 231.348 514.222 231.204C514.282 231.06 514.313 230.905 514.314 230.747C514.314 229.921 513.549 229.377 512.883 228.967C512.026 228.444 511.189 227.879 510.372 227.293C511.263 226.848 512.036 226.17 512.62 225.322C513.351 224.056 513.654 222.559 513.476 221.083C513.432 219.891 513.016 218.749 512.297 217.84C511.881 217.366 511.361 217.027 510.926 216.582C509.799 215.402 509.416 213.657 508.949 212.047C508.329 209.927 507.36 207.702 505.554 206.578C504.684 206.034 503.669 205.78 502.819 205.208C501.969 204.635 501.257 203.554 501.554 202.516C501.751 201.809 502.364 201.322 502.779 200.721C503.275 199.945 503.465 198.99 503.309 198.064C503.152 197.139 502.661 196.316 501.942 195.776C501.455 195.444 500.855 195.154 500.756 194.547C500.374 194.44 500.029 194.221 499.758 193.914C499.488 193.606 499.304 193.223 499.227 192.809C499.079 191.978 499.079 191.124 499.227 190.294C499.398 188.98 499.567 187.67 499.734 186.366C500.025 186.495 500.336 186.562 500.651 186.562C500.965 186.562 501.276 186.495 501.567 186.366C502.137 187.358 502.799 188.286 503.544 189.135C505.551 191.676 507.114 194.583 508.158 197.719C508.533 198.849 508.916 200.114 509.891 200.714C510.227 200.919 510.609 201.025 510.939 201.244C511.345 201.548 511.694 201.932 511.967 202.375C512.758 203.498 513.549 204.614 514.333 205.738L514.373 205.907C514.394 206.007 514.43 206.102 514.478 206.19C514.624 206.366 514.826 206.477 515.045 206.501C517.471 207.101 520.193 207.652 522.295 206.232C524.193 204.96 525.024 202.445 526.632 200.764C527.772 199.57 529.387 198.644 529.71 196.963C529.325 196.836 528.947 196.687 528.576 196.518C528.906 196.165 529.235 195.755 529.684 195.289C530.335 194.605 530.922 193.855 531.437 193.049C531.993 192.054 532.436 190.992 532.755 189.884C534.025 186.003 535.299 182.12 536.578 178.234C537.184 176.397 537.79 174.546 538.555 172.758C539.346 170.823 540.282 168.965 541.145 167.064C543.373 162.122 545.093 156.934 546.273 151.592C546.482 150.863 546.552 150.097 546.477 149.338C546.293 148.116 545.429 147.155 544.605 146.286C543.777 145.325 542.833 144.486 541.798 143.792C541.278 143.446 540.699 143.214 540.095 143.109C539.491 143.005 538.873 143.031 538.278 143.185C536.591 143.715 535.53 145.566 535.141 147.424C534.752 149.282 534.897 151.196 534.732 153.076C534.495 155.796 533.625 158.424 533.414 161.151C533.302 162.726 533.414 164.323 533.236 165.898C532.912 167.96 532.242 169.942 531.259 171.748C529.121 176.055 526.228 179.879 522.737 183.01C522.335 183.37 521.919 183.716 521.524 184.105C521.524 183.801 521.57 183.49 521.61 183.186C521.323 183.266 521.043 183.373 520.773 183.504C520.806 183.147 520.772 182.787 520.674 182.445C520.146 180.756 517.8 180.325 517.378 178.608C517.308 178.184 517.271 177.754 517.266 177.322C517.128 175.818 516.172 174.546 515.843 173.083C515.539 171.734 515.77 170.258 515.184 169.007C514.684 168.225 514.095 167.513 513.43 166.888C512.638 165.918 512.068 164.764 511.763 163.518C511.677 163.171 511.598 162.811 511.506 162.465C511.606 161.681 511.524 160.883 511.269 160.141C510.669 158.544 509.12 157.519 508.56 155.902C508.125 154.644 508.316 153.076 507.492 152.101C507.054 151.635 506.518 151.288 505.93 151.09C502.914 149.831 499.748 149.03 496.525 148.71C494.719 148.533 492.728 148.434 491.436 147.07C489.927 145.488 489.855 142.641 488.088 141.419C486.533 140.338 484.331 141.136 483.125 142.655C482.944 142.878 482.777 143.114 482.624 143.361C482.404 142.414 482.357 141.431 482.486 140.465C482.486 140.225 482.532 139.977 482.552 139.758C485.528 138.716 488.06 136.572 489.696 133.711C489.696 133.711 489.696 133.711 489.696 133.753L489.776 133.972C489.967 134.488 490.27 134.982 490.718 135.039C491.016 135.035 491.304 134.923 491.535 134.721C491.933 134.425 492.3 134.084 492.629 133.704C492.796 133.506 492.955 133.301 493.104 133.089C493.408 132.648 493.668 132.174 493.882 131.676C494.209 130.926 494.431 130.129 494.541 129.309C494.659 128.49 494.673 127.649 494.804 126.829C494.928 126.195 495.088 125.57 495.286 124.957C495.351 124.752 495.417 124.547 495.477 124.343C495.536 124.138 495.622 123.862 495.688 123.636C496.1 122.183 496.322 120.676 496.347 119.157C496.347 118.903 496.347 118.648 496.347 118.394C496.323 117.403 496.114 116.427 495.734 115.523C495.354 114.619 494.809 113.806 494.132 113.131C492.999 112.134 491.496 111.718 490.665 110.368C490.125 109.464 490.006 108.298 489.69 107.238C489.348 105.97 488.681 104.83 487.766 103.947C486.85 103.064 485.722 102.474 484.509 102.244C483.049 102.072 481.583 102.504 480.41 103.452L480.318 103.529C479.664 104.064 479.11 104.726 478.683 105.479C477.812 105.222 477.015 104.737 476.363 104.066C475.704 103.409 475.196 102.583 474.531 101.947C473.909 101.336 473.145 100.916 472.32 100.729C471.494 100.543 470.637 100.597 469.838 100.887C469.015 101.241 468.282 101.798 467.699 102.514C467.115 103.23 466.699 104.084 466.483 105.006C466.121 106.461 466.187 108.136 465.429 109.351C464.842 110.298 463.88 110.764 463.208 111.626C462.79 112.172 462.505 112.82 462.377 113.512C462.297 113.899 462.26 114.295 462.265 114.692C462.265 114.869 462.265 115.045 462.305 115.215C462.305 115.215 462.305 115.271 462.305 115.3C462.328 115.493 462.365 115.684 462.417 115.872C462.604 116.588 462.94 117.25 463.399 117.808C463.834 118.342 464.377 118.762 464.987 119.037C465.237 119.141 465.492 119.228 465.752 119.298L466.536 119.489L466.813 119.56C465.866 121.465 465.341 123.577 465.277 125.734C465.213 127.891 465.612 130.035 466.444 132.001C466.444 132.199 466.398 132.397 466.378 132.594C466.27 135.376 466.385 138.163 466.721 140.924C466.813 142.019 466.866 143.227 466.239 144.096C465.954 144.438 465.634 144.744 465.284 145.007C465.64 144.513 466.002 144.025 466.371 143.538C465.442 142.535 463.972 142.408 462.654 142.507C460.103 142.711 457.626 143.522 455.404 144.88C453.928 145.792 452.412 147 450.724 146.788C449.729 146.668 448.747 146.081 447.778 146.364C447.234 146.603 446.725 146.927 446.269 147.325C445.908 147.602 445.473 147.746 445.03 147.735C443.995 146.371 442.393 145.446 441.154 144.336C439.744 142.991 438.453 141.508 437.299 139.907C435.163 137.144 433.034 134.375 430.938 131.584C429.172 129.239 427.36 126.702 427.05 123.7C427.018 123.402 427.003 123.102 427.004 122.802C427.047 121.376 427.214 119.957 427.505 118.564C427.583 118.227 427.583 117.875 427.505 117.539C427.307 116.833 426.549 116.571 425.896 116.416C425.982 115.872 426.041 115.314 426.074 114.784C426.443 108.708 426.041 102.533 427.241 96.5846C427.696 94.2955 428.441 91.9782 429.976 90.318C432.382 87.711 436.409 87.0822 438.254 83.9949C439.797 81.4232 439.184 77.7848 437.246 75.517C435.308 73.2491 432.323 72.3236 429.482 72.4367C428.685 72.4073 427.898 72.6337 427.221 73.0866C426.589 73.6885 426.116 74.4586 425.85 75.3192L423.023 82.6879C422.203 84.6063 421.511 86.5848 420.953 88.6083C420.162 91.7027 419.984 94.9667 419.358 98.0894C419.358 100.491 417.915 103.487 417.124 105.698C416.241 108.185 415.285 110.644 414.488 113.18C414.29 113.816 413.598 115.702 413.169 117.419C413.007 117.52 412.857 117.641 412.721 117.779C412.377 118.252 412.064 118.75 411.785 119.27C411.186 120.118 410.21 120.57 409.551 121.389C408.892 122.209 408.753 123.714 409.67 124.124C409.856 124.191 410.048 124.236 410.243 124.258C410.363 124.269 410.482 124.29 410.599 124.321C411.588 124.618 411.976 125.953 411.831 127.056C411.686 128.158 411.172 129.175 411.087 130.277C410.909 132.227 411.976 134.043 413.005 135.682C414.069 137.459 415.245 139.156 416.524 140.761C417.453 141.878 418.501 142.881 419.437 143.955C423.003 147.883 425.837 152.475 429.04 156.742C430.193 158.353 431.503 159.826 432.949 161.137C433.893 161.928 434.881 162.657 435.908 163.32L441.418 167.064C442.043 167.555 442.75 167.912 443.501 168.117C443.746 168.152 443.994 168.152 444.239 168.117C444.272 168.293 444.298 168.463 444.338 168.64C444.766 170.491 445.709 172.172 445.814 174.058C445.92 175.945 445.761 177.873 445.887 179.781C446.005 181.54 446.368 183.313 446.46 185.044C446.645 188.379 445.88 191.671 445.142 194.935C444.028 199.711 443.356 204.586 441.187 208.917C440.581 210.111 439.869 211.326 439.869 212.689C439.869 212.852 439.869 213.021 439.909 213.184L438.92 213.784C438.63 213.961 438.34 214.138 438.076 214.321C436.824 215.197 435.486 216.165 434.972 217.677C434.557 218.899 434.748 220.298 434.247 221.485C434.223 221.538 434.197 221.59 434.168 221.641C433.641 222.743 432.593 223.562 432.355 224.77C432.178 225.696 432.52 226.678 432.355 227.596C432.355 227.596 432.355 227.596 432.355 227.632C432.206 228.093 432.087 228.565 432 229.045C431.993 229.201 432.006 229.358 432.039 229.511C432.165 230.046 432.441 230.527 432.83 230.889C433.067 231.133 433.326 231.353 433.601 231.546C433.882 231.744 434.172 231.927 434.471 232.097L434.643 232.196C434.893 232.337 435.143 232.471 435.401 232.598L435.572 232.676C435.868 232.817 436.172 232.945 436.475 233.058L436.686 233.128C436.923 233.213 437.167 233.291 437.411 233.354L437.576 233.411L437.727 233.446L438.386 233.595L438.63 233.644C438.92 233.696 439.217 233.738 439.52 233.771H439.783C440.008 233.771 440.225 233.806 440.443 233.814H440.752C440.983 233.814 441.207 233.814 441.411 233.814H441.649C441.958 233.814 442.268 233.764 442.578 233.722H442.677C442.954 233.679 443.231 233.63 443.507 233.566L443.718 233.517C443.975 233.453 444.232 233.39 444.489 233.305L444.628 233.262C444.938 233.164 445.247 233.058 445.551 232.93C446.6 232.468 447.617 231.928 448.596 231.313C449.255 230.924 449.914 230.528 450.573 230.168C451.062 229.904 451.563 229.668 452.076 229.462C453.322 228.891 454.678 228.648 456.03 228.755C456.697 228.852 457.358 228.996 458.007 229.186C458.007 229.264 458.007 229.341 458.007 229.419C458.543 232.81 459.073 236.201 459.596 239.593C460.459 238.927 461.371 238.338 462.324 237.833C462.146 238.346 462.029 238.88 461.975 239.423C461.935 239.844 461.935 240.267 461.975 240.688C462.034 241.359 462.166 242.101 461.791 242.631C461.56 242.956 461.131 243.139 461.006 243.507C460.915 243.882 460.892 244.273 460.94 244.658C460.913 245.097 460.74 245.511 460.452 245.825C460.164 246.139 459.781 246.332 459.372 246.368C459.56 246.937 459.565 247.557 459.384 248.129C459.204 248.7 458.849 249.19 458.376 249.519C458.101 249.661 457.844 249.842 457.612 250.056C457.386 250.368 457.235 250.734 457.17 251.123C456.299 254.621 454.508 257.778 452.01 260.215C451.072 261.004 450.217 261.9 449.459 262.886C448.99 263.649 448.603 264.467 448.306 265.323C446.548 269.929 444.764 274.538 442.954 279.149C441.952 281.728 440.976 284.349 440.66 287.125C439.869 294.741 433.542 301.199 434.728 308.758C434.968 310.647 435.678 312.431 436.785 313.923C438.103 315.625 440.08 316.6 442.057 317.391C447.139 319.511 452.497 320.67 457.836 321.835L466.22 323.679C467.865 324.085 469.534 324.368 471.216 324.527C473.239 324.675 475.315 324.471 477.286 325.022C478.505 325.361 479.672 325.99 480.931 326.06C482.011 326.124 483.343 325.876 483.982 326.823C484.621 327.77 484.127 329.02 484.733 329.861C485.709 331.196 488.088 329.861 489.149 331.119C489.439 331.602 489.661 332.128 489.809 332.68C489.97 333.022 490.194 333.324 490.468 333.57C490.532 333.969 490.559 334.374 490.547 334.778C490.409 336.419 490.091 338.036 489.598 339.597C488.807 342.465 488.018 345.336 487.231 348.209C486.931 349.223 486.711 350.263 486.572 351.317C486.523 351.829 486.523 352.345 486.572 352.857C486.711 354.419 487.548 356.03 488.939 356.538C490.017 356.844 491.165 356.692 492.142 356.114C493.085 355.587 493.969 354.947 494.778 354.207C496.237 353.023 497.52 351.608 498.581 350.01C501.876 344.726 500.809 337.576 503.122 331.733C504.658 327.833 507.65 324.668 508.645 320.557C508.878 319.774 508.906 318.938 508.724 318.14C508.309 316.727 506.905 315.922 505.594 315.413H505.534C504.457 315.002 503.356 314.665 502.239 314.403C501.962 314.339 501.679 314.29 501.395 314.241C500.768 313.694 500.269 312.997 499.939 312.206C499.887 311.785 499.783 311.374 499.629 310.984C499.524 310.815 499.383 310.676 499.218 310.578C499.053 310.48 498.869 310.425 498.68 310.418C498.021 310.348 497.138 310.602 496.419 310.546C494.949 310.433 493.974 308.885 492.656 308.172C491.338 307.458 489.907 307.635 488.503 307.741C488.001 307.814 487.491 307.781 487.001 307.642C486.415 307.353 485.88 306.959 485.419 306.476C484.608 305.8 483.661 305.334 482.653 305.117C481.645 304.9 480.604 304.937 479.612 305.226C478.982 305.499 478.314 305.661 477.635 305.706C476.35 305.628 475.44 304.399 474.491 303.467C471.894 300.916 468.197 300.245 465.046 298.571C464.564 298.378 464.162 298.007 463.913 297.525C463.55 296.564 464.368 295.603 465.106 294.946L470.523 290.121C476.455 284.836 483.87 280.859 486.625 273.109C486.912 272.07 487.358 271.088 487.943 270.205C488.156 269.935 488.403 269.698 488.675 269.498C489.873 268.666 491.326 268.362 492.728 268.651C494.437 269.061 496.057 269.819 497.5 270.883C499.86 272.414 502.155 274.062 504.388 275.829C506.599 277.522 508.701 279.373 510.682 281.367C514.142 284.9 517.022 289.089 520.245 292.897C523.468 296.705 527.153 300.259 531.628 302.082C536.103 303.905 541.514 303.827 545.357 300.768C549.792 297.235 551.216 290.919 552.337 285.126C554.808 282.569 555.553 278.676 556.759 275.235C557.517 273.052 558.486 270.996 559.303 268.82C560.279 266.263 561.043 263.62 561.808 260.985C562.674 258.339 563.262 255.597 563.561 252.811C563.877 248.41 562.776 243.726 563.93 239.593C565.452 239.232 566.836 238.314 568.333 237.777C570.56 236.993 572.946 237.12 575.306 237.134H575.457C576.27 237.227 577.089 237.02 577.777 236.548C578.568 235.841 578.694 234.633 578.733 233.538C578.825 230.832 578.667 227.794 576.776 226.042ZM481.28 105.529C480.735 105.673 480.171 105.716 479.612 105.656L481.28 105.529Z" fill="url(#paint0_linear)"/>
<path d="M483.877 150.221C483.079 150.948 482.143 151.481 481.135 151.783L476.462 153.577C473.924 154.552 471.275 155.534 468.599 155.181C467.103 154.983 460.69 153.973 459.721 152.722C458.245 150.787 463.418 147.939 465.185 146.307C465.585 145.999 465.956 145.649 466.292 145.262C466.951 144.4 466.865 143.192 466.773 142.104C466.438 139.348 466.323 136.566 466.43 133.788C466.482 133.126 466.57 132.468 466.694 131.817C467.353 128.567 470.174 129.754 472.402 130.616C475.083 131.55 477.676 132.754 480.146 134.212C480.898 134.628 481.552 135.222 482.058 135.95C483.033 137.533 482.644 139.61 482.486 141.602C482.348 143.149 482.354 144.633 483.257 145.756C483.711 146.186 484.128 146.659 484.503 147.169C484.714 147.683 484.767 148.256 484.654 148.805C484.542 149.353 484.269 149.849 483.877 150.221Z" fill="#BE6F72"/>
<path d="M419.325 99.3044C419.984 96.1746 420.129 92.946 420.92 89.8445C421.479 87.8279 422.17 85.8565 422.99 83.9452L425.896 76.6754C426.162 75.817 426.635 75.0493 427.267 74.45C427.945 74.0002 428.731 73.7741 429.528 73.8C432.369 73.687 435.354 74.6337 437.292 76.8733C439.23 79.1128 439.843 82.7371 438.3 85.3017C436.455 88.3891 432.428 89.0108 430.022 91.6107C428.487 93.2709 427.742 95.5812 427.287 97.8631C426.088 103.798 426.49 109.951 426.12 116.013C426.002 117.899 425.659 120.054 424.143 121.029C423.227 121.51 422.208 121.722 421.19 121.644L416.867 121.721C416.142 121.721 413.512 122.209 413.031 121.622C412.187 120.598 414.112 115.497 414.461 114.36C415.239 111.838 416.195 109.379 417.098 106.899C417.882 104.688 419.325 101.699 419.325 99.3044Z" fill="#BE6F72"/>
<path d="M508.599 321.256C507.604 325.339 504.612 328.519 503.076 332.411C500.763 338.24 501.804 345.368 498.535 350.639C497.475 352.24 496.192 353.657 494.732 354.843C493.923 355.58 493.038 356.218 492.096 356.743C491.118 357.321 489.971 357.473 488.892 357.167C487.502 356.658 486.665 355.047 486.526 353.493C486.477 352.983 486.477 352.47 486.526 351.96C486.665 350.908 486.885 349.871 487.185 348.859C487.976 346 488.765 343.136 489.551 340.268C490.044 338.712 490.362 337.099 490.501 335.463C490.586 333.683 489.532 331.366 489.98 329.706C490.184 328.957 490.949 328.293 491.298 327.664C491.794 326.759 492.175 325.787 492.432 324.774C492.972 322.803 493.341 320.698 494.475 319.038C495.215 318.053 496.08 317.185 497.045 316.459C497.758 315.789 498.593 315.286 499.497 314.982C500.374 314.817 501.275 314.863 502.134 315.117C503.252 315.373 504.352 315.708 505.429 316.12H505.488C506.807 316.628 508.204 317.413 508.619 318.84C508.821 319.632 508.814 320.468 508.599 321.256Z" fill="#3F3D56"/>
<path d="M578.726 234.4C578.687 235.495 578.562 236.717 577.771 237.403C577.082 237.875 576.264 238.082 575.451 237.989H575.273C572.92 237.989 570.527 237.848 568.3 238.632C566.606 239.232 565.05 240.334 563.284 240.554C560.852 240.85 558.565 239.423 556.41 238.18C554.38 237.008 552.297 235.947 550.168 235C548.771 234.386 545.917 233.99 545.245 232.351C545.014 231.576 544.821 230.788 544.665 229.991C544.554 229.635 544.42 229.288 544.263 228.953C543.867 228.237 543.616 227.44 543.524 226.614C543.527 225.791 543.792 224.993 544.276 224.354C544.813 223.671 545.472 223.11 546.213 222.701C546.953 222.293 547.762 222.045 548.593 221.973C550.254 221.834 551.924 221.929 553.562 222.255L569.789 224.756C571.041 224.947 572.3 225.138 573.533 225.463C574.703 225.68 575.807 226.199 576.749 226.975C578.667 228.699 578.825 231.729 578.726 234.4Z" fill="#3F3D56"/>
<path d="M564.463 238.921C562.486 243.394 563.91 248.685 563.554 253.631C563.255 256.41 562.667 259.145 561.801 261.784C561.036 264.412 560.272 267.047 559.296 269.597C558.479 271.717 557.51 273.836 556.752 275.998C555.546 279.446 554.775 283.325 552.33 285.889C551.209 291.668 549.786 297.984 545.35 301.488C541.494 304.54 536.123 304.646 531.621 302.802C527.119 300.959 523.461 297.426 520.239 293.618C517.016 289.81 514.135 285.663 510.675 282.116C508.692 280.121 506.585 278.273 504.368 276.585C502.135 274.847 499.84 273.212 497.48 271.682C496.036 270.622 494.416 269.867 492.708 269.456C491.306 269.168 489.853 269.471 488.655 270.304C488.383 270.503 488.136 270.741 487.923 271.01C487.337 271.891 486.891 272.87 486.605 273.907C483.837 281.636 476.409 285.606 470.477 290.877L465.059 295.688C464.321 296.345 463.504 297.306 463.866 298.26C464.116 298.742 464.518 299.113 465 299.305C468.151 300.973 471.848 301.644 474.445 304.187C475.394 305.12 476.304 306.349 477.589 306.42C478.267 306.377 478.935 306.217 479.566 305.946C480.558 305.659 481.598 305.621 482.606 305.837C483.613 306.053 484.56 306.516 485.373 307.19C485.834 307.672 486.369 308.067 486.954 308.355C487.444 308.494 487.955 308.528 488.457 308.454C489.861 308.348 491.351 308.214 492.609 308.885C493.868 309.557 494.903 311.139 496.373 311.252C497.091 311.309 497.948 311.054 498.633 311.125C498.822 311.131 499.007 311.186 499.172 311.284C499.337 311.383 499.478 311.522 499.583 311.69C499.736 312.078 499.841 312.487 499.892 312.905C500.163 313.901 501.072 314.509 501.665 315.329C502.575 316.586 502.707 318.296 502.614 319.885C502.316 324.856 500.249 329.514 496.841 332.899C495.873 333.959 494.639 334.696 493.288 335.018C492.612 335.17 491.908 335.09 491.277 334.79C490.645 334.489 490.118 333.983 489.769 333.344C489.622 332.794 489.4 332.27 489.11 331.79C488.049 330.539 485.669 331.868 484.694 330.532C484.087 329.699 484.522 328.363 483.942 327.501C483.362 326.639 481.965 326.795 480.891 326.745C479.632 326.675 478.465 326.039 477.246 325.707C475.269 325.156 473.199 325.361 471.176 325.212C469.494 325.053 467.825 324.77 466.18 324.365L457.796 322.528C452.458 321.362 447.099 320.182 442.018 318.098C440.073 317.307 438.116 316.332 436.745 314.636C435.64 313.146 434.929 311.365 434.689 309.479C433.496 301.941 439.823 295.497 440.62 287.903C440.904 285.133 441.939 282.519 442.914 279.947C444.702 275.351 446.486 270.751 448.266 266.15C448.554 265.293 448.929 264.473 449.386 263.705C450.145 262.722 451 261.829 451.937 261.042C454.435 258.612 456.226 255.463 457.098 251.97C457.162 251.582 457.314 251.216 457.539 250.904C457.773 250.694 458.03 250.516 458.304 250.374C458.775 250.045 459.129 249.557 459.309 248.986C459.49 248.416 459.486 247.798 459.299 247.23C459.708 247.194 460.092 247.001 460.379 246.687C460.667 246.373 460.841 245.959 460.868 245.52C460.82 245.138 460.842 244.749 460.934 244.376C461.092 244.008 461.487 243.825 461.718 243.5C462.094 242.97 461.962 242.228 461.902 241.564C461.863 241.143 461.863 240.72 461.902 240.299C462.047 238.803 462.671 237.407 463.669 236.35C465.244 234.69 467.485 235.121 469.66 234.725C471.829 234.223 473.948 233.497 475.987 232.556C481.706 230.141 487.728 228.648 493.855 228.126C500.013 227.607 506.198 228.663 511.901 231.207C512.731 231.567 513.513 232.042 514.228 232.62C514.735 233.039 515.151 233.572 515.447 234.181C515.69 234.929 515.99 235.654 516.343 236.35C517.049 237.381 518.38 237.713 519.151 238.688C519.922 239.663 519.988 241.309 520.627 242.518C521.544 244.241 523.666 245.04 524.298 246.912C524.496 247.505 524.523 248.155 524.668 248.77C525.023 250.31 526.091 251.525 527.034 252.74C530.489 257.17 532.701 262.56 533.414 268.283C533.625 264.701 535.872 261.529 538.686 259.551C539.444 259.021 540.321 258.435 540.473 257.474C540.664 256.259 539.563 255.178 539.636 253.941C539.716 253.338 539.943 252.768 540.295 252.288C541.551 250.337 542.929 248.479 544.421 246.728C545.231 245.774 546.141 244.609 545.805 243.351C545.548 242.412 544.651 241.86 544.157 241.041C543.868 240.552 543.721 239.983 543.733 239.405C543.744 238.827 543.915 238.266 544.223 237.791C544.684 237.12 545.416 236.632 545.64 235.834C545.897 234.894 545.324 233.877 545.501 232.909C545.742 232.134 546.221 231.469 546.859 231.023C547.734 230.169 548.728 229.468 549.805 228.946C551.545 228.239 553.483 228.501 555.328 228.776C558.413 229.235 561.873 229.942 563.613 232.711C564.727 234.442 565.294 237.07 564.463 238.921Z" fill="#A8A8A8"/>
<path opacity="0.1" d="M578.726 234.4C578.687 235.495 578.562 236.717 577.771 237.402C577.082 237.875 576.264 238.082 575.451 237.989H575.273C575.543 236.519 577.21 235.679 577.5 234.188C577.55 233.73 577.511 233.266 577.387 232.825C577.262 232.384 577.054 231.975 576.775 231.623C575.365 229.582 573.098 228.451 570.844 227.625C564.476 225.284 557.653 224.737 551.031 226.035C549.231 226.349 547.479 226.927 545.825 227.752C545.276 228.12 544.748 228.521 544.243 228.953C543.847 228.237 543.596 227.44 543.505 226.614C543.507 225.791 543.772 224.993 544.256 224.354C544.794 223.671 545.452 223.11 546.193 222.701C546.934 222.293 547.743 222.045 548.573 221.973C550.234 221.834 551.905 221.929 553.543 222.255L569.769 224.756C571.022 224.947 572.28 225.138 573.513 225.463C574.683 225.68 575.787 226.199 576.729 226.975C578.667 228.699 578.825 231.729 578.726 234.4Z" fill="black"/>
<path opacity="0.1" d="M508.599 321.256C507.604 325.339 504.612 328.519 503.076 332.411C500.763 338.24 501.804 345.368 498.535 350.639C497.474 352.24 496.192 353.657 494.732 354.842C493.923 355.58 493.038 356.218 492.096 356.743C491.118 357.321 489.971 357.473 488.892 357.167C487.502 356.658 486.665 355.047 486.526 353.493C486.477 352.983 486.477 352.47 486.526 351.96L486.566 352.073C487.139 353.557 488.075 355.111 489.551 355.372C490.106 355.415 490.662 355.335 491.186 355.137C491.71 354.939 492.19 354.627 492.596 354.221C494.771 352.349 496.037 349.558 497.243 346.866C498.187 344.925 498.934 342.881 499.471 340.769C499.734 339.568 499.86 338.339 500.13 337.138C501.382 331.302 505.646 326.54 506.589 320.627C506.666 320.22 506.683 319.803 506.642 319.391C506.517 318.853 506.327 318.335 506.075 317.851C505.846 317.304 505.678 316.73 505.574 316.141C506.892 316.65 508.289 317.434 508.705 318.861C508.875 319.654 508.838 320.483 508.599 321.256Z" fill="black"/>
<path opacity="0.1" d="M498.647 311.125C498.037 312.834 497.01 314.337 495.674 315.477C493.798 317.009 491.601 318.028 489.275 318.444C488.192 318.74 487.055 318.726 485.979 318.402C484.516 317.858 483.461 316.388 481.965 315.964C480.897 315.653 479.751 315.929 478.67 315.759C476.725 315.47 475.216 313.88 473.647 312.609C468.843 308.737 462.535 307.486 457.73 303.615C457.516 303.474 457.34 303.277 457.216 303.043C457.124 302.789 457.09 302.515 457.117 302.244C457.135 299.896 457.628 297.58 458.561 295.455C459.325 293.972 460.235 292.582 461.276 291.308C465.58 285.656 469.904 279.962 475.058 275.193C477.22 273.193 479.579 271.328 482.308 270.424C483.824 269.922 486.816 269.449 488.662 270.297C488.389 270.496 488.143 270.734 487.93 271.003C487.343 271.883 486.898 272.862 486.612 273.9C483.837 281.636 476.409 285.606 470.477 290.877L465.06 295.688C464.321 296.345 463.504 297.306 463.867 298.26C464.116 298.742 464.518 299.113 465 299.305C468.151 300.973 471.848 301.644 474.445 304.187C475.394 305.12 476.304 306.349 477.589 306.42C478.267 306.377 478.935 306.217 479.566 305.946C480.558 305.659 481.598 305.621 482.606 305.837C483.613 306.053 484.56 306.516 485.373 307.19C485.834 307.672 486.369 308.066 486.954 308.355C487.444 308.494 487.955 308.528 488.457 308.454C489.861 308.348 491.351 308.214 492.61 308.885C493.868 309.557 494.903 311.139 496.373 311.252C497.104 311.309 497.961 311.04 498.647 311.125Z" fill="black"/>
<path d="M438.03 215.24C436.778 216.102 435.447 217.077 434.932 218.574C434.511 219.797 434.708 221.195 434.201 222.382C433.693 223.569 432.553 224.396 432.303 225.667C432.125 226.593 432.474 227.568 432.303 228.493C432.153 228.975 432.032 229.465 431.94 229.963C431.874 231.016 432.718 231.87 433.542 232.457C435.296 233.68 437.293 234.445 439.373 234.69C441.453 234.935 443.557 234.654 445.517 233.87C447.277 233.163 448.866 232.012 450.553 231.107C452.198 230.092 454.08 229.602 455.977 229.694C457.065 229.822 458.106 230.246 459.194 230.401C459.731 230.515 460.286 230.487 460.81 230.319C461.335 230.152 461.814 229.85 462.206 229.44C462.541 228.943 462.767 228.37 462.865 227.766C463.781 223.887 463.366 219.775 462.496 215.875C461.626 211.976 460.307 208.224 459.378 204.346C458.719 201.47 458.211 198.524 457.111 195.804C456.01 193.084 454.158 190.555 451.568 189.516C451.364 189.409 451.132 189.377 450.909 189.424C450.743 189.499 450.596 189.615 450.48 189.764C448.431 192.091 446.888 194.875 445.959 197.916C444.924 201.301 444.641 204.89 443.692 208.288C443.283 209.701 442.756 211.594 441.714 212.675C440.673 213.756 439.21 214.427 438.03 215.24Z" fill="#3F3D56"/>
<path opacity="0.1" d="M462.885 227.745C462.774 228.352 462.537 228.924 462.192 229.419C461.802 229.831 461.323 230.133 460.797 230.299C460.272 230.465 459.717 230.491 459.18 230.373C458.1 230.232 457.058 229.801 455.971 229.666C454.074 229.572 452.191 230.063 450.546 231.079C448.859 231.984 447.251 233.107 445.504 233.835C442.949 234.873 440.158 235.044 437.509 234.322C436.103 233.943 434.766 233.313 433.555 232.457C432.724 231.878 431.887 231.044 431.953 229.963C432.046 229.468 432.167 228.98 432.316 228.501C432.487 227.575 432.144 226.6 432.316 225.675C432.566 224.403 433.713 223.555 434.214 222.383C434.715 221.21 434.524 219.804 434.939 218.582C435.453 217.077 436.791 216.109 438.043 215.24C439.296 214.371 440.785 213.707 441.787 212.654C441.916 212.49 442.033 212.315 442.136 212.131C442.859 210.937 443.389 209.621 443.705 208.239C444.674 204.833 444.937 201.251 445.966 197.86C446.898 194.821 448.444 192.04 450.494 189.714C450.603 189.563 450.749 189.446 450.915 189.375C451.138 189.327 451.369 189.356 451.575 189.46C454.158 190.506 456.01 193.035 457.117 195.755C458.225 198.475 458.693 201.407 459.385 204.289C460.307 208.168 461.632 211.934 462.502 215.826C463.372 219.719 463.801 223.859 462.885 227.745Z" fill="black"/>
<path opacity="0.1" d="M482.486 141.581C479.387 142.637 476.033 142.427 473.069 140.992C470.106 139.558 467.741 137 466.43 133.81C466.482 133.148 466.57 132.489 466.694 131.838C467.353 128.589 470.174 129.776 472.402 130.637C475.083 131.571 477.676 132.775 480.146 134.233C480.898 134.649 481.552 135.244 482.057 135.971C483.033 137.533 482.644 139.61 482.486 141.581Z" fill="black"/>
<path d="M478.505 141.538C485.785 141.538 491.687 135.212 491.687 127.409C491.687 119.605 485.785 113.279 478.505 113.279C471.225 113.279 465.323 119.605 465.323 127.409C465.323 135.212 471.225 141.538 478.505 141.538Z" fill="#BE6F72"/>
<path opacity="0.1" d="M514.274 233.001C514.274 234.174 512.791 234.548 511.69 234.485C507.736 234.237 503.867 233.072 499.952 233.425C495.002 233.905 490.454 236.837 485.491 237.106C483.58 237.212 481.636 236.908 479.751 237.282C477.312 237.77 475.137 239.359 472.652 239.585C470.497 239.783 468.368 238.914 466.213 239.006C464.706 239.102 463.237 239.551 461.909 240.32C462.053 238.824 462.678 237.428 463.675 236.371C465.251 234.711 467.491 235.142 469.666 234.746C471.836 234.244 473.955 233.518 475.994 232.577C481.713 230.162 487.734 228.669 493.862 228.147C500.016 227.623 506.198 228.671 511.901 231.206C512.731 231.567 513.513 232.042 514.228 232.619C514.264 232.743 514.279 232.872 514.274 233.001Z" fill="black"/>
<path d="M472.408 153.21L467.07 151.09L464.816 150.2C463.897 149.788 462.93 149.512 461.942 149.381C459.358 149.169 456.926 151.013 455.549 153.365C454.171 155.718 453.651 158.523 453.209 161.257C452.603 164.996 452.089 168.75 451.667 172.518C451.213 175.921 450.981 179.353 450.975 182.791C451.126 191.537 452.853 200.163 454.751 208.676C455.681 212.451 456.383 216.286 456.854 220.157C457.012 221.754 457.085 223.357 457.243 224.961C457.414 226.763 457.691 228.543 457.968 230.33L459.556 240.483C461.533 238.978 463.781 237.657 466.213 237.579C468.368 237.494 470.504 238.356 472.652 238.158C475.124 237.939 477.312 236.35 479.751 235.862C481.636 235.488 483.58 235.785 485.498 235.686C490.454 235.417 495.009 232.478 499.952 232.005C503.873 231.623 507.769 232.81 511.697 233.057C512.791 233.128 514.274 232.754 514.274 231.574C514.274 230.754 513.509 230.21 512.844 229.801C509.706 227.775 506.72 225.491 503.913 222.969C501.316 220.765 498.68 218.504 496.894 215.522C492.59 208.351 494.066 198.651 490.395 191.085C487.409 184.938 490.395 176.884 490.395 169.954C490.395 166.499 490.395 163.002 489.637 159.646C489.163 157.769 488.573 155.928 487.871 154.135L485.307 147.176C485.254 146.973 485.149 146.79 485.004 146.646C484.831 146.519 484.626 146.453 484.417 146.456C482.877 146.357 481.359 146.878 480.159 147.918C478.953 148.971 478.182 150.483 476.996 151.578C475.697 152.786 474.023 153.846 472.408 153.21Z" fill="#E3E8F4"/>
<path d="M481.023 149.197C481.445 147.261 481.899 145.248 483.105 143.736C484.312 142.224 486.513 141.425 488.068 142.506C489.835 143.736 489.907 146.576 491.417 148.158C492.735 149.515 494.712 149.621 496.505 149.797C499.728 150.112 502.894 150.911 505.91 152.171C506.498 152.367 507.034 152.711 507.472 153.174C508.296 154.178 508.131 155.718 508.54 156.968C509.1 158.579 510.649 159.604 511.249 161.207C511.908 162.988 511.249 164.98 510.695 166.81C509.7 170.095 509.074 173.507 508.105 176.807C507.136 180.106 505.758 183.356 503.491 185.843C502.489 186.945 501 187.962 499.682 187.305L499.174 191.226C499.026 192.055 499.026 192.906 499.174 193.734C499.251 194.149 499.435 194.532 499.705 194.839C499.976 195.146 500.322 195.366 500.703 195.472C500.802 196.08 501.402 196.369 501.89 196.701C502.25 196.965 502.557 197.303 502.795 197.695C503.032 198.088 503.194 198.527 503.272 198.987C503.35 199.447 503.342 199.919 503.248 200.375C503.154 200.832 502.977 201.264 502.727 201.647C502.311 202.247 501.698 202.721 501.501 203.434C501.204 204.466 501.909 205.554 502.766 206.119C503.623 206.684 504.631 206.945 505.501 207.489C507.307 208.606 508.276 210.803 508.896 212.937C509.357 214.547 509.739 216.292 510.873 217.465C511.308 217.91 511.829 218.249 512.244 218.716C512.963 219.626 513.378 220.767 513.424 221.958C513.604 223.435 513.301 224.933 512.567 226.197C511.249 228.218 508.79 228.818 506.635 229.73C503.135 231.27 500.255 234.025 497.17 236.371C495.914 237.455 494.434 238.202 492.853 238.547C490.718 238.851 488.615 237.84 486.467 237.749C485.181 237.761 483.902 237.942 482.657 238.285L478.703 239.204C478.914 235.919 477.226 232.626 476.284 229.497C474.504 223.605 474.175 217.303 474.597 211.128C475.018 204.953 476.192 198.863 477.352 192.802C478.162 188.563 478.083 184.133 479.329 180.014C480.495 176.051 482.163 172.243 482.776 168.117C483.778 161.44 479.612 155.781 481.023 149.197Z" fill="#3F3D56"/>
<path d="M511.005 162.26C511.368 162.978 511.624 163.753 511.763 164.556C512.067 165.801 512.638 166.952 513.43 167.919C514.093 168.546 514.682 169.258 515.183 170.038C515.79 171.268 515.559 172.765 515.842 174.108C516.172 175.57 517.128 176.842 517.266 178.347C517.27 178.778 517.308 179.208 517.378 179.633C517.807 181.342 520.153 181.752 520.674 183.462C521.023 184.571 520.423 185.779 520.535 186.945C520.617 187.305 520.637 187.679 520.594 188.047C520.445 188.463 520.184 188.822 519.843 189.078C517.662 191.312 516.152 194.193 515.506 197.351C514.871 200.493 514.538 203.696 514.511 206.91L511.934 203.258C511.661 202.815 511.312 202.431 510.906 202.127C510.576 201.915 510.194 201.809 509.858 201.597C508.882 201.004 508.5 199.746 508.125 198.616C507.081 195.487 505.518 192.586 503.511 190.053C502.463 188.732 501.244 187.404 501.013 185.687C500.944 184.899 500.984 184.104 501.132 183.328C501.791 178.7 502.496 173.959 504.598 169.855C505.58 167.933 506.852 166.195 507.795 164.245C508.428 162.952 509.317 159.589 511.005 162.26Z" fill="#3F3D56"/>
<path d="M445.985 166.704C445.998 167.299 445.856 167.885 445.577 168.399C445.325 168.712 444.996 168.944 444.629 169.069C444.261 169.194 443.868 169.206 443.494 169.106C442.744 168.904 442.036 168.549 441.411 168.06C439.575 166.817 437.738 165.571 435.901 164.323C434.876 163.66 433.888 162.934 432.942 162.147C431.496 160.839 430.186 159.368 429.034 157.76C425.83 153.521 422.996 148.921 419.431 145.043C418.462 143.983 417.453 142.966 416.517 141.856C415.238 140.253 414.062 138.558 412.998 136.784C411.97 135.152 410.902 133.343 411.08 131.393C411.185 130.291 411.68 129.274 411.825 128.179C411.97 127.084 411.581 125.748 410.592 125.452C410.475 125.42 410.356 125.399 410.236 125.388C410.041 125.366 409.849 125.321 409.663 125.254C408.747 124.844 408.885 123.325 409.544 122.527C410.203 121.728 411.179 121.283 411.779 120.407C412.058 119.888 412.37 119.389 412.714 118.917C413.156 118.511 413.683 118.227 414.25 118.09C418.052 116.889 422.074 116.726 425.949 117.617C426.608 117.772 427.359 118.055 427.557 118.74C427.636 119.074 427.636 119.424 427.557 119.757C427.267 121.15 427.099 122.57 427.056 123.996C427.055 124.294 427.071 124.591 427.102 124.887C427.412 127.882 429.225 130.418 430.991 132.757C433.087 135.54 435.216 138.303 437.351 141.058C438.506 142.655 439.797 144.133 441.207 145.474C442.525 146.646 444.232 147.593 445.26 149.098C446.097 150.313 445.827 151.973 445.919 153.436C446.226 157.852 446.248 162.285 445.985 166.704Z" fill="#3F3D56"/>
<path d="M529.69 196.179C530.341 195.5 530.928 194.755 531.443 193.953C531.997 192.96 532.44 191.9 532.761 190.795L536.584 179.173C537.19 177.336 537.797 175.492 538.561 173.705C539.352 171.776 540.288 169.918 541.152 168.053C543.372 163.145 545.089 157.992 546.273 152.687C546.481 151.958 546.55 151.191 546.477 150.433C546.293 149.211 545.429 148.257 544.605 147.388C543.777 146.429 542.833 145.593 541.798 144.901C541.278 144.555 540.699 144.323 540.095 144.218C539.49 144.114 538.873 144.14 538.278 144.294C536.591 144.824 535.53 146.675 535.141 148.533C534.752 150.391 534.897 152.291 534.732 154.185C534.495 156.898 533.625 159.519 533.414 162.239C533.302 163.814 533.414 165.404 533.236 166.972C532.911 169.032 532.242 171.011 531.259 172.815C529.117 177.111 526.224 180.925 522.737 184.048C521.781 184.804 520.922 185.69 520.179 186.683C519.559 187.677 519.14 188.798 518.947 189.976C518.509 191.768 518.699 193.671 519.481 195.324C520.555 197.288 522.618 198.15 524.589 198.588C527.251 199.181 527.864 198.206 529.69 196.179Z" fill="#BE6F72"/>
<path d="M478.584 106.935C479.152 105.792 480.021 104.853 481.082 104.236C482.144 103.62 483.352 103.352 484.555 103.466C485.767 103.696 486.895 104.285 487.81 105.167C488.726 106.048 489.393 107.187 489.736 108.454C490.046 109.506 490.171 110.672 490.711 111.576C491.529 112.94 493.045 113.336 494.178 114.325C494.855 114.999 495.4 115.811 495.78 116.713C496.16 117.616 496.369 118.591 496.393 119.581C496.456 121.603 496.158 123.62 495.516 125.523C495.244 126.334 495.023 127.165 494.857 128.009C494.725 128.829 494.712 129.663 494.593 130.482C494.447 131.545 494.104 132.565 493.585 133.484C493.065 134.402 492.38 135.2 491.568 135.83C491.337 136.032 491.049 136.144 490.751 136.148C490.237 136.085 489.92 135.442 489.729 134.862C488.681 131.62 488.932 127.656 487.001 125.07C486.122 124.027 485.061 123.18 483.877 122.576C483.394 122.243 482.85 122.023 482.282 121.934C481.446 121.982 480.642 122.297 479.975 122.838C478.584 123.838 477.04 124.57 475.414 125C474.602 125.206 473.758 125.215 472.943 125.027C472.128 124.839 471.362 124.458 470.701 123.912C469.792 123.106 469.126 121.898 468.118 121.269C467.109 120.641 466.055 120.676 465.06 120.245C464.425 119.956 463.861 119.515 463.41 118.957C462.958 118.399 462.632 117.737 462.455 117.023C462.278 116.309 462.256 115.561 462.39 114.836C462.524 114.112 462.81 113.429 463.227 112.841C463.886 111.993 464.862 111.513 465.448 110.573C466.206 109.358 466.14 107.691 466.503 106.235C466.717 105.315 467.134 104.462 467.717 103.748C468.301 103.034 469.034 102.48 469.858 102.131C470.656 101.84 471.513 101.784 472.338 101.969C473.164 102.155 473.928 102.574 474.55 103.183C475.21 103.819 475.737 104.639 476.383 105.303C477.02 105.957 477.801 106.429 478.653 106.676C479.505 106.923 480.402 106.937 481.26 106.716" fill="#3F3D56"/>
<path opacity="0.1" d="M489.42 210.923C489.036 211.289 488.764 211.771 488.639 212.305C488.515 212.84 488.543 213.402 488.721 213.919C488.866 214.251 495.668 212.845 496.386 212.739C498.179 212.463 501.323 212.597 502.529 210.838C504.678 207.723 498.021 208.415 496.801 208.528C494.481 208.74 491.186 209.079 489.42 210.923Z" fill="black"/>
<path d="M427.544 119.786C427.254 121.179 427.086 122.598 427.043 124.025C425.066 124.456 423.01 123.749 421.111 123.043L415.661 121.05C415.329 120.823 414.929 120.74 414.543 120.817C414.156 120.895 413.811 121.127 413.578 121.467C412.701 122.442 411.495 124.293 410.283 125.388C410.087 125.366 409.895 125.321 409.709 125.254C408.793 124.844 408.931 123.325 409.591 122.527C410.25 121.728 411.225 121.283 411.825 120.407C412.104 119.888 412.417 119.389 412.761 118.917C413.202 118.511 413.729 118.227 414.296 118.09C418.098 116.889 422.12 116.726 425.995 117.617C426.655 117.772 427.406 118.055 427.604 118.74C427.668 119.088 427.647 119.448 427.544 119.786Z" fill="#3F3D56"/>
<path opacity="0.1" d="M427.544 119.786C427.254 121.179 427.086 122.598 427.043 124.025C425.066 124.456 423.01 123.749 421.111 123.043L415.661 121.05C415.329 120.823 414.929 120.74 414.543 120.817C414.156 120.895 413.811 121.127 413.578 121.467C412.701 122.442 411.495 124.293 410.283 125.388C410.087 125.366 409.895 125.321 409.709 125.254C408.793 124.844 408.931 123.325 409.591 122.527C410.25 121.728 411.225 121.283 411.825 120.407C412.104 119.888 412.417 119.389 412.761 118.917C413.202 118.511 413.729 118.227 414.296 118.09C418.098 116.889 422.12 116.726 425.995 117.617C426.655 117.772 427.406 118.055 427.604 118.74C427.668 119.088 427.647 119.448 427.544 119.786Z" fill="black"/>
<path opacity="0.1" d="M477.404 253.913C478.353 254.252 479.382 254.747 479.704 255.764L472.072 253.687L468.118 252.606C467.419 252.415 464.915 252.196 464.453 251.61C463.794 250.748 466.134 251.342 466.556 251.405C467.834 251.61 469.113 251.822 470.385 252.069C472.784 252.528 475.091 253.284 477.404 253.913Z" fill="black"/>
<path opacity="0.1" d="M480.364 261.155C479.704 260.681 477.813 260.738 477.002 260.533C475.816 260.229 474.649 259.827 473.483 259.438C471.117 258.611 468.77 257.672 466.338 257.064C465.89 256.958 464.361 256.93 464.433 256.322C464.506 255.715 465.962 255.503 466.325 255.475C468.48 255.305 471.169 256.386 473.173 257.156C475.727 258.136 478.145 259.482 480.364 261.155Z" fill="black"/>
<path opacity="0.1" d="M475.526 247.456C473.107 246.749 470.912 245.139 468.421 244.828C467.772 244.854 467.133 244.645 466.608 244.234C466.315 243.926 466.112 243.533 466.022 243.104C467.689 243.012 469.627 243.768 471.143 244.481C471.977 244.865 472.78 245.324 473.542 245.852C474.096 246.212 474.926 247.251 475.526 247.456Z" fill="black"/>
<path d="M521.636 184.197C521.227 187.134 521.819 190.131 523.302 192.639C524.786 195.146 527.063 196.998 529.716 197.853C529.393 199.527 527.779 200.453 526.638 201.647C525.03 203.321 524.2 205.829 522.302 207.101C520.186 208.514 517.464 207.963 515.052 207.369C514.832 207.343 514.63 207.23 514.485 207.052C514.435 206.967 514.399 206.874 514.379 206.776C513.582 203.646 513.061 200.305 513.878 197.168C514.537 194.497 516.119 192.222 517.385 189.863C518.65 187.503 518.769 184.974 521.636 184.197Z" fill="#3F3D56"/>
<path d="M462.707 143.686C460.155 143.885 457.678 144.694 455.457 146.053C453.98 146.957 452.464 148.173 450.777 147.953C449.782 147.833 448.8 147.247 447.831 147.53C447.285 147.766 446.776 148.09 446.322 148.49C446.091 148.687 445.817 148.817 445.526 148.866C445.235 148.916 444.937 148.884 444.661 148.773L444.002 158.551C443.751 162.267 443.507 166.061 444.338 169.685C444.766 171.536 445.709 173.218 445.814 175.097C445.92 176.976 445.761 178.905 445.887 180.805C446.005 182.565 446.368 184.295 446.46 186.055C446.645 189.375 445.88 192.667 445.142 195.896C444.028 200.658 443.356 205.525 441.187 209.835C440.581 211.029 439.869 212.244 439.869 213.601C439.869 213.77 439.869 213.933 439.909 214.095C439.25 214.484 438.637 214.851 438.076 215.233C436.824 216.102 435.486 217.07 434.972 218.574C434.557 219.797 434.748 221.195 434.247 222.375C433.746 223.555 432.599 224.396 432.349 225.668C432.171 226.593 432.514 227.568 432.349 228.494C432.2 228.972 432.079 229.461 431.986 229.956C431.92 231.016 432.757 231.871 433.588 232.45C434.799 233.305 436.136 233.936 437.543 234.315L441.477 217.571C445.065 210.461 448.049 203.02 450.395 195.338C451.066 192.827 451.928 190.379 452.972 188.019C453.718 186.683 454.378 185.296 454.949 183.864C455.549 182.084 455.608 180.155 455.898 178.276C456.242 176.083 456.761 173.925 457.447 171.826C458.159 169.558 458.983 167.297 459.128 164.916C459.345 161.511 458.192 157.915 459.418 154.764C459.938 153.585 460.615 152.492 461.428 151.521C463.128 149.289 464.677 146.95 466.378 144.718C465.495 143.707 464.025 143.602 462.707 143.686Z" fill="#3F3D56"/>
<g opacity="0.1">
<path opacity="0.1" d="M481.28 104.61L480.456 104.674L480.364 104.744C480.672 104.731 480.979 104.686 481.28 104.61Z" fill="black"/>
<path opacity="0.1" d="M496.36 119.277C496.222 120.681 495.939 122.065 495.516 123.403C495.244 124.215 495.024 125.045 494.857 125.89C494.725 126.709 494.712 127.543 494.594 128.362C494.447 129.425 494.105 130.446 493.585 131.364C493.065 132.282 492.38 133.08 491.568 133.71C491.337 133.912 491.049 134.025 490.751 134.028C490.237 133.965 489.921 133.322 489.729 132.743C488.681 129.5 488.932 125.536 487.001 122.951C486.122 121.907 485.061 121.06 483.877 120.457C483.394 120.123 482.85 119.904 482.282 119.814C481.446 119.862 480.642 120.177 479.975 120.718C478.584 121.718 477.04 122.45 475.414 122.88C474.602 123.086 473.758 123.095 472.943 122.907C472.128 122.719 471.362 122.338 470.701 121.792C469.792 120.987 469.126 119.778 468.118 119.15C467.109 118.521 466.055 118.556 465.06 118.125C464.438 117.841 463.884 117.41 463.439 116.864C462.994 116.319 462.669 115.673 462.489 114.974C462.466 114.886 462.448 114.796 462.436 114.706C462.272 115.494 462.29 116.314 462.489 117.094C462.669 117.792 462.994 118.438 463.439 118.984C463.884 119.529 464.438 119.96 465.06 120.245C466.055 120.676 467.175 120.683 468.118 121.269C469.06 121.856 469.792 123.106 470.701 123.911C471.362 124.457 472.128 124.838 472.943 125.027C473.758 125.215 474.602 125.205 475.414 124.999C477.04 124.569 478.584 123.838 479.975 122.838C480.642 122.296 481.446 121.981 482.282 121.933C482.85 122.023 483.394 122.242 483.877 122.576C485.046 123.191 486.091 124.046 486.955 125.091C488.886 127.677 488.635 131.64 489.683 134.883C489.874 135.47 490.191 136.105 490.705 136.169C491.021 136.171 491.328 136.05 491.568 135.83C492.383 135.198 493.071 134.397 493.592 133.475C494.113 132.553 494.456 131.528 494.6 130.461C494.719 129.641 494.732 128.807 494.864 127.988C495.03 127.144 495.25 126.313 495.523 125.501C496.165 123.598 496.463 121.582 496.399 119.559C496.386 119.475 496.373 119.376 496.36 119.277Z" fill="black"/>
</g>
<path d="M454.659 175.966L454.211 182.416C454.145 183.292 452.583 204.148 441.062 228.522C431.176 249.427 411.937 276.655 375.614 291.958C372.78 293.159 369.838 294.28 366.789 295.32L363.388 283.875C371.926 280.995 380.151 277.139 387.92 272.374C406.433 260.914 420.828 244.559 430.866 223.513C436.192 212.307 439.987 200.339 442.136 187.976H400.811V175.966H454.659Z" fill="#63A1FF"/>
<path opacity="0.1" d="M371.165 291.965C407.481 276.662 426.727 249.441 436.607 228.536C448.127 204.162 449.696 183.32 449.755 182.43L450.204 175.98H454.817L454.369 182.43C454.31 183.306 452.741 204.162 441.22 228.536C431.334 249.441 412.095 276.662 375.779 291.965C372.945 293.166 370.001 294.289 366.947 295.335L366.499 293.83C368.09 293.222 369.645 292.601 371.165 291.965Z" fill="white"/>
<path d="M298.455 283.875L295.054 295.32C292 294.275 289.056 293.152 286.222 291.95C249.906 276.648 230.66 249.427 220.781 228.522C209.26 204.148 207.691 183.306 207.632 182.416L207.184 175.966H261.005V187.976H219.673C221.834 200.341 225.641 212.309 230.977 223.513C241.015 244.559 255.403 260.914 273.917 272.367C281.686 277.137 289.913 280.996 298.455 283.875Z" fill="#63A1FF"/>
<path opacity="0.1" d="M290.664 291.965C254.348 276.662 235.103 249.441 225.223 228.536C213.702 204.162 212.133 183.32 212.074 182.43L211.626 175.98H207.012L207.461 182.43C207.52 183.306 209.088 204.162 220.609 228.536C230.496 249.441 249.735 276.662 286.051 291.965C288.885 293.166 291.829 294.289 294.882 295.335L295.331 293.83C293.744 293.222 292.189 292.601 290.664 291.965Z" fill="white"/>
<path d="M393.093 394.512V459.276H268.743V394.512L272.697 388.86C312.994 373.529 321.16 333.549 322.788 317.73C323.03 315.545 323.169 313.347 323.203 311.146H338.58C338.614 313.347 338.753 315.545 338.995 317.73C340.649 333.549 348.816 373.543 389.086 388.86L393.093 394.512Z" fill="#63A1FF"/>
<path opacity="0.1" d="M393.093 394.512H268.743V402.637H393.093V394.512Z" fill="black"/>
<path opacity="0.1" d="M279.288 388.86C319.585 373.529 327.751 333.549 329.379 317.73C329.621 315.545 329.76 313.347 329.794 311.146H323.203C323.169 313.347 323.03 315.545 322.788 317.73C321.134 333.549 312.968 373.543 272.697 388.86L268.743 394.512V459.276H275.334V394.512L279.288 388.86Z" fill="white"/>
<path opacity="0.1" d="M249.853 175.966H261.005V187.976H250.842C250.442 184.02 250.112 180.016 249.853 175.966Z" fill="black"/>
<path opacity="0.1" d="M298.455 283.875L295.054 295.321C292 294.275 289.056 293.152 286.222 291.951C281.56 285.848 277.44 279.291 273.917 272.367C281.686 277.137 289.913 280.996 298.455 283.875Z" fill="black"/>
<path opacity="0.1" d="M363.382 283.875C371.92 280.995 380.144 277.139 387.913 272.374C384.387 279.299 380.268 285.858 375.608 291.965C372.774 293.166 369.832 294.287 366.782 295.328L363.382 283.875Z" fill="black"/>
<path opacity="0.1" d="M411.976 175.966C411.717 180.016 411.388 184.02 410.988 187.976H400.831V175.966H411.976Z" fill="black"/>
<path opacity="0.1" d="M339.022 317.73C333.669 318.842 328.167 318.842 322.815 317.73C323.057 315.545 323.195 313.347 323.23 311.146H338.606C338.641 313.347 338.779 315.545 339.022 317.73Z" fill="black"/>
<path d="M251.171 156.071C251.455 245.131 287.046 317.151 330.921 317.151C374.797 317.151 410.381 245.131 410.671 156.071H251.171Z" fill="#63A1FF"/>
<path opacity="0.1" d="M265.342 156.071H251.171C251.455 245.131 287.046 317.151 330.921 317.151C333.296 317.147 335.665 316.932 338.007 316.508C297.446 309.246 265.612 240.285 265.342 156.071Z" fill="white"/>
<path d="M373.209 419.303H288.627V442.617H373.209V419.303Z" fill="#3F3D56"/>
<path opacity="0.1" d="M292.582 422.482H373.209V419.303H288.627V442.617H292.582V422.482Z" fill="white"/>
<path d="M206.063 242.058C204.541 241.514 195.577 233.912 194.898 230.472C194.219 227.031 199.637 194.978 199.637 194.978C199.637 194.978 199.136 194.978 198.319 194.872V194.356L199.433 152.249C199.433 152.249 204 123.989 195.373 125.635C186.745 127.282 192.156 152.249 192.156 152.249C192.156 152.249 191.174 164.923 190.482 168.724C189.823 172.391 186.805 187.326 188.861 191.968C188.936 192.133 189.02 192.293 189.111 192.448C189.111 192.448 189.454 208.38 185.73 210.556C182.178 212.626 180.701 223.046 180.576 223.979L180.385 223.894C179.324 223.183 178.393 222.271 177.637 221.202C177.558 221.097 177.498 220.983 177.426 220.87C179.851 217.946 181.158 214.149 181.085 210.237C181.013 206.326 179.568 202.587 177.037 199.768C175.86 198.457 174.48 197.377 172.957 196.574C172.913 195.224 172.615 193.898 172.08 192.674C170.367 188.746 160.876 183.61 154.133 183.49C151.022 183.391 148.472 184.338 147.542 186.945C147.068 188.266 147.213 189.771 147.015 191.141C146.62 193.967 144.926 196.179 142.751 197.938C141.873 196.887 140.923 195.907 139.91 195.006C137.709 193.197 133.319 187.234 133.319 187.234C133.319 187.234 119.617 172.024 118.602 167.855C117.587 163.687 103.897 138.656 100.852 143.015C97.8075 147.374 111.339 166.372 111.339 166.372C111.339 166.372 113.909 173.274 115.886 175.606C117.864 177.937 133.023 201.534 133.023 201.534L133.748 203.145C130.545 204.953 127.618 207.256 126.583 210.845C125.067 216.13 128.383 221.443 130.676 226.388C135.145 236.039 135.784 248.346 130.017 257.163C124.85 264.948 115.886 268.65 107.496 271.886C111.548 275.297 116.582 277.088 121.732 276.952C119.795 282.971 112.927 284.963 107.074 286.08C110.146 289.245 114.542 290.396 118.76 291.096C120.826 291.473 122.919 291.65 125.015 291.626H125.529L126.043 291.583C126.757 291.532 127.468 291.436 128.172 291.294C131.217 290.629 134.176 288.849 135.732 285.967C137.05 283.501 137.511 280.138 139.904 278.902C140.527 278.6 141.198 278.43 141.881 278.4H141.808C142.257 278.4 142.718 278.4 143.166 278.4L153.138 278.506C153.553 278.506 153.982 278.506 154.41 278.506C157.225 278.435 160.23 277.913 161.66 275.419C162.249 274.208 162.558 272.863 162.563 271.498C162.774 268.114 162.563 264.631 162.649 261.218C163.499 267.428 164.389 277.107 162.273 280.682C160.554 283.391 158.471 285.812 156.091 287.867C155.492 288.406 154.945 289.007 154.456 289.662C154.133 289.909 153.942 290.043 153.942 290.043L153.738 290.7C152.987 291.921 152.442 293.275 152.13 294.699C152.015 295.065 151.972 295.452 152.005 295.836C152.235 296.338 150.357 298.408 150.904 299.277C146.211 305.176 145.321 314.113 145.321 314.113L136.753 328.059C132.35 340.458 125.76 341.73 125.76 341.73C125.76 341.73 110.277 330.596 109.856 330.052C109.434 329.508 103.515 326.788 103.515 326.788C102.817 325.476 101.752 324.433 100.47 323.806C98.4402 322.902 98.2688 319.567 98.2688 319.567C98.0184 311.69 93.7013 311.089 93.7013 311.089C90.2213 310.772 87.5652 311.436 85.522 312.651L84.9025 312.7C81.9102 312.962 78.3116 313.251 74.357 313.534C63.3568 314.311 60.7402 321.948 60.7402 321.948C60.7402 321.948 59.3891 323.58 61.162 325.346C62.935 327.113 74.2845 325.346 74.7657 325.304C73.9007 325.404 73.026 325.34 72.182 325.113C73.9682 325.043 76.4266 324.972 78.5225 324.972H79.03C78.898 326.163 78.8342 327.362 78.8388 328.561C78.8388 330.822 84.6718 332.27 84.6718 332.27L102.434 349.226C102.434 349.226 113.599 354.574 120.704 362.268C127.809 369.961 134.09 363.32 134.09 363.32C141.611 361.328 163.249 333.287 163.268 333.259C163.268 334.079 163.723 361.349 164.587 366.825C164.621 367.102 164.685 367.375 164.778 367.637C165.793 369.99 164.435 376.419 163.848 379.132C163.474 381.402 163.331 383.709 163.42 386.013C163.42 386.013 155.307 419.218 155.979 422.136C156.651 425.054 151.583 438.611 151.583 438.611V449.915L152.466 449.866C152.351 450.048 152.245 450.236 152.15 450.431L152.09 450.551C152.09 450.551 157.501 451.816 161.14 451.455C164.778 451.095 171.026 454.458 171.026 454.458C171.026 454.458 173.142 455.532 179.653 455.984C186.165 456.436 186.165 452.904 186.165 452.904C185.42 448.092 175.132 446.482 174.816 446.432C173.985 445.874 173.208 445.266 172.568 444.744L172.436 444.631C172.479 444.525 172.517 444.416 172.548 444.306C173.649 439.501 167.559 437.417 167.559 437.417V436.244C171.514 434.068 172.298 419.133 172.298 419.133C172.298 419.133 178.23 400.666 179.06 397.585C179.891 394.505 179.06 389.892 179.06 389.892L179.653 385.907C179.653 385.907 180.925 383.194 180.925 382.65C181.09 381.271 181.585 379.962 182.362 378.849C183.292 377.669 181.347 374.864 181.347 374.864L183.041 370.159V364.995L186.996 346.259C186.996 346.259 191.141 324.435 189.705 317.292C188.268 310.15 191.398 306.518 191.398 306.518C191.116 306.677 190.826 306.819 190.528 306.942C190.924 305.962 191.265 304.957 191.55 303.933L200.448 305.113V305.254H203.658C203.658 305.254 202.643 291.83 202.643 286.419C202.643 281.007 206.063 261.586 206.063 261.586C206.063 261.586 207.586 242.602 206.063 242.058ZM166.564 226.388C166.564 226.918 166.518 227.469 166.485 228.034L166.307 228.324L165.977 228.027L165.575 228.698L165.457 228.762C164.587 228.282 164.138 225.533 163.512 226.127L163.427 226.204C163.288 226.035 163.15 225.985 163.005 226.127L162.873 226.247C162.873 226.042 162.873 225.83 162.873 225.618C164.079 225.951 165.319 226.119 166.564 226.12C166.57 226.212 166.564 226.303 166.564 226.388ZM196.157 288.899H196.348L196.032 289.789C196.071 289.492 196.111 289.202 196.157 288.899ZM163.67 449.11L162.458 448.785L163.117 448.665L163.73 449.096L163.802 449.152L163.67 449.11ZM176.061 447.209C175.659 446.983 175.251 446.722 174.855 446.453C174.987 446.531 175.508 446.821 176.061 447.209Z" fill="url(#paint1_linear)"/>
<path d="M200.533 275.553L192.552 297.85H194.489L186.982 304.265L200.533 306.073V275.553Z" fill="#F86D70"/>
<path opacity="0.1" d="M200.533 275.553L192.552 297.85L190.542 297.271L186.982 304.265L200.533 306.073V275.553Z" fill="black"/>
<path d="M188.017 289.817H200.533L205.127 249.3H188.017V289.817Z" fill="#F86D70"/>
<path opacity="0.1" d="M188.017 289.817H200.533L205.127 249.3H188.017V289.817Z" fill="black"/>
<path d="M163.572 258.894L166.274 258.406L172.483 257.276C172.483 257.276 191.128 252.768 194.977 252.401C197.309 252.071 199.583 251.376 201.726 250.338C202.735 249.872 203.374 249.519 203.374 249.519L196.658 236.371L186.238 228.091C186.238 228.091 179.647 226.586 176.859 222.474C176.237 221.589 175.832 220.551 175.681 219.455C175.53 218.359 175.638 217.24 175.995 216.2C177.696 210.549 165.839 221.605 165.839 221.605C165.839 221.605 165.951 224.254 165.839 227.632C165.839 228.296 165.78 228.988 165.733 229.694C165.733 230.161 165.674 230.627 165.628 231.107C165.338 234.463 164.745 237.918 163.572 239.981C160.705 245.025 163.572 258.894 163.572 258.894Z" fill="#FBBEBE"/>
<path opacity="0.1" d="M165.839 227.914H166.102C166.577 227.914 166.959 226.833 167.421 226.784C171.131 226.402 174.519 225.569 176.872 222.75C176.252 221.866 175.847 220.829 175.697 219.734C175.546 218.64 175.653 217.522 176.009 216.483C177.709 210.831 165.852 221.881 165.852 221.881C165.852 221.881 165.977 224.537 165.839 227.914Z" fill="black"/>
<path d="M151.405 211.891C151.404 213.925 151.777 215.939 152.503 217.819C153.228 219.698 154.293 221.405 155.634 222.844C156.976 224.282 158.569 225.423 160.322 226.201C162.075 226.978 163.955 227.378 165.852 227.377C166.327 227.377 166.795 227.377 167.263 227.307C170.046 227.014 172.691 225.861 174.875 223.989C177.06 222.116 178.69 219.604 179.569 216.757C180.447 213.911 180.535 210.852 179.823 207.952C179.111 205.053 177.629 202.437 175.557 200.423C173.486 198.409 170.913 197.083 168.151 196.606C165.39 196.128 162.558 196.521 160.001 197.735C157.443 198.949 155.27 200.934 153.744 203.446C152.218 205.959 151.405 208.893 151.405 211.891Z" fill="#FBBEBE"/>
<path d="M146.969 188.386C146.495 189.7 146.64 191.17 146.448 192.562C145.743 197.585 140.978 200.594 136.668 202.7C132.357 204.805 127.493 207.299 126.122 212.153C124.619 217.402 127.902 222.665 130.182 227.589C134.624 237.184 135.257 249.42 129.523 258.195C124.428 265.966 115.55 269.654 107.193 272.89C111.215 276.281 116.214 278.065 121.33 277.934C119.413 283.918 112.591 285.903 106.778 287.005C109.829 290.156 114.199 291.301 118.384 291.993C121.436 292.502 124.567 292.834 127.612 292.177C130.657 291.52 133.543 289.746 135.112 286.878C136.43 284.427 136.878 281.085 139.258 279.849C140.332 279.395 141.489 279.214 142.639 279.319L152.525 279.432C155.603 279.432 159.248 279.177 160.836 276.358C161.422 275.154 161.73 273.817 161.733 272.459C162.161 265.507 160.915 258.159 163.585 251.815C164.389 249.9 159.228 246.87 159.769 244.842C161.627 237.869 162.095 232.379 162.075 225.124C162.075 219.507 165.483 214.668 168.297 209.927C171.112 205.187 173.465 199.203 171.243 194.116C168.739 188.443 149.928 180.198 146.969 188.386Z" fill="#3F3D56"/>
<path d="M160.131 447.075L162.649 448.862L163.038 449.138L163.11 449.187L166.096 451.307L173.069 452.564L179.199 452.112C179.199 452.112 180.965 448.156 178.19 448.248C177.301 448.199 176.435 447.93 175.659 447.463L175.277 447.259C174.875 447.032 174.473 446.778 174.077 446.51C173.254 445.952 172.476 445.344 171.85 444.828C170.927 444.065 170.314 443.486 170.314 443.486L160.131 447.075Z" fill="#FBBEBE"/>
<path opacity="0.1" d="M162.682 448.863L163.071 449.138L163.143 449.188L166.129 451.307L173.102 452.565L179.231 452.113C179.231 452.113 180.998 448.156 178.223 448.248C177.334 448.199 176.468 447.931 175.692 447.464C176.18 447.874 176.589 448.319 176.628 448.693C176.74 449.703 172.094 451.519 172.094 451.519L165.542 449.661C165.542 449.661 164.428 449.322 162.906 448.898L162.761 448.856L162.682 448.863Z" fill="black"/>
<path d="M151.477 450.586C151.477 450.586 156.849 451.844 160.461 451.484C164.073 451.123 170.294 454.458 170.294 454.458C170.294 454.458 172.397 455.518 178.863 455.97C185.328 456.422 185.328 452.904 185.328 452.904C184.59 448.121 174.374 446.545 174.058 446.475C174.183 446.545 174.717 446.835 175.257 447.223C175.982 447.732 176.767 448.396 176.826 448.933C176.938 449.936 172.291 451.759 172.291 451.759L165.74 449.908C165.74 449.908 164.626 449.562 163.104 449.138H162.959C160.701 448.479 158.407 447.972 156.091 447.619C153.27 447.294 151.827 449.866 151.53 450.445C151.508 450.49 151.491 450.538 151.477 450.586Z" fill="#3F3D56"/>
<path d="M66.8104 323.538L69.6643 325.883C69.6643 325.883 70.4947 325.841 71.7338 325.799H72.1293C73.9022 325.728 76.3475 325.657 78.4236 325.657C79.7657 325.593 81.1104 325.673 82.4375 325.898C83.8611 326.434 86.392 317.165 86.392 317.165L83.5315 316.459L82.5825 316.219L81.9234 316.049L79.5968 315.463L72.5445 316.325L67.5882 319.744L66.8104 323.538Z" fill="#FBBEBE"/>
<path opacity="0.1" d="M66.8104 323.538L69.6643 325.883C69.6643 325.883 70.4947 325.841 71.7338 325.799C71.1652 325.564 70.6964 325.114 70.4157 324.534C68.5702 319.045 77.725 316.699 77.725 316.699L81.9893 316.501L82.8197 316.459H83.4788L82.5297 316.219L81.8706 316.049L79.5441 315.463L72.4918 316.325L67.5354 319.744L66.8104 323.538Z" fill="black"/>
<path d="M61.1818 326.018C62.9086 327.727 74.2186 326.018 74.6931 325.975C73.8348 326.079 72.966 326.014 72.1293 325.785C71.715 325.705 71.3225 325.527 70.9805 325.265C70.6384 325.002 70.3554 324.661 70.152 324.266C68.3066 318.769 77.4613 316.431 77.4613 316.431L81.7256 316.233L82.5495 316.19L92.917 315.71L93.4179 312.651C93.4179 312.651 90.05 312.99 84.7641 313.442C81.7916 313.704 78.1732 313.993 74.2647 314.269C63.3436 315.046 60.7468 322.641 60.7468 322.641C60.7468 322.641 59.422 324.266 61.1818 326.018Z" fill="#3F3D56"/>
<path d="M188.024 193.409C188.094 193.577 188.178 193.738 188.274 193.89L190.792 197.846L197.343 198.552L197.416 195.769L198.517 153.888C198.517 153.888 203.051 125.798 194.483 127.416C185.915 129.034 191.293 153.888 191.293 153.888C191.293 153.888 190.318 166.492 189.632 170.279C188.966 173.938 185.981 188.817 188.024 193.409Z" fill="#FBBEBE"/>
<path d="M173.319 297.433L175.185 300.853L179.357 308.504C179.357 308.504 186.923 311.478 188.861 309.21C189.922 307.974 191.069 303.657 191.873 300.026C192.532 297.087 192.974 294.607 192.974 294.607L173.319 297.433Z" fill="#FBBEBE"/>
<path opacity="0.1" d="M173.319 297.433L175.185 300.852C175.302 300.745 175.408 300.624 175.501 300.492C177.61 297.61 186.897 299.877 191.873 300.061C192.532 297.122 192.974 294.642 192.974 294.642L173.319 297.433Z" fill="black"/>
<path opacity="0.1" d="M78.4236 325.643C79.7657 325.579 81.1104 325.659 82.4374 325.884C83.8611 326.42 86.392 317.151 86.392 317.151L82.5824 316.19L92.9499 315.71L93.4509 312.651C93.4509 312.651 90.0829 312.99 84.797 313.442C83.7048 314.116 82.7302 314.989 81.9168 316.021L81.7586 316.233C79.5506 319.136 78.7334 322.881 78.4236 325.643Z" fill="black"/>
<path opacity="0.1" d="M160.131 447.075L163.038 449.138C167.375 448.297 171.336 446.976 171.804 444.899C171.806 444.866 171.806 444.833 171.804 444.8C170.881 444.037 170.268 443.458 170.268 443.458L160.131 447.075Z" fill="black"/>
<path opacity="0.1" d="M151.537 450.466C155.366 450.262 159.182 449.823 162.965 449.152C160.706 448.488 158.41 447.976 156.091 447.619C153.277 447.294 151.833 449.866 151.537 450.466Z" fill="black"/>
<path d="M78.74 329.211C78.74 331.465 84.5334 332.906 84.5334 332.906L102.177 349.742C102.177 349.742 113.263 355.054 120.315 362.706C127.368 370.357 133.59 363.787 133.59 363.787C141.064 361.808 162.59 333.895 162.59 333.895C162.59 333.895 163.09 365.772 164.099 368.11C165.107 370.449 163.763 376.843 163.176 379.548C162.806 381.805 162.665 384.098 162.754 386.387C162.754 386.387 154.694 419.43 155.366 422.312C156.038 425.195 150.996 438.703 150.996 438.703V449.957C150.996 449.957 170.736 449.145 171.823 444.376C172.911 439.607 166.874 437.53 166.874 437.53V436.357C170.828 434.196 171.573 419.345 171.573 419.345C171.573 419.345 177.459 400.976 178.296 397.917C179.133 394.858 178.296 390.259 178.296 390.259L178.882 386.303C178.882 386.303 180.141 383.597 180.141 383.06C180.306 381.689 180.798 380.387 181.571 379.28C182.494 378.107 180.563 375.317 180.563 375.317L182.244 370.632V365.503L186.198 346.866C186.198 346.866 190.318 325.163 188.887 318.048C187.457 310.934 190.568 307.338 190.568 307.338C183.825 311.125 180.425 302.696 179.311 299.072C179.027 298.139 178.889 297.518 178.889 297.518C178.889 297.518 169.629 293.858 161.008 294.734C159.257 294.886 157.531 295.278 155.873 295.9C146.297 299.595 144.788 314.897 144.788 314.897L136.305 328.766C131.935 341.101 125.384 342.359 125.384 342.359C125.384 342.359 110.014 331.288 109.566 330.744C109.118 330.2 103.265 327.501 103.265 327.501C102.573 326.196 101.514 325.157 100.24 324.534C98.2227 323.63 98.058 320.295 98.058 320.295C97.8075 312.46 93.5234 311.817 93.5234 311.817C78.6543 310.489 78.74 326.964 78.74 329.211Z" fill="#3F3D56"/>
<path d="M164.25 285.189H173.319V255.029H164.25V285.189Z" fill="#F86D70"/>
<path opacity="0.1" d="M164.25 285.189H173.319V255.029H164.25V285.189Z" fill="black"/>
<path opacity="0.1" d="M188.017 193.346C188.016 193.367 188.016 193.388 188.017 193.409C188.087 193.577 188.171 193.738 188.268 193.89L190.786 197.846L197.337 198.553L197.409 195.769C195.366 195.599 190.713 194.999 188.017 193.346Z" fill="black"/>
<path d="M188.274 193.89C188.274 193.89 188.611 209.729 184.913 211.891C181.216 214.053 179.779 225.314 179.779 225.314C179.779 225.314 190.983 233.213 193.481 236.689C195.979 240.165 201.713 248.445 200.533 250.423C199.354 252.401 203.394 261.409 203.394 261.409C203.394 261.409 195.999 277.616 197.68 283.741C199.36 289.867 199.525 306.066 199.525 306.066H202.722C202.722 306.066 201.713 292.742 201.713 287.337C201.713 281.933 205.068 262.667 205.068 262.667C205.068 262.667 206.584 243.761 205.068 243.224C203.552 242.687 194.654 235.121 193.982 231.694C193.31 228.268 198.688 196.369 198.688 196.369C198.688 196.369 191.8 196.052 188.274 193.89Z" fill="#F86D70"/>
<path opacity="0.1" d="M164.079 252.232C164.386 254.436 165.135 256.542 166.274 258.406L172.483 257.276C172.483 257.276 191.128 252.769 194.977 252.401C197.309 252.071 199.583 251.376 201.726 250.338C200.249 244.727 197.365 239.657 193.389 235.679L191.023 233.326C187.536 229.856 183.495 227.087 179.093 225.152C179.37 225.399 198.932 243.302 194.648 246.813C190.364 250.324 178.83 241.776 178.83 241.776L165.714 229.695L165.239 229.257L164.481 230.521C164.867 230.691 165.243 230.885 165.608 231.101C170.078 233.731 173.396 238.15 174.835 243.393C177.531 253.108 164.079 252.232 164.079 252.232Z" fill="black"/>
<path d="M160.046 297.249C160.046 297.249 172.476 304.632 175.495 300.492C176.154 299.581 177.544 299.185 179.278 299.079C178.994 298.147 178.856 297.525 178.856 297.525C178.856 297.525 169.596 293.865 160.975 294.741C160.408 296.267 160.046 297.249 160.046 297.249Z" fill="#444053"/>
<path d="M165.766 229.271L179.357 241.804C179.357 241.804 190.845 250.381 195.175 246.841C199.505 243.302 179.614 225.173 179.614 225.173C184.006 227.114 188.043 229.875 191.537 233.326L193.903 235.679C200.125 241.86 201.529 241.86 201.74 250.946C201.792 253.185 201.08 256.4 200.533 256.979C198.517 259.099 197.106 274.493 197.416 276.295C197.726 278.096 193.659 293.646 194.977 297.97C196.295 302.294 178.5 295.808 175.488 299.955C172.476 304.102 160.046 296.712 160.046 296.712C160.046 296.712 166.933 277.8 168.614 276.542C170.294 275.285 172.311 265.556 168.614 261.056C164.916 256.555 164.587 252.232 164.587 252.232C164.587 252.232 178.032 253.122 175.336 243.408C174.578 240.592 173.262 237.985 171.479 235.763C169.696 233.542 167.486 231.759 165.002 230.535L165.766 229.271Z" fill="#E8E8F0"/>
<path opacity="0.1" d="M183.905 261.147C183.905 261.147 178.691 271.681 171.949 274.415C171.731 274.5 171.52 274.578 171.29 274.649C164.25 276.945 184.432 264.411 183.905 261.147Z" fill="black"/>
<path d="M110.996 167.954C110.996 167.954 113.514 174.8 115.531 177.139C117.547 179.477 132.496 202.89 132.496 202.89L133.761 205.716L134.848 208.126L144.425 207.045L145.084 202.905L144.715 202.424C143.753 201.188 141.13 197.867 139.37 196.419C137.188 194.624 132.818 188.683 132.818 188.683C132.818 188.683 119.215 173.55 118.206 169.41C117.198 165.27 103.588 140.444 100.569 144.739C97.5505 149.035 110.996 167.954 110.996 167.954Z" fill="#FBBEBE"/>
<g opacity="0.1">
<path opacity="0.1" d="M138.783 279.319C137.634 279.212 136.477 279.391 135.402 279.842C133.029 281.078 132.581 284.42 131.263 286.871C129.721 289.739 126.781 291.513 123.756 292.17C123.155 292.295 122.547 292.384 121.937 292.438C123.864 292.639 125.807 292.549 127.71 292.17C130.736 291.513 133.675 289.739 135.217 286.871C136.536 284.42 136.984 281.078 139.357 279.842C139.98 279.541 140.651 279.373 141.334 279.347L138.783 279.319Z" fill="black"/>
<path opacity="0.1" d="M162.194 225.124C162.194 219.507 165.602 214.668 168.409 209.927C171.217 205.187 173.577 199.203 171.355 194.116C169.457 189.771 158.015 183.942 151.411 185.094C157.877 185.991 165.845 190.555 167.401 194.116C169.622 199.203 167.262 205.187 164.455 209.927C161.647 214.668 158.226 219.507 158.24 225.124C158.24 232.372 157.785 237.841 155.926 244.842C155.392 246.855 160.54 249.9 159.749 251.808C157.073 258.166 158.325 265.5 157.897 272.452C157.888 273.81 157.578 275.146 156.994 276.351C155.676 278.676 152.973 279.276 150.344 279.403H152.644C155.715 279.403 159.36 279.149 160.948 276.33C161.533 275.125 161.842 273.789 161.851 272.43C162.28 265.479 161.027 258.138 163.703 251.787C164.507 249.879 159.347 246.841 159.881 244.821C161.739 237.869 162.207 232.372 162.194 225.124Z" fill="black"/>
</g>
<path opacity="0.1" d="M133.761 205.702L134.848 208.111L144.425 207.03L145.084 202.89L144.715 202.41C143.694 202.947 136.041 206.896 133.761 205.702Z" fill="black"/>
<path opacity="0.1" d="M169.121 232.782C169.121 232.782 166.768 228.826 165.424 229.9C164.079 230.973 163.558 226.657 162.787 227.377C162.016 228.098 159.769 230.104 158.833 227.3C158.101 225.067 150.139 210.944 146.91 205.264C146.079 203.795 145.559 202.89 145.559 202.89C145.559 202.89 136.49 207.751 134.308 206.133V209.553L136.153 209.736L146.04 229.518C146.04 229.518 149.151 234.824 148.94 236.675C148.729 238.526 152.927 246.629 153.6 247.166C154.272 247.703 161.509 256.711 161.509 256.711C161.509 256.711 165.206 276.161 162.01 281.565C158.813 286.97 153.277 290.926 153.277 290.926C153.277 290.926 151.609 296.147 151.853 296.691C152.097 297.235 149.915 299.574 150.924 300.294C151.932 301.015 153.277 306.052 153.277 306.052C153.277 306.052 157.983 297.949 160.527 296.691C163.071 295.434 166.327 278.859 166.327 278.859C166.327 278.859 167.256 269.096 167.328 262.794C167.401 256.492 167.104 232.782 169.121 232.782Z" fill="black"/>
<path d="M168.614 232.782C168.614 232.782 166.267 228.826 164.923 229.9C163.578 230.973 163.051 226.657 162.286 227.377C161.522 228.098 159.274 230.104 158.332 227.3C157.594 225.067 149.632 210.944 146.409 205.264L145.058 202.89C145.058 202.89 135.989 207.751 133.8 206.133V209.553L135.652 209.736L145.539 229.518C145.539 229.518 148.656 234.824 148.439 236.675C148.221 238.526 152.393 246.629 153.099 247.166C153.804 247.703 161.008 256.711 161.008 256.711C161.008 256.711 164.705 276.161 161.515 281.565C159.83 284.28 157.78 286.713 155.432 288.786C153.459 290.53 152.071 292.916 151.477 295.582C151.363 295.945 151.322 296.331 151.359 296.712C151.602 297.249 149.421 299.595 150.429 300.316C151.438 301.036 152.795 306.095 152.795 306.095C152.795 306.095 157.501 297.991 160.045 296.734C162.589 295.476 165.852 278.902 165.852 278.902C165.852 278.902 166.775 269.138 166.854 262.836C166.933 256.534 166.636 232.782 168.614 232.782Z" fill="#F86D70"/>
<path opacity="0.1" d="M145.598 314.721C145.598 314.721 152.657 316.134 155.484 318.317C158.312 320.5 144.735 314.898 144.735 314.898L145.598 314.721Z" fill="black"/>
<path opacity="0.1" d="M162.57 333.895C162.57 333.895 169.932 340.472 168.614 346.414C167.296 352.356 163.895 367.305 163.895 367.305L162.57 333.895Z" fill="black"/>
<path opacity="0.1" d="M98.1832 321.249C98.1832 321.249 87.8091 322.464 88.4814 323.905C89.1537 325.347 98.1832 322.577 98.1832 322.577V321.249Z" fill="black"/>
<path opacity="0.1" d="M177.841 375.945C177.841 375.945 178.5 376.843 174.651 375.945C170.802 375.048 173.643 372.279 173.643 372.279L177.841 375.945Z" fill="black"/>
<path opacity="0.1" d="M176.523 388.372C176.523 388.372 171.25 389.27 168.422 388.372C165.595 387.475 176.523 388.372 176.523 388.372Z" fill="black"/>
<path opacity="0.1" d="M165.674 436.993C165.674 436.993 164.751 435.913 160.131 437.891C155.511 439.869 153.665 439.961 152.321 439.304C150.976 438.647 165.674 436.993 165.674 436.993Z" fill="black"/>
<path opacity="0.1" d="M170.802 319.716L164.25 329.487C164.25 329.487 167.777 320.931 170.802 319.716Z" fill="black"/>
<path opacity="0.1" d="M158.068 229.899C158.068 229.899 157.785 233.142 153.56 234.407C149.335 235.671 148.531 236.696 148.531 236.696" fill="black"/>
<path opacity="0.1" d="M147.088 206.395C147.088 206.395 141.512 210.633 135.692 209.736L147.088 206.395Z" fill="black"/>
<path opacity="0.1" d="M151.332 297.157C151.332 297.157 152.96 298.252 156.869 293.463L151.332 297.157Z" fill="black"/>
<path opacity="0.1" d="M191.926 246.368C192.084 245.492 191.517 244.679 190.983 243.994L189.889 242.581C189.675 242.292 189.435 242.027 189.171 241.79C188.512 241.246 187.668 241.083 186.982 240.596" fill="black"/>
<path opacity="0.1" d="M545.805 0.0776987C545.805 0.0776987 490.316 -3.51127 496.841 38.1717C496.841 38.1717 495.523 45.5404 501.771 48.8821C501.771 48.8821 501.87 45.7948 507.465 46.8475C509.458 47.2014 511.481 47.3058 513.496 47.1583C516.218 46.9569 518.804 45.8111 520.865 43.8943C520.865 43.8943 536.465 36.9848 542.529 9.65773C542.529 9.65773 547.017 3.69494 546.839 2.16185L537.474 6.45025C537.474 6.45025 540.677 13.6918 538.133 19.7111C538.133 19.7111 537.83 6.71166 536.03 6.99425C535.668 7.05784 531.166 9.5023 531.166 9.5023C531.166 9.5023 536.67 22.1132 532.517 31.2834C532.517 31.2834 534.093 15.7406 529.446 10.4137L522.855 14.5396C522.855 14.5396 529.288 27.5673 524.925 38.2C524.925 38.2 526.045 21.8942 521.464 15.5428L515.493 20.5377C515.493 20.5377 521.537 33.3817 517.853 42.1987C517.853 42.1987 517.372 23.2153 514.201 21.7811C514.201 21.7811 508.975 26.7266 508.177 28.7471C508.177 28.7471 512.316 38.0728 509.746 42.99C509.746 42.99 508.171 30.3438 506.879 30.2732C506.879 30.2732 501.672 38.6521 501.132 44.403C501.132 44.403 501.356 35.8615 505.62 29.4819C505.62 29.4819 500.584 30.4074 497.645 33.9045C497.645 33.9045 498.456 27.9841 506.905 27.4684C506.905 27.4684 511.209 21.11 512.356 20.7214C512.356 20.7214 503.959 19.9725 498.864 22.3887C498.864 22.3887 503.346 16.8004 513.898 19.3437L519.797 14.1793C519.797 14.1793 508.737 12.5614 504.045 14.3488C504.045 14.3488 509.443 9.40339 521.385 13.0065L527.805 8.89472C527.805 8.89472 518.373 6.71872 512.758 7.48173C512.758 7.48173 518.69 4.05525 529.69 7.7714L534.304 5.56008C534.304 5.56008 527.396 4.1047 525.373 3.87156C523.349 3.63842 523.244 3.04497 523.244 3.04497C527.62 2.26278 532.113 2.79841 536.222 4.59219C536.222 4.59219 545.976 0.734736 545.805 0.0776987Z" fill="#63A1FF"/>
<path opacity="0.1" d="M477.365 10.6822C477.365 10.6822 452.319 9.05723 455.252 27.8923C455.252 27.8923 454.666 31.2269 457.473 32.7388C457.473 32.7388 457.52 31.3258 460.05 31.8133C460.949 31.9755 461.863 32.0229 462.773 31.9546C464.003 31.865 465.172 31.3464 466.101 30.4781C466.101 30.4781 473.153 27.3624 475.895 15.013C475.895 15.013 477.919 12.3142 477.839 11.6218L473.608 13.5576C473.608 13.5576 475.058 16.8357 473.918 19.5557C473.918 19.5557 473.779 13.6777 472.969 13.819C472.804 13.819 470.767 14.9494 470.767 14.9494C470.767 14.9494 473.259 20.6508 471.38 24.7979C471.38 24.7979 472.092 17.7753 469.99 15.3662L467.011 17.2313C467.011 17.2313 469.924 23.1164 467.946 27.9206C467.946 27.9206 468.454 20.5518 466.384 17.6835L463.689 19.9655C463.689 19.9655 466.417 25.7728 464.756 29.7504C464.756 29.7504 464.539 21.1736 463.102 20.5307C463.102 20.5307 460.743 22.7632 460.38 23.6816C460.38 23.6816 462.252 27.9206 461.092 30.1107C461.092 30.1107 460.38 24.3952 459.774 24.374C459.774 24.374 457.427 28.1608 457.177 30.7324C457.294 28.3324 457.994 26.0068 459.207 23.9854C457.849 24.2611 456.596 24.956 455.602 25.9848C455.602 25.9848 455.971 23.3142 459.787 23.074C459.787 23.074 461.764 20.2057 462.252 20.029C462.252 20.029 458.455 19.6899 456.155 20.785C456.155 20.785 458.179 18.2558 462.951 19.372L465.587 17.0406C465.587 17.0406 460.591 16.3341 458.469 17.1183C458.469 17.1183 460.907 14.8858 466.305 16.5107L469.205 14.6526C469.205 14.6526 464.948 13.6636 462.403 14.0239C462.403 14.0239 465.086 12.4696 470.056 14.151L472.132 13.1549C472.132 13.1549 469.008 12.4908 468.091 12.3919C467.175 12.293 467.129 12.0174 467.129 12.0174C469.108 11.6646 471.139 11.9092 472.995 12.7239C472.995 12.7239 477.444 10.9789 477.365 10.6822Z" fill="#63A1FF"/>
<path d="M564.852 459.757C579.489 459.757 591.354 457.606 591.354 454.953C591.354 452.299 579.489 450.148 564.852 450.148C550.216 450.148 538.35 452.299 538.35 454.953C538.35 457.606 550.216 459.757 564.852 459.757Z" fill="#63A1FF"/>
<path d="M575.813 447.096C577.023 446.04 577.904 444.613 578.337 443.006C578.667 441.388 578.021 439.473 576.571 438.845C574.95 438.18 573.216 439.389 571.905 440.604C570.593 441.819 569.084 443.211 567.37 442.949C568.253 442.089 568.914 440.999 569.288 439.785C569.662 438.571 569.737 437.273 569.506 436.019C569.431 435.499 569.226 435.011 568.912 434.606C568.009 433.574 566.381 434.012 565.301 434.825C561.873 437.41 560.918 442.405 560.898 446.892C560.555 445.274 560.845 443.585 560.839 441.946C560.832 440.307 560.404 438.414 559.092 437.545C558.283 437.078 557.374 436.849 556.456 436.881C554.92 436.817 553.2 436.986 552.152 438.195C550.834 439.692 551.183 442.207 552.316 443.847C553.45 445.486 555.184 446.538 556.779 447.676C558.054 448.491 559.143 449.604 559.962 450.933C560.061 451.118 560.14 451.315 560.199 451.519H569.861C572.022 450.339 574.024 448.852 575.813 447.096Z" fill="#63A1FF"/>
</g>
<defs>
<linearGradient id="paint0_linear" x1="493.882" y1="356.729" x2="493.882" y2="72.5073" gradientUnits="userSpaceOnUse">
<stop stop-color="#808080" stop-opacity="0.25"/>
<stop offset="0.54" stop-color="#808080" stop-opacity="0.12"/>
<stop offset="1" stop-color="#808080" stop-opacity="0.1"/>
</linearGradient>
<linearGradient id="paint1_linear" x1="26226.7" y1="177036" x2="58780.2" y2="177036" gradientUnits="userSpaceOnUse">
<stop stop-color="#808080" stop-opacity="0.25"/>
<stop offset="0.54" stop-color="#808080" stop-opacity="0.12"/>
<stop offset="1" stop-color="#808080" stop-opacity="0.1"/>
</linearGradient>
<clipPath id="clip0">
<rect width="754" height="461" fill="white" transform="translate(-39)"/>
</clipPath>
</defs>
</svg>
